VotoSerifGX-CondensedBoldText.ufo
<glyph name="three" format="2">
  <advance width="397"/>
  <unicode hex="0033"/>
  <outline>
    <contour>
      <point x="171" y="-10" type="curve"/>
      <point x="285" y="-10"/>
      <point x="380" y="43"/>
      <point x="380" y="202" type="curve" smooth="yes"/>
      <point x="380" y="315"/>
      <point x="317" y="364"/>
      <point x="256" y="379" type="curve"/>
      <point x="315" y="408"/>
      <point x="362" y="468"/>
      <point x="362" y="558" type="curve" smooth="yes"/>
      <point x="362" y="664"/>
      <point x="296" y="724"/>
      <point x="183" y="724" type="curve" smooth="yes"/>
      <point x="70" y="724"/>
      <point x="17" y="658"/>
      <point x="17" y="590" type="curve" smooth="yes"/>
      <point x="17" y="532"/>
      <point x="58" y="510"/>
      <point x="120" y="510" type="curve"/>
      <point x="120" y="590"/>
      <point x="136" y="663"/>
      <point x="177" y="663" type="curve" smooth="yes"/>
      <point x="206" y="663"/>
      <point x="225" y="619"/>
      <point x="225" y="547" type="curve" smooth="yes"/>
      <point x="225" y="459"/>
      <point x="210" y="401"/>
      <point x="149" y="401" type="curve"/>
      <point x="91" y="401" type="line"/>
      <point x="91" y="341" type="line"/>
      <point x="145" y="341" type="line" smooth="yes"/>
      <point x="209" y="341"/>
      <point x="243" y="284"/>
      <point x="243" y="203" type="curve" smooth="yes"/>
      <point x="243" y="92"/>
      <point x="207" y="59"/>
      <point x="167" y="59" type="curve" smooth="yes"/>
      <point x="120" y="59"/>
      <point x="82" y="109"/>
      <point x="82" y="193" type="curve"/>
      <point x="43" y="193"/>
      <point x="8" y="168"/>
      <point x="8" y="117" type="curve" smooth="yes"/>
      <point x="8" y="45"/>
      <point x="51" y="-10"/>
    </contour>
  </outline>
</glyph>
<glyph name="five" format="2">
  <advance width="397"/>
  <unicode hex="0035"/>
  <outline>
    <contour>
      <point x="174" y="-10" type="curve" smooth="yes"/>
      <point x="245" y="-10"/>
      <point x="373" y="48"/>
      <point x="373" y="219" type="curve" smooth="yes"/>
      <point x="373" y="363"/>
      <point x="298" y="435"/>
      <point x="172" y="435" type="curve" smooth="yes"/>
      <point x="153" y="435"/>
      <point x="113" y="427"/>
      <point x="97" y="418" type="curve"/>
      <point x="113" y="607" type="line"/>
      <point x="264" y="607" type="line" smooth="yes"/>
      <point x="283" y="607"/>
      <point x="286" y="593"/>
      <point x="292" y="564" type="curve" smooth="yes"/>
      <point x="302" y="534" type="line"/>
      <point x="351" y="534" type="line"/>
      <point x="348" y="714" type="line"/>
      <point x="68" y="714" type="line"/>
      <point x="37" y="368" type="line"/>
      <point x="72" y="351" type="line"/>
      <point x="97" y="359"/>
      <point x="118" y="371"/>
      <point x="145" y="371" type="curve" smooth="yes"/>
      <point x="204" y="371"/>
      <point x="235" y="320"/>
      <point x="235" y="219" type="curve" smooth="yes"/>
      <point x="235" y="94"/>
      <point x="196" y="56"/>
      <point x="158" y="56" type="curve" smooth="yes"/>
      <point x="99" y="56"/>
      <point x="84" y="123"/>
      <point x="84" y="182" type="curve"/>
      <point x="47" y="182"/>
      <point x="17" y="158"/>
      <point x="17" y="113" type="curve" smooth="yes"/>
      <point x="17" y="51"/>
      <point x="64" y="-10"/>
    </contour>
  </outline>
</glyph>
<glyph name="M" format="2">
  <advance width="695"/>
  <unicode hex="004D"/>
  <anchor x="348" y="0" name="bottom"/>
  <anchor x="348" y="714" name="top"/>
  <anchor x="675" y="714" name="topright"/>
  <outline>
    <contour>
      <point x="16" y="0" type="line"/>
      <point x="204" y="0" type="line"/>
      <point x="204" y="53" type="line"/>
      <point x="198" y="53" type="line" smooth="yes"/>
      <point x="163" y="53"/>
      <point x="143" y="60"/>
      <point x="143" y="118" type="curve" smooth="yes"/>
      <point x="143" y="616" type="line"/>
      <point x="258" y="0" type="line"/>
      <point x="362" y="0" type="line"/>
      <point x="472" y="615" type="line"/>
      <point x="472" y="119" type="line" smooth="yes"/>
      <point x="472" y="67"/>
      <point x="462" y="53"/>
      <point x="432" y="53" type="curve"/>
      <point x="420" y="53" type="line"/>
      <point x="420" y="0" type="line"/>
      <point x="680" y="0" type="line"/>
      <point x="680" y="53" type="line"/>
      <point x="651" y="53" type="line" smooth="yes"/>
      <point x="626" y="53"/>
      <point x="616" y="66"/>
      <point x="616" y="110" type="curve" smooth="yes"/>
      <point x="616" y="605" type="line" smooth="yes"/>
      <point x="616" y="648"/>
      <point x="631" y="661"/>
      <point x="642" y="661" type="curve" smooth="yes"/>
      <point x="680" y="661" type="line"/>
      <point x="680" y="714" type="line"/>
      <point x="422" y="714" type="line"/>
      <point x="336" y="227" type="line"/>
      <point x="256" y="714" type="line"/>
      <point x="16" y="714" type="line"/>
      <point x="16" y="661" type="line"/>
      <point x="50" y="661" type="line" smooth="yes"/>
      <point x="66" y="661"/>
      <point x="81" y="648"/>
      <point x="81" y="601" type="curve" smooth="yes"/>
      <point x="81" y="113" type="line" smooth="yes"/>
      <point x="81" y="65"/>
      <point x="66" y="53"/>
      <point x="39" y="53" type="curve" smooth="yes"/>
      <point x="16" y="53" type="line"/>
    </contour>
  </outline>
</glyph>
<glyph name="asciicircum" format="2">
  <advance width="329"/>
  <unicode hex="005E"/>
  <outline>
    <contour>
      <point x="0" y="276" type="line"/>
      <point x="61" y="276" type="line"/>
      <point x="163" y="605" type="line"/>
      <point x="266" y="276" type="line"/>
      <point x="328" y="276" type="line"/>
      <point x="181" y="714" type="line"/>
      <point x="146" y="714" type="line"/>
    </contour>
  </outline>
</glyph>
<glyph name="t" format="2">
  <advance width="322"/>
  <unicode hex="0074"/>
  <anchor x="195" y="0" name="bottom"/>
  <anchor x="162" y="268" name="center"/>
  <anchor x="152" y="659" name="top"/>
  <anchor x="336" y="659" name="topright"/>
  <outline>
    <contour>
      <point x="192" y="-10" type="curve" smooth="yes"/>
      <point x="252" y="-10"/>
      <point x="292" y="5"/>
      <point x="309" y="15" type="curve"/>
      <point x="309" y="80" type="line"/>
      <point x="293" y="74"/>
      <point x="274" y="72"/>
      <point x="253" y="72" type="curve" smooth="yes"/>
      <point x="220" y="72"/>
      <point x="213" y="98"/>
      <point x="213" y="158" type="curve" smooth="yes"/>
      <point x="213" y="473" type="line"/>
      <point x="302" y="473" type="line"/>
      <point x="302" y="536" type="line"/>
      <point x="213" y="536" type="line"/>
      <point x="213" y="659" type="line"/>
      <point x="131" y="659" type="line"/>
      <point x="124" y="613"/>
      <point x="111" y="584"/>
      <point x="98" y="565" type="curve" smooth="yes"/>
      <point x="84" y="544"/>
      <point x="57" y="522"/>
      <point x="17" y="521" type="curve"/>
      <point x="17" y="473" type="line"/>
      <point x="69" y="473" type="line"/>
      <point x="69" y="148" type="line" smooth="yes"/>
      <point x="69" y="30"/>
      <point x="118" y="-10"/>
    </contour>
  </outline>
</glyph>
<glyph name="braceleft" format="2">
  <advance width="325"/>
  <unicode hex="007B"/>
  <outline>
    <contour>
      <point x="232" y="-125" type="curve" smooth="yes"/>
      <point x="315" y="-125" type="line"/>
      <point x="315" y="-72" type="line"/>
      <point x="283" y="-72" type="line" smooth="yes"/>
      <point x="243" y="-72"/>
      <point x="236" y="-37"/>
      <point x="236" y="25" type="curve" smooth="yes"/>
      <point x="236" y="197" type="line" smooth="yes"/>
      <point x="236" y="258"/>
      <point x="213" y="297"/>
      <point x="159" y="316" type="curve"/>
      <point x="159" y="324" type="line"/>
      <point x="216" y="341"/>
      <point x="236" y="380"/>
      <point x="236" y="441" type="curve" smooth="yes"/>
      <point x="236" y="611" type="line" smooth="yes"/>
      <point x="236" y="674"/>
      <point x="243" y="708"/>
      <point x="283" y="708" type="curve" smooth="yes"/>
      <point x="315" y="708" type="line"/>
      <point x="315" y="760" type="line"/>
      <point x="232" y="760" type="line" smooth="yes"/>
      <point x="140" y="760"/>
      <point x="93" y="708"/>
      <point x="93" y="614" type="curve" smooth="yes"/>
      <point x="93" y="443" type="line" smooth="yes"/>
      <point x="93" y="368"/>
      <point x="57" y="351"/>
      <point x="10" y="349" type="curve"/>
      <point x="10" y="289" type="line"/>
      <point x="57" y="286"/>
      <point x="93" y="271"/>
      <point x="93" y="194" type="curve" smooth="yes"/>
      <point x="93" y="23" type="line" smooth="yes"/>
      <point x="93" y="-68"/>
      <point x="140" y="-125"/>
    </contour>
  </outline>
</glyph>
<glyph name="asciitilde" format="2">
  <advance width="329"/>
  <unicode hex="007E"/>
  <outline>
    <contour>
      <point x="-7" y="262" type="curve"/>
      <point x="60" y="262" type="line"/>
      <point x="60" y="345"/>
      <point x="72" y="378"/>
      <point x="100" y="378" type="curve" smooth="yes"/>
      <point x="112" y="378"/>
      <point x="121" y="370"/>
      <point x="152" y="326" type="curve" smooth="yes"/>
      <point x="193" y="267"/>
      <point x="218" y="262"/>
      <point x="232" y="262" type="curve" smooth="yes"/>
      <point x="313" y="262"/>
      <point x="340" y="363"/>
      <point x="338" y="451" type="curve"/>
      <point x="273" y="451" type="line"/>
      <point x="273" y="364"/>
      <point x="256" y="335"/>
      <point x="229" y="335" type="curve" smooth="yes"/>
      <point x="212" y="335"/>
      <point x="210" y="350"/>
      <point x="187" y="382" type="curve" smooth="yes"/>
      <point x="151" y="433"/>
      <point x="119" y="451"/>
      <point x="89" y="451" type="curve" smooth="yes"/>
      <point x="15" y="451"/>
      <point x="-7" y="357"/>
    </contour>
  </outline>
</glyph>
<glyph name="acute" format="2">
  <advance width="296"/>
  <unicode hex="00B4"/>
  <outline>
    <contour>
      <point x="40" y="606" type="line"/>
      <point x="105" y="606" type="line"/>
      <point x="157" y="645"/>
      <point x="238" y="721"/>
      <point x="256" y="756" type="curve"/>
      <point x="256" y="766" type="line"/>
      <point x="116" y="766" type="line"/>
      <point x="101" y="721"/>
      <point x="62" y="662"/>
      <point x="40" y="619" type="curve"/>
    </contour>
  </outline>
</glyph>
<glyph name="onesuperior" format="2">
  <advance width="288"/>
  <unicode hex="00B9"/>
  <outline>
    <contour>
      <point x="33" y="387" type="line"/>
      <point x="267" y="387" type="line"/>
      <point x="267" y="436" type="line"/>
      <point x="236" y="436" type="line" smooth="yes"/>
      <point x="216" y="436"/>
      <point x="200" y="448"/>
      <point x="200" y="482" type="curve" smooth="yes"/>
      <point x="200" y="819" type="line"/>
      <point x="117" y="819" type="line"/>
      <point x="71" y="780" type="line" smooth="yes"/>
      <point x="47" y="760"/>
      <point x="27" y="742"/>
      <point x="14" y="739" type="curve"/>
      <point x="14" y="706"/>
      <point x="27" y="685"/>
      <point x="50" y="685" type="curve" smooth="yes"/>
      <point x="68" y="685"/>
      <point x="85" y="714"/>
      <point x="104" y="751" type="curve"/>
      <point x="104" y="482" type="line" smooth="yes"/>
      <point x="104" y="448"/>
      <point x="86" y="436"/>
      <point x="65" y="436" type="curve" smooth="yes"/>
      <point x="33" y="436" type="line"/>
    </contour>
  </outline>
</glyph>
<glyph name="Oslash" format="2">
  <advance width="593"/>
  <unicode hex="00D8"/>
  <anchor x="297" y="0" name="bottom"/>
  <anchor x="297" y="714" name="top"/>
  <outline>
    <contour>
      <point x="117" y="-40" type="line"/>
      <point x="175" y="-40" type="line"/>
      <point x="195" y="12" type="line"/>
      <point x="226" y="-3"/>
      <point x="259" y="-10"/>
      <point x="298" y="-10" type="curve" smooth="yes"/>
      <point x="462" y="-10"/>
      <point x="554" y="137"/>
      <point x="554" y="358" type="curve" smooth="yes"/>
      <point x="554" y="499"/>
      <point x="518" y="610"/>
      <point x="448" y="671" type="curve"/>
      <point x="478" y="755" type="line"/>
      <point x="419" y="755" type="line"/>
      <point x="399" y="703" type="line"/>
      <point x="371" y="717"/>
      <point x="337" y="725"/>
      <point x="299" y="725" type="curve" smooth="yes"/>
      <point x="123" y="725"/>
      <point x="39" y="580"/>
      <point x="39" y="359" type="curve" smooth="yes"/>
      <point x="39" y="214"/>
      <point x="74" y="103"/>
      <point x="147" y="42" type="curve"/>
    </contour>
    <contour>
      <point x="298" y="55" type="curve" smooth="yes"/>
      <point x="268" y="55"/>
      <point x="247" y="71"/>
      <point x="230" y="103" type="curve"/>
      <point x="391" y="523" type="line"/>
      <point x="399" y="479"/>
      <point x="403" y="424"/>
      <point x="403" y="358" type="curve" smooth="yes"/>
      <point x="403" y="167"/>
      <point x="375" y="55"/>
    </contour>
    <contour>
      <point x="205" y="190" type="line"/>
      <point x="196" y="236"/>
      <point x="192" y="293"/>
      <point x="192" y="358" type="curve" smooth="yes"/>
      <point x="192" y="549"/>
      <point x="221" y="660"/>
      <point x="299" y="660" type="curve" smooth="yes"/>
      <point x="328" y="660"/>
      <point x="349" y="644"/>
      <point x="366" y="615" type="curve"/>
    </contour>
  </outline>
</glyph>
<glyph name="ae" format="2">
  <advance width="652"/>
  <unicode hex="00E6"/>
  <anchor x="327" y="0" name="bottom"/>
  <anchor x="327" y="536" name="top"/>
  <outline>
    <contour>
      <point x="155" y="-10" type="curve" smooth="yes"/>
      <point x="218" y="-10"/>
      <point x="261" y="33"/>
      <point x="293" y="90" type="curve"/>
      <point x="326" y="25"/>
      <point x="378" y="-10"/>
      <point x="451" y="-10" type="curve" smooth="yes"/>
      <point x="567" y="-10"/>
      <point x="612" y="52"/>
      <point x="612" y="105" type="curve" smooth="yes"/>
      <point x="612" y="126"/>
      <point x="598" y="142"/>
      <point x="579" y="148" type="curve"/>
      <point x="564" y="98"/>
      <point x="538" y="62"/>
      <point x="488" y="62" type="curve" smooth="yes"/>
      <point x="425" y="62"/>
      <point x="393" y="124"/>
      <point x="392" y="259" type="curve"/>
      <point x="626" y="259" type="line"/>
      <point x="626" y="307" type="line" smooth="yes"/>
      <point x="626" y="465"/>
      <point x="556" y="549"/>
      <point x="456" y="549" type="curve" smooth="yes"/>
      <point x="405" y="549"/>
      <point x="366" y="525"/>
      <point x="337" y="488" type="curve"/>
      <point x="308" y="529"/>
      <point x="269" y="549"/>
      <point x="214" y="549" type="curve" smooth="yes"/>
      <point x="133" y="549"/>
      <point x="60" y="519"/>
      <point x="60" y="447" type="curve" smooth="yes"/>
      <point x="60" y="401"/>
      <point x="92" y="380"/>
      <point x="173" y="380" type="curve"/>
      <point x="173" y="443"/>
      <point x="185" y="489"/>
      <point x="214" y="489" type="curve" smooth="yes"/>
      <point x="237" y="489"/>
      <point x="248" y="441"/>
      <point x="248" y="373" type="curve" smooth="yes"/>
      <point x="248" y="318" type="line"/>
      <point x="189" y="315" type="line" smooth="yes"/>
      <point x="82" y="310"/>
      <point x="29" y="262"/>
      <point x="29" y="153" type="curve" smooth="yes"/>
      <point x="29" y="39"/>
      <point x="84" y="-10"/>
    </contour>
    <contour>
      <point x="201" y="59" type="curve" smooth="yes"/>
      <point x="183" y="59"/>
      <point x="174" y="89"/>
      <point x="174" y="149" type="curve" smooth="yes"/>
      <point x="174" y="222"/>
      <point x="187" y="257"/>
      <point x="228" y="264" type="curve" smooth="yes"/>
      <point x="249" y="267" type="line"/>
      <point x="249" y="191" type="line" smooth="yes"/>
      <point x="249" y="111"/>
      <point x="230" y="59"/>
    </contour>
    <contour>
      <point x="394" y="320" type="line"/>
      <point x="394" y="430"/>
      <point x="416" y="486"/>
      <point x="446" y="486" type="curve" smooth="yes"/>
      <point x="474" y="486"/>
      <point x="486" y="422"/>
      <point x="486" y="320" type="curve"/>
    </contour>
  </outline>
</glyph>
<glyph name="uni018A" format="2">
  <advance width="703"/>
  <unicode hex="018A"/>
  <anchor x="353" y="0" name="bottom"/>
  <anchor x="353" y="714" name="top"/>
  <outline>
    <contour>
      <point x="143" y="0" type="line"/>
      <point x="394" y="0" type="line" smooth="yes"/>
      <point x="570" y="0"/>
      <point x="665" y="150"/>
      <point x="665" y="369" type="curve" smooth="yes"/>
      <point x="665" y="596"/>
      <point x="561" y="714"/>
      <point x="394" y="714" type="curve" smooth="yes"/>
      <point x="170" y="714" type="line" smooth="yes"/>
      <point x="53" y="714"/>
      <point x="6" y="653"/>
      <point x="6" y="573" type="curve" smooth="yes"/>
      <point x="6" y="520"/>
      <point x="29" y="484"/>
      <point x="70" y="484" type="curve" smooth="yes"/>
      <point x="91" y="484"/>
      <point x="103" y="492"/>
      <point x="118" y="505" type="curve"/>
      <point x="103" y="525"/>
      <point x="93" y="544"/>
      <point x="93" y="575" type="curve" smooth="yes"/>
      <point x="93" y="640"/>
      <point x="123" y="661"/>
      <point x="158" y="661" type="curve" smooth="yes"/>
      <point x="201" y="661"/>
      <point x="210" y="635"/>
      <point x="210" y="570" type="curve" smooth="yes"/>
      <point x="210" y="113" type="line" smooth="yes"/>
      <point x="210" y="72"/>
      <point x="198" y="53"/>
      <point x="181" y="53" type="curve" smooth="yes"/>
      <point x="143" y="53" type="line"/>
    </contour>
    <contour>
      <point x="354" y="62" type="line"/>
      <point x="354" y="653" type="line"/>
      <point x="378" y="653" type="line" smooth="yes"/>
      <point x="464" y="653"/>
      <point x="511" y="562"/>
      <point x="511" y="369" type="curve" smooth="yes"/>
      <point x="511" y="178"/>
      <point x="464" y="62"/>
      <point x="378" y="62" type="curve" smooth="yes"/>
    </contour>
  </outline>
</glyph>
<glyph name="uni018C" format="2">
  <advance width="488"/>
  <unicode hex="018C"/>
  <anchor x="245" y="0" name="bottom"/>
  <anchor x="245" y="760" name="top"/>
  <outline>
    <contour>
      <point x="176" y="-10" type="curve" smooth="yes"/>
      <point x="231" y="-10"/>
      <point x="266" y="23"/>
      <point x="288" y="79" type="curve"/>
      <point x="292" y="79" type="line"/>
      <point x="317" y="0" type="line"/>
      <point x="477" y="0" type="line"/>
      <point x="477" y="53" type="line"/>
      <point x="471" y="53" type="line" smooth="yes"/>
      <point x="435" y="53"/>
      <point x="419" y="68"/>
      <point x="419" y="130" type="curve" smooth="yes"/>
      <point x="419" y="760" type="line"/>
      <point x="65" y="760" type="line"/>
      <point x="65" y="598" type="line"/>
      <point x="116" y="598" type="line"/>
      <point x="122" y="632" type="line" smooth="yes"/>
      <point x="131" y="687"/>
      <point x="146" y="700"/>
      <point x="190" y="700" type="curve" smooth="yes"/>
      <point x="277" y="700" type="line"/>
      <point x="277" y="583" type="line" smooth="yes"/>
      <point x="277" y="547"/>
      <point x="277" y="492"/>
      <point x="278" y="472" type="curve"/>
      <point x="274" y="472" type="line"/>
      <point x="255" y="515"/>
      <point x="226" y="547"/>
      <point x="173" y="547" type="curve" smooth="yes"/>
      <point x="81" y="547"/>
      <point x="27" y="460"/>
      <point x="27" y="267" type="curve" smooth="yes"/>
      <point x="27" y="75"/>
      <point x="81" y="-10"/>
    </contour>
    <contour>
      <point x="220" y="61" type="curve" smooth="yes"/>
      <point x="184" y="61"/>
      <point x="170" y="130"/>
      <point x="170" y="267" type="curve" smooth="yes"/>
      <point x="170" y="404"/>
      <point x="184" y="478"/>
      <point x="221" y="478" type="curve" smooth="yes"/>
      <point x="264" y="478"/>
      <point x="277" y="404"/>
      <point x="277" y="268" type="curve" smooth="yes"/>
      <point x="277" y="135"/>
      <point x="264" y="61"/>
    </contour>
  </outline>
</glyph>
<glyph name="uni0198" format="2">
  <advance width="549"/>
  <unicode hex="0198"/>
  <anchor x="275" y="0" name="bottom"/>
  <anchor x="275" y="714" name="top"/>
  <outline>
    <contour>
      <point x="16" y="0" type="line"/>
      <point x="279" y="0" type="line"/>
      <point x="279" y="53" type="line"/>
      <point x="262" y="53" type="line" smooth="yes"/>
      <point x="243" y="53"/>
      <point x="228" y="66"/>
      <point x="228" y="109" type="curve" smooth="yes"/>
      <point x="228" y="284" type="line"/>
      <point x="243" y="325" type="line"/>
      <point x="326" y="119" type="line" smooth="yes"/>
      <point x="356" y="23"/>
      <point x="391" y="0"/>
      <point x="495" y="0" type="curve" smooth="yes"/>
      <point x="566" y="0" type="line"/>
      <point x="566" y="53" type="line"/>
      <point x="560" y="53" type="line" smooth="yes"/>
      <point x="527" y="53"/>
      <point x="511" y="74"/>
      <point x="482" y="139" type="curve" smooth="yes"/>
      <point x="335" y="435" type="line"/>
      <point x="403" y="574" type="line"/>
      <point x="430" y="613"/>
      <point x="447" y="624"/>
      <point x="469" y="624" type="curve" smooth="yes"/>
      <point x="497" y="624"/>
      <point x="505" y="600"/>
      <point x="511" y="567" type="curve"/>
      <point x="532" y="567"/>
      <point x="563" y="591"/>
      <point x="563" y="639" type="curve" smooth="yes"/>
      <point x="563" y="685"/>
      <point x="541" y="721"/>
      <point x="487" y="721" type="curve" smooth="yes"/>
      <point x="439" y="721"/>
      <point x="413" y="684"/>
      <point x="372" y="613" type="curve" smooth="yes"/>
      <point x="228" y="353" type="line"/>
      <point x="228" y="605" type="line" smooth="yes"/>
      <point x="228" y="648"/>
      <point x="238" y="661"/>
      <point x="255" y="661" type="curve" smooth="yes"/>
      <point x="279" y="661" type="line"/>
      <point x="279" y="714" type="line"/>
      <point x="16" y="714" type="line"/>
      <point x="16" y="661" type="line"/>
      <point x="50" y="661" type="line" smooth="yes"/>
      <point x="68" y="661"/>
      <point x="81" y="648"/>
      <point x="81" y="606" type="curve" smooth="yes"/>
      <point x="81" y="109" type="line" smooth="yes"/>
      <point x="81" y="65"/>
      <point x="66" y="53"/>
      <point x="47" y="53" type="curve" smooth="yes"/>
      <point x="16" y="53" type="line"/>
    </contour>
  </outline>
</glyph>
<glyph name="uni019B" format="2">
  <advance width="431"/>
  <unicode hex="019B"/>
  <anchor x="216" y="0" name="bottom"/>
  <anchor x="216" y="764" name="top"/>
  <outline>
    <contour>
      <point x="-4" y="0" type="line"/>
      <point x="141" y="0" type="line"/>
      <point x="212" y="226" type="line" smooth="yes"/>
      <point x="225" y="272"/>
      <point x="247" y="341"/>
      <point x="251" y="371" type="curve"/>
      <point x="254" y="371" type="line"/>
      <point x="257" y="338"/>
      <point x="264" y="236"/>
      <point x="290" y="133" type="curve" smooth="yes"/>
      <point x="317" y="20"/>
      <point x="349" y="0"/>
      <point x="408" y="0" type="curve" smooth="yes"/>
      <point x="428" y="0" type="line"/>
      <point x="428" y="53" type="line"/>
      <point x="425" y="53" type="line" smooth="yes"/>
      <point x="401" y="53"/>
      <point x="369" y="83"/>
      <point x="337" y="235" type="curve" smooth="yes"/>
      <point x="273" y="538" type="line" smooth="yes"/>
      <point x="264" y="575"/>
      <point x="254" y="609"/>
      <point x="243" y="637" type="curve"/>
      <point x="323" y="700" type="line"/>
      <point x="323" y="764" type="line"/>
      <point x="218" y="686" type="line"/>
      <point x="194" y="743"/>
      <point x="162" y="770"/>
      <point x="115" y="770" type="curve" smooth="yes"/>
      <point x="81" y="770"/>
      <point x="50" y="747"/>
      <point x="50" y="704" type="curve" smooth="yes"/>
      <point x="50" y="680"/>
      <point x="58" y="663"/>
      <point x="64" y="652" type="curve"/>
      <point x="77" y="672"/>
      <point x="94" y="693"/>
      <point x="126" y="693" type="curve" smooth="yes"/>
      <point x="144" y="693"/>
      <point x="157" y="683"/>
      <point x="171" y="653" type="curve"/>
      <point x="99" y="595" type="line"/>
      <point x="99" y="531" type="line"/>
      <point x="196" y="603" type="line"/>
      <point x="199" y="586"/>
      <point x="204" y="564"/>
      <point x="207" y="539" type="curve"/>
    </contour>
  </outline>
</glyph>
<glyph name="uni019C" format="2">
  <advance width="893"/>
  <unicode hex="019C"/>
  <anchor x="447" y="0" name="bottom"/>
  <anchor x="447" y="714" name="top"/>
  <outline>
    <contour>
      <point x="235" y="-10" type="curve" smooth="yes"/>
      <point x="320" y="-10"/>
      <point x="352" y="38"/>
      <point x="377" y="95" type="curve"/>
      <point x="399" y="30"/>
      <point x="435" y="-10"/>
      <point x="512" y="-10" type="curve" smooth="yes"/>
      <point x="576" y="-10"/>
      <point x="610" y="26"/>
      <point x="640" y="76" type="curve"/>
      <point x="641" y="76" type="line"/>
      <point x="657" y="0" type="line"/>
      <point x="837" y="0" type="line"/>
      <point x="837" y="53" type="line"/>
      <point x="808" y="53" type="line" smooth="yes"/>
      <point x="788" y="53"/>
      <point x="775" y="66"/>
      <point x="775" y="120" type="curve" smooth="yes"/>
      <point x="775" y="595" type="line" smooth="yes"/>
      <point x="775" y="650"/>
      <point x="785" y="661"/>
      <point x="811" y="661" type="curve" smooth="yes"/>
      <point x="837" y="661" type="line"/>
      <point x="837" y="714" type="line"/>
      <point x="583" y="714" type="line"/>
      <point x="583" y="661" type="line"/>
      <point x="598" y="661" type="line" smooth="yes"/>
      <point x="626" y="661"/>
      <point x="638" y="650"/>
      <point x="638" y="595" type="curve" smooth="yes"/>
      <point x="638" y="237" type="line" smooth="yes"/>
      <point x="638" y="128"/>
      <point x="612" y="65"/>
      <point x="561" y="65" type="curve" smooth="yes"/>
      <point x="517" y="65"/>
      <point x="496" y="111"/>
      <point x="496" y="219" type="curve" smooth="yes"/>
      <point x="496" y="595" type="line" smooth="yes"/>
      <point x="496" y="650"/>
      <point x="507" y="661"/>
      <point x="534" y="661" type="curve" smooth="yes"/>
      <point x="551" y="661" type="line"/>
      <point x="551" y="714" type="line"/>
      <point x="303" y="714" type="line"/>
      <point x="303" y="661" type="line"/>
      <point x="320" y="661" type="line" smooth="yes"/>
      <point x="345" y="661"/>
      <point x="359" y="650"/>
      <point x="359" y="599" type="curve" smooth="yes"/>
      <point x="359" y="246" type="line" smooth="yes"/>
      <point x="359" y="131"/>
      <point x="336" y="65"/>
      <point x="284" y="65" type="curve" smooth="yes"/>
      <point x="236" y="65"/>
      <point x="219" y="108"/>
      <point x="219" y="224" type="curve" smooth="yes"/>
      <point x="219" y="595" type="line" smooth="yes"/>
      <point x="219" y="650"/>
      <point x="231" y="661"/>
      <point x="255" y="661" type="curve" smooth="yes"/>
      <point x="272" y="661" type="line"/>
      <point x="272" y="714" type="line"/>
      <point x="18" y="714" type="line"/>
      <point x="18" y="661" type="line"/>
      <point x="44" y="661" type="line" smooth="yes"/>
      <point x="69" y="661"/>
      <point x="81" y="650"/>
      <point x="81" y="599" type="curve" smooth="yes"/>
      <point x="81" y="224" type="line" smooth="yes"/>
      <point x="81" y="62"/>
      <point x="118" y="-10"/>
    </contour>
  </outline>
</glyph>
<glyph name="uni01A6" format="2">
  <advance width="540"/>
  <unicode hex="01A6"/>
  <anchor x="270" y="0" name="bottom"/>
  <anchor x="270" y="714" name="top"/>
  <outline>
    <contour>
      <point x="511" y="-120" type="curve" smooth="yes"/>
      <point x="545" y="-120" type="line"/>
      <point x="545" y="-67" type="line"/>
      <point x="539" y="-67" type="line" smooth="yes"/>
      <point x="516" y="-67"/>
      <point x="499" y="-42"/>
      <point x="477" y="16" type="curve" smooth="yes"/>
      <point x="393" y="219" type="line"/>
      <point x="448" y="240"/>
      <point x="495" y="292"/>
      <point x="495" y="401" type="curve" smooth="yes"/>
      <point x="495" y="517"/>
      <point x="437" y="585"/>
      <point x="277" y="585" type="curve" smooth="yes"/>
      <point x="228" y="585" type="line"/>
      <point x="228" y="601" type="line" smooth="yes"/>
      <point x="228" y="648"/>
      <point x="234" y="661"/>
      <point x="258" y="661" type="curve" smooth="yes"/>
      <point x="294" y="661" type="line"/>
      <point x="294" y="714" type="line"/>
      <point x="16" y="714" type="line"/>
      <point x="16" y="661" type="line"/>
      <point x="54" y="661" type="line" smooth="yes"/>
      <point x="74" y="661"/>
      <point x="81" y="648"/>
      <point x="81" y="602" type="curve" smooth="yes"/>
      <point x="81" y="113" type="line" smooth="yes"/>
      <point x="81" y="59"/>
      <point x="61" y="53"/>
      <point x="44" y="53" type="curve" smooth="yes"/>
      <point x="16" y="53" type="line"/>
      <point x="16" y="0" type="line"/>
      <point x="279" y="0" type="line"/>
      <point x="279" y="53" type="line"/>
      <point x="262" y="53" type="line" smooth="yes"/>
      <point x="241" y="53"/>
      <point x="228" y="59"/>
      <point x="228" y="113" type="curve" smooth="yes"/>
      <point x="228" y="189" type="line"/>
      <point x="264" y="189" type="line"/>
      <point x="341" y="-30" type="line" smooth="yes"/>
      <point x="366" y="-105"/>
      <point x="427" y="-120"/>
    </contour>
    <contour>
      <point x="228" y="247" type="line"/>
      <point x="228" y="526" type="line"/>
      <point x="258" y="526" type="line" smooth="yes"/>
      <point x="312" y="526"/>
      <point x="340" y="483"/>
      <point x="340" y="392" type="curve" smooth="yes"/>
      <point x="340" y="299"/>
      <point x="316" y="247"/>
      <point x="260" y="247" type="curve" smooth="yes"/>
    </contour>
  </outline>
</glyph>
<glyph name="uni01AA" format="2">
  <advance width="282"/>
  <unicode hex="01AA"/>
  <anchor x="142" y="-240" name="bottom"/>
  <anchor x="142" y="763" name="top"/>
  <outline>
    <contour>
      <point x="247" y="-240" type="curve" smooth="yes"/>
      <point x="269" y="-240"/>
      <point x="299" y="-234"/>
      <point x="311" y="-226" type="curve"/>
      <point x="311" y="-178" type="line"/>
      <point x="296" y="-182"/>
      <point x="281" y="-185"/>
      <point x="265" y="-185" type="curve" smooth="yes"/>
      <point x="231" y="-185"/>
      <point x="209" y="-154"/>
      <point x="209" y="-83" type="curve" smooth="yes"/>
      <point x="209" y="529" type="line" smooth="yes"/>
      <point x="209" y="690"/>
      <point x="171" y="763"/>
      <point x="62" y="763" type="curve" smooth="yes"/>
      <point x="-20" y="763"/>
      <point x="-67" y="717"/>
      <point x="-67" y="632" type="curve" smooth="yes"/>
      <point x="-67" y="556"/>
      <point x="-26" y="513"/>
      <point x="26" y="513" type="curve" smooth="yes"/>
      <point x="41" y="513"/>
      <point x="56" y="518"/>
      <point x="67" y="527" type="curve"/>
      <point x="67" y="-48" type="line" smooth="yes"/>
      <point x="67" y="-200"/>
      <point x="125" y="-240"/>
    </contour>
    <contour>
      <point x="25" y="571" type="curve" smooth="yes"/>
      <point x="-1" y="571"/>
      <point x="-17" y="595"/>
      <point x="-17" y="635" type="curve" smooth="yes"/>
      <point x="-17" y="674"/>
      <point x="-3" y="702"/>
      <point x="25" y="702" type="curve" smooth="yes"/>
      <point x="49" y="702"/>
      <point x="67" y="678"/>
      <point x="67" y="635" type="curve" smooth="yes"/>
      <point x="67" y="595"/>
      <point x="49" y="571"/>
    </contour>
  </outline>
</glyph>
<glyph name="uni01AE" format="2">
  <advance width="494"/>
  <unicode hex="01AE"/>
  <anchor x="248" y="-240" name="bottom"/>
  <anchor x="248" y="714" name="top"/>
  <outline>
    <contour>
      <point x="350" y="-240" type="curve" smooth="yes"/>
      <point x="380" y="-240"/>
      <point x="416" y="-232"/>
      <point x="431" y="-223" type="curve"/>
      <point x="431" y="-167" type="line"/>
      <point x="417" y="-172"/>
      <point x="403" y="-177"/>
      <point x="381" y="-177" type="curve" smooth="yes"/>
      <point x="344" y="-177"/>
      <point x="321" y="-151"/>
      <point x="321" y="-83" type="curve" smooth="yes"/>
      <point x="321" y="653" type="line"/>
      <point x="369" y="653" type="line" smooth="yes"/>
      <point x="413" y="653"/>
      <point x="426" y="626"/>
      <point x="429" y="582" type="curve" smooth="yes"/>
      <point x="435" y="521" type="line"/>
      <point x="492" y="521" type="line"/>
      <point x="488" y="714" type="line"/>
      <point x="5" y="714" type="line"/>
      <point x="1" y="521" type="line"/>
      <point x="58" y="521" type="line"/>
      <point x="65" y="582" type="line" smooth="yes"/>
      <point x="68" y="626"/>
      <point x="81" y="653"/>
      <point x="125" y="653" type="curve" smooth="yes"/>
      <point x="174" y="653" type="line"/>
      <point x="174" y="-42" type="line" smooth="yes"/>
      <point x="174" y="-182"/>
      <point x="231" y="-240"/>
    </contour>
  </outline>
</glyph>
<glyph name="uni01BC" format="2">
  <advance width="426"/>
  <unicode hex="01BC"/>
  <anchor x="214" y="0" name="bottom"/>
  <anchor x="214" y="714" name="top"/>
  <outline>
    <contour>
      <point x="188" y="-10" type="curve" smooth="yes"/>
      <point x="258" y="-10"/>
      <point x="394" y="35"/>
      <point x="394" y="227" type="curve" smooth="yes"/>
      <point x="394" y="370"/>
      <point x="335" y="435"/>
      <point x="242" y="435" type="curve" smooth="yes"/>
      <point x="220" y="435" type="line"/>
      <point x="220" y="653" type="line"/>
      <point x="273" y="653" type="line" smooth="yes"/>
      <point x="308" y="653"/>
      <point x="316" y="632"/>
      <point x="326" y="578" type="curve" smooth="yes"/>
      <point x="334" y="530" type="line"/>
      <point x="381" y="530" type="line"/>
      <point x="378" y="714" type="line"/>
      <point x="25" y="714" type="line"/>
      <point x="25" y="661" type="line"/>
      <point x="42" y="661" type="line" smooth="yes"/>
      <point x="64" y="661"/>
      <point x="79" y="654"/>
      <point x="79" y="602" type="curve" smooth="yes"/>
      <point x="79" y="376" type="line"/>
      <point x="146" y="376" type="line" smooth="yes"/>
      <point x="208" y="376"/>
      <point x="260" y="353"/>
      <point x="260" y="223" type="curve" smooth="yes"/>
      <point x="260" y="121"/>
      <point x="242" y="57"/>
      <point x="187" y="57" type="curve" smooth="yes"/>
      <point x="130" y="57"/>
      <point x="109" y="105"/>
      <point x="110" y="209" type="curve"/>
      <point x="61" y="208"/>
      <point x="29" y="189"/>
      <point x="29" y="128" type="curve" smooth="yes"/>
      <point x="29" y="42"/>
      <point x="101" y="-10"/>
    </contour>
  </outline>
</glyph>
<glyph name="uni023E" format="2">
  <advance width="494"/>
  <unicode hex="023E"/>
  <anchor x="248" y="0" name="bottom"/>
  <anchor x="248" y="714" name="top"/>
  <anchor x="474" y="714" name="topright"/>
  <anchor x="248" y="357" name="center"/>
  <outline>
    <contour>
      <point x="12" y="-83" type="line"/>
      <point x="75" y="-83" type="line"/>
      <point x="466" y="760" type="line"/>
      <point x="406" y="760" type="line"/>
    </contour>
    <component base="T"/>
  </outline>
</glyph>
<glyph name="uni023F" format="2">
  <advance width="364"/>
  <unicode hex="023F"/>
  <anchor x="183" y="-237" name="bottom"/>
  <anchor x="183" y="536" name="top"/>
  <anchor x="344" y="536" name="topright"/>
  <outline>
    <contour>
      <point x="273" y="-237" type="curve" smooth="yes"/>
      <point x="322" y="-237"/>
      <point x="356" y="-208"/>
      <point x="356" y="-154" type="curve" smooth="yes"/>
      <point x="356" y="-118"/>
      <point x="343" y="-97"/>
      <point x="297" y="-94" type="curve"/>
      <point x="297" y="-136"/>
      <point x="290" y="-167"/>
      <point x="262" y="-167" type="curve" smooth="yes"/>
      <point x="239" y="-167"/>
      <point x="229" y="-147"/>
      <point x="218" y="-104" type="curve" smooth="yes"/>
      <point x="208" y="-59"/>
      <point x="199" y="-27"/>
      <point x="173" y="-5" type="curve"/>
      <point x="84" y="8" type="line"/>
      <point x="130" y="-17"/>
      <point x="147" y="-46"/>
      <point x="167" y="-119" type="curve" smooth="yes"/>
      <point x="185" y="-186"/>
      <point x="211" y="-237"/>
    </contour>
    <component base="s"/>
  </outline>
</glyph>
<glyph name="uni0257" format="2">
  <advance width="488"/>
  <unicode hex="0257"/>
  <anchor x="245" y="0" name="bottom"/>
  <anchor x="245" y="766" name="top"/>
  <outline>
    <contour>
      <point x="176" y="-10" type="curve" smooth="yes"/>
      <point x="231" y="-10"/>
      <point x="266" y="23"/>
      <point x="288" y="79" type="curve"/>
      <point x="292" y="79" type="line"/>
      <point x="317" y="0" type="line"/>
      <point x="477" y="0" type="line"/>
      <point x="477" y="53" type="line"/>
      <point x="471" y="53" type="line" smooth="yes"/>
      <point x="435" y="53"/>
      <point x="419" y="68"/>
      <point x="419" y="130" type="curve"/>
      <point x="419" y="601" type="line" smooth="yes"/>
      <point x="419" y="679"/>
      <point x="431" y="708"/>
      <point x="448" y="708" type="curve" smooth="yes"/>
      <point x="469" y="708"/>
      <point x="473" y="669"/>
      <point x="473" y="618" type="curve"/>
      <point x="550" y="618"/>
      <point x="566" y="647"/>
      <point x="566" y="683" type="curve" smooth="yes"/>
      <point x="566" y="722"/>
      <point x="547" y="766"/>
      <point x="439" y="766" type="curve" smooth="yes"/>
      <point x="320" y="766"/>
      <point x="277" y="699"/>
      <point x="277" y="570" type="curve" smooth="yes"/>
      <point x="277" y="553" type="line" smooth="yes"/>
      <point x="277" y="536"/>
      <point x="281" y="452"/>
      <point x="276" y="472" type="curve" smooth="yes"/>
      <point x="276" y="472" type="line"/>
      <point x="255" y="515"/>
      <point x="226" y="547"/>
      <point x="173" y="547" type="curve" smooth="yes"/>
      <point x="81" y="547"/>
      <point x="27" y="460"/>
      <point x="27" y="267" type="curve" smooth="yes"/>
      <point x="27" y="75"/>
      <point x="81" y="-10"/>
    </contour>
    <contour>
      <point x="220" y="61" type="curve" smooth="yes"/>
      <point x="184" y="61"/>
      <point x="170" y="130"/>
      <point x="170" y="267" type="curve" smooth="yes"/>
      <point x="170" y="404"/>
      <point x="184" y="478"/>
      <point x="221" y="478" type="curve" smooth="yes"/>
      <point x="264" y="478"/>
      <point x="277" y="404"/>
      <point x="277" y="268" type="curve" smooth="yes"/>
      <point x="277" y="135"/>
      <point x="264" y="61"/>
    </contour>
  </outline>
</glyph>
<glyph name="uni0258" format="2">
  <advance width="433"/>
  <unicode hex="0258"/>
  <anchor x="217" y="0" name="bottom"/>
  <anchor x="217" y="536" name="top"/>
  <outline>
    <contour>
      <point x="204" y="-10" type="curve" smooth="yes"/>
      <point x="341" y="-10"/>
      <point x="406" y="91"/>
      <point x="406" y="264" type="curve" smooth="yes"/>
      <point x="406" y="452"/>
      <point x="336" y="549"/>
      <point x="212" y="549" type="curve" smooth="yes"/>
      <point x="99" y="549"/>
      <point x="29" y="465"/>
      <point x="29" y="307" type="curve" smooth="yes"/>
      <point x="29" y="259" type="line"/>
      <point x="263" y="259" type="line"/>
      <point x="262" y="122"/>
      <point x="230" y="62"/>
      <point x="167" y="62" type="curve" smooth="yes"/>
      <point x="119" y="62"/>
      <point x="91" y="100"/>
      <point x="76" y="148" type="curve"/>
      <point x="57" y="142"/>
      <point x="43" y="128"/>
      <point x="43" y="105" type="curve" smooth="yes"/>
      <point x="43" y="53"/>
      <point x="88" y="-10"/>
    </contour>
    <contour>
      <point x="169" y="320" type="line"/>
      <point x="169" y="422"/>
      <point x="181" y="486"/>
      <point x="209" y="486" type="curve" smooth="yes"/>
      <point x="239" y="486"/>
      <point x="261" y="427"/>
      <point x="263" y="320" type="curve"/>
    </contour>
  </outline>
</glyph>
<glyph name="uni0259" format="2">
  <advance width="433"/>
  <unicode hex="0259"/>
  <anchor x="217" y="0" name="bottom"/>
  <anchor x="217" y="536" name="top"/>
  <outline>
    <contour>
      <point x="212" y="-10" type="curve" smooth="yes"/>
      <point x="336" y="-10"/>
      <point x="406" y="85"/>
      <point x="406" y="273" type="curve" smooth="yes"/>
      <point x="406" y="448"/>
      <point x="341" y="549"/>
      <point x="204" y="549" type="curve" smooth="yes"/>
      <point x="88" y="549"/>
      <point x="43" y="486"/>
      <point x="43" y="434" type="curve" smooth="yes"/>
      <point x="43" y="412"/>
      <point x="57" y="397"/>
      <point x="76" y="390" type="curve"/>
      <point x="91" y="440"/>
      <point x="119" y="477"/>
      <point x="167" y="477" type="curve" smooth="yes"/>
      <point x="230" y="477"/>
      <point x="262" y="415"/>
      <point x="263" y="280" type="curve"/>
      <point x="29" y="280" type="line"/>
      <point x="29" y="232" type="line" smooth="yes"/>
      <point x="29" y="73"/>
      <point x="99" y="-10"/>
    </contour>
    <contour>
      <point x="209" y="53" type="curve" smooth="yes"/>
      <point x="181" y="53"/>
      <point x="169" y="115"/>
      <point x="169" y="219" type="curve"/>
      <point x="263" y="219" type="line"/>
      <point x="261" y="111"/>
      <point x="239" y="53"/>
    </contour>
  </outline>
</glyph>
<glyph name="uni0260" format="2">
  <advance width="486"/>
  <unicode hex="0260"/>
  <anchor x="244" y="-233" name="bottom"/>
  <anchor x="244" y="766" name="top"/>
  <outline>
    <contour>
      <point x="205" y="-233" type="curve" smooth="yes"/>
      <point x="348" y="-233"/>
      <point x="419" y="-141"/>
      <point x="419" y="18" type="curve" smooth="yes"/>
      <point x="419" y="601" type="line" smooth="yes"/>
      <point x="419" y="679"/>
      <point x="431" y="708"/>
      <point x="448" y="708" type="curve" smooth="yes"/>
      <point x="467" y="708"/>
      <point x="471" y="669"/>
      <point x="471" y="618" type="curve"/>
      <point x="550" y="618"/>
      <point x="566" y="647"/>
      <point x="566" y="683" type="curve" smooth="yes"/>
      <point x="566" y="722"/>
      <point x="547" y="766"/>
      <point x="439" y="766" type="curve" smooth="yes"/>
      <point x="320" y="766"/>
      <point x="277" y="699"/>
      <point x="277" y="570" type="curve" smooth="yes"/>
      <point x="277" y="556" type="line" smooth="yes"/>
      <point x="277" y="534"/>
      <point x="277" y="504"/>
      <point x="278" y="472" type="curve"/>
      <point x="274" y="472" type="line"/>
      <point x="257" y="516"/>
      <point x="224" y="546"/>
      <point x="183" y="546" type="curve" smooth="yes"/>
      <point x="81" y="546"/>
      <point x="27" y="462"/>
      <point x="27" y="278" type="curve" smooth="yes"/>
      <point x="27" y="92"/>
      <point x="81" y="7"/>
      <point x="173" y="7" type="curve" smooth="yes"/>
      <point x="225" y="7"/>
      <point x="256" y="36"/>
      <point x="276" y="83" type="curve"/>
      <point x="282" y="83" type="line"/>
      <point x="279" y="63"/>
      <point x="277" y="26"/>
      <point x="277" y="-5" type="curve" smooth="yes"/>
      <point x="277" y="-23" type="line" smooth="yes"/>
      <point x="277" y="-114"/>
      <point x="254" y="-173"/>
      <point x="201" y="-173" type="curve" smooth="yes"/>
      <point x="153" y="-173"/>
      <point x="133" y="-133"/>
      <point x="133" y="-47" type="curve"/>
      <point x="69" y="-48"/>
      <point x="42" y="-74"/>
      <point x="42" y="-118" type="curve" smooth="yes"/>
      <point x="42" y="-200"/>
      <point x="106" y="-233"/>
    </contour>
    <contour>
      <point x="220" y="76" type="curve" smooth="yes"/>
      <point x="184" y="76"/>
      <point x="170" y="148"/>
      <point x="170" y="276" type="curve" smooth="yes"/>
      <point x="170" y="408"/>
      <point x="184" y="475"/>
      <point x="221" y="475" type="curve" smooth="yes"/>
      <point x="264" y="475"/>
      <point x="277" y="409"/>
      <point x="277" y="275" type="curve" smooth="yes"/>
      <point x="277" y="151"/>
      <point x="264" y="76"/>
    </contour>
  </outline>
</glyph>
<glyph name="uni026D" format="2">
  <advance width="270"/>
  <unicode hex="026D"/>
  <anchor x="135" y="-240" name="bottom"/>
  <anchor x="135" y="760" name="top"/>
  <outline>
    <contour>
      <point x="214" y="-240" type="curve" smooth="yes"/>
      <point x="265" y="-240"/>
      <point x="298" y="-233"/>
      <point x="320" y="-224" type="curve"/>
      <point x="320" y="-172" type="line"/>
      <point x="308" y="-176"/>
      <point x="292" y="-179"/>
      <point x="273" y="-179" type="curve" smooth="yes"/>
      <point x="236" y="-179"/>
      <point x="221" y="-150"/>
      <point x="221" y="-91" type="curve" smooth="yes"/>
      <point x="221" y="760" type="line"/>
      <point x="25" y="760" type="line"/>
      <point x="25" y="707" type="line"/>
      <point x="28" y="707" type="line" smooth="yes"/>
      <point x="61" y="707"/>
      <point x="79" y="692"/>
      <point x="79" y="644" type="curve" smooth="yes"/>
      <point x="79" y="-72" type="line" smooth="yes"/>
      <point x="79" y="-193"/>
      <point x="113" y="-240"/>
    </contour>
  </outline>
</glyph>
<glyph name="omegaclosed" format="2">
  <advance width="596"/>
  <unicode hex="0277"/>
  <anchor x="299" y="0" name="bottom"/>
  <anchor x="299" y="536" name="top"/>
  <outline>
    <contour>
      <point x="178" y="-10" type="curve" smooth="yes"/>
      <point x="243" y="-10"/>
      <point x="281" y="31"/>
      <point x="296" y="73" type="curve"/>
      <point x="299" y="73" type="line"/>
      <point x="316" y="31"/>
      <point x="353" y="-10"/>
      <point x="416" y="-10" type="curve" smooth="yes"/>
      <point x="515" y="-10"/>
      <point x="565" y="84"/>
      <point x="565" y="244" type="curve" smooth="yes"/>
      <point x="565" y="422"/>
      <point x="499" y="549"/>
      <point x="297" y="549" type="curve" smooth="yes"/>
      <point x="106" y="549"/>
      <point x="29" y="422"/>
      <point x="29" y="244" type="curve" smooth="yes"/>
      <point x="29" y="84"/>
      <point x="81" y="-10"/>
    </contour>
    <contour>
      <point x="218" y="63" type="curve" smooth="yes"/>
      <point x="184" y="63"/>
      <point x="169" y="102"/>
      <point x="169" y="250" type="curve" smooth="yes"/>
      <point x="169" y="418"/>
      <point x="223" y="484"/>
      <point x="298" y="484" type="curve" smooth="yes"/>
      <point x="375" y="484"/>
      <point x="427" y="418"/>
      <point x="427" y="250" type="curve" smooth="yes"/>
      <point x="427" y="102"/>
      <point x="409" y="63"/>
      <point x="378" y="63" type="curve" smooth="yes"/>
      <point x="353" y="63"/>
      <point x="336" y="104"/>
      <point x="333" y="154" type="curve"/>
      <point x="333" y="331" type="line"/>
      <point x="261" y="331" type="line"/>
      <point x="261" y="154" type="line"/>
      <point x="261" y="101"/>
      <point x="245" y="63"/>
    </contour>
  </outline>
</glyph>
<glyph name="uni027B" format="2">
  <advance width="406"/>
  <unicode hex="027B"/>
  <anchor x="203" y="-240" name="bottom"/>
  <anchor x="203" y="536" name="top"/>
  <outline>
    <contour>
      <point x="327" y="-240" type="curve" smooth="yes"/>
      <point x="389" y="-240"/>
      <point x="417" y="-232"/>
      <point x="442" y="-224" type="curve"/>
      <point x="442" y="-171" type="line"/>
      <point x="423" y="-175"/>
      <point x="405" y="-179"/>
      <point x="392" y="-179" type="curve" smooth="yes"/>
      <point x="357" y="-179"/>
      <point x="342" y="-148"/>
      <point x="342" y="-87" type="curve" smooth="yes"/>
      <point x="342" y="411" type="line" smooth="yes"/>
      <point x="342" y="474"/>
      <point x="360" y="483"/>
      <point x="393" y="483" type="curve" smooth="yes"/>
      <point x="396" y="483" type="line"/>
      <point x="396" y="536" type="line"/>
      <point x="131" y="536" type="line"/>
      <point x="131" y="483" type="line"/>
      <point x="156" y="483" type="line" smooth="yes"/>
      <point x="183" y="483"/>
      <point x="200" y="475"/>
      <point x="200" y="416" type="curve" smooth="yes"/>
      <point x="200" y="260" type="line" smooth="yes"/>
      <point x="200" y="174"/>
      <point x="181" y="81"/>
      <point x="147" y="81" type="curve" smooth="yes"/>
      <point x="120" y="81"/>
      <point x="116" y="110"/>
      <point x="116" y="165" type="curve"/>
      <point x="52" y="165"/>
      <point x="9" y="138"/>
      <point x="9" y="78" type="curve" smooth="yes"/>
      <point x="9" y="25"/>
      <point x="32" y="-11"/>
      <point x="87" y="-11" type="curve" smooth="yes"/>
      <point x="145" y="-11"/>
      <point x="178" y="25"/>
      <point x="202" y="98" type="curve"/>
      <point x="205" y="98" type="line"/>
      <point x="202" y="62"/>
      <point x="200" y="28"/>
      <point x="200" y="-16" type="curve" smooth="yes"/>
      <point x="200" y="-75" type="line" smooth="yes"/>
      <point x="200" y="-189"/>
      <point x="231" y="-240"/>
    </contour>
  </outline>
</glyph>
<glyph name="uni0288" format="2">
  <advance width="322"/>
  <unicode hex="0288"/>
  <anchor x="162" y="-240" name="bottom"/>
  <anchor x="162" y="659" name="top"/>
  <outline>
    <contour>
      <point x="178" y="-240" type="curve" smooth="yes"/>
      <point x="248" y="-240"/>
      <point x="292" y="-225"/>
      <point x="309" y="-215" type="curve"/>
      <point x="309" y="-150" type="line"/>
      <point x="293" y="-156"/>
      <point x="274" y="-158"/>
      <point x="253" y="-158" type="curve" smooth="yes"/>
      <point x="220" y="-158"/>
      <point x="213" y="-132"/>
      <point x="213" y="-72" type="curve" smooth="yes"/>
      <point x="213" y="473" type="line"/>
      <point x="302" y="473" type="line"/>
      <point x="302" y="536" type="line"/>
      <point x="213" y="536" type="line"/>
      <point x="213" y="659" type="line"/>
      <point x="131" y="659" type="line"/>
      <point x="124" y="613"/>
      <point x="111" y="584"/>
      <point x="98" y="565" type="curve" smooth="yes"/>
      <point x="84" y="544"/>
      <point x="57" y="522"/>
      <point x="17" y="521" type="curve"/>
      <point x="17" y="473" type="line"/>
      <point x="69" y="473" type="line"/>
      <point x="69" y="-82" type="line" smooth="yes"/>
      <point x="69" y="-200"/>
      <point x="118" y="-240"/>
    </contour>
  </outline>
</glyph>
<glyph name="ezhcurl" format="2">
  <advance width="411"/>
  <unicode hex="0293"/>
  <anchor x="206" y="-239" name="bottom"/>
  <anchor x="206" y="536" name="top"/>
  <outline>
    <contour>
      <point x="158" y="-240" type="curve" smooth="yes"/>
      <point x="238" y="-240"/>
      <point x="289" y="-213"/>
      <point x="326" y="-168" type="curve"/>
      <point x="338" y="-188"/>
      <point x="352" y="-217"/>
      <point x="356" y="-234" type="curve"/>
      <point x="408" y="-196" type="line"/>
      <point x="402" y="-175"/>
      <point x="386" y="-138"/>
      <point x="368" y="-112" type="curve"/>
      <point x="381" y="-84"/>
      <point x="389" y="-49"/>
      <point x="389" y="-2" type="curve" smooth="yes"/>
      <point x="389" y="150"/>
      <point x="315" y="211"/>
      <point x="219" y="219" type="curve"/>
      <point x="377" y="462" type="line"/>
      <point x="377" y="536" type="line"/>
      <point x="47" y="536" type="line"/>
      <point x="34" y="341" type="line"/>
      <point x="79" y="341" type="line"/>
      <point x="86" y="370" type="line" smooth="yes"/>
      <point x="97" y="419"/>
      <point x="103" y="434"/>
      <point x="135" y="434" type="curve" smooth="yes"/>
      <point x="278" y="434" type="line"/>
      <point x="125" y="199" type="line"/>
      <point x="125" y="158" type="line"/>
      <point x="152" y="158" type="line" smooth="yes"/>
      <point x="204" y="158"/>
      <point x="247" y="110"/>
      <point x="247" y="17" type="curve" smooth="yes"/>
      <point x="247" y="7"/>
      <point x="249" y="-2"/>
      <point x="249" y="-11" type="curve"/>
      <point x="227" y="10"/>
      <point x="198" y="23"/>
      <point x="159" y="23" type="curve" smooth="yes"/>
      <point x="62" y="23"/>
      <point x="11" y="-25"/>
      <point x="11" y="-109" type="curve" smooth="yes"/>
      <point x="11" y="-193"/>
      <point x="67" y="-240"/>
    </contour>
    <contour>
      <point x="151" y="-177" type="curve" smooth="yes"/>
      <point x="107" y="-177"/>
      <point x="77" y="-153"/>
      <point x="77" y="-108" type="curve" smooth="yes"/>
      <point x="77" y="-67"/>
      <point x="93" y="-37"/>
      <point x="160" y="-37" type="curve" smooth="yes"/>
      <point x="199" y="-37"/>
      <point x="230" y="-51"/>
      <point x="246" y="-78" type="curve"/>
      <point x="240" y="-141"/>
      <point x="211" y="-177"/>
    </contour>
  </outline>
</glyph>
<glyph name="uni02AF" format="2">
  <advance width="591"/>
  <unicode hex="02AF"/>
  <anchor x="296" y="-240" name="bottom"/>
  <anchor x="296" y="536" name="top"/>
  <outline>
    <contour>
      <point x="517" y="-240" type="curve" smooth="yes"/>
      <point x="570" y="-240"/>
      <point x="602" y="-233"/>
      <point x="625" y="-224" type="curve"/>
      <point x="625" y="-172" type="line"/>
      <point x="611" y="-176"/>
      <point x="595" y="-179"/>
      <point x="577" y="-179" type="curve" smooth="yes"/>
      <point x="540" y="-179"/>
      <point x="525" y="-150"/>
      <point x="525" y="-91" type="curve" smooth="yes"/>
      <point x="525" y="415" type="line" smooth="yes"/>
      <point x="525" y="474"/>
      <point x="547" y="483"/>
      <point x="574" y="483" type="curve" smooth="yes"/>
      <point x="576" y="483" type="line"/>
      <point x="576" y="536" type="line"/>
      <point x="335" y="536" type="line"/>
      <point x="335" y="483" type="line"/>
      <point x="337" y="483" type="line" smooth="yes"/>
      <point x="369" y="483"/>
      <point x="381" y="475"/>
      <point x="381" y="418" type="curve" smooth="yes"/>
      <point x="381" y="227" type="line" smooth="yes"/>
      <point x="381" y="145"/>
      <point x="377" y="72"/>
      <point x="338" y="72" type="curve" smooth="yes"/>
      <point x="308" y="72"/>
      <point x="298" y="121"/>
      <point x="298" y="206" type="curve" smooth="yes"/>
      <point x="298" y="331" type="line" smooth="yes"/>
      <point x="298" y="495"/>
      <point x="231" y="549"/>
      <point x="106" y="549" type="curve" smooth="yes"/>
      <point x="-7" y="549"/>
      <point x="-41" y="493"/>
      <point x="-41" y="439" type="curve" smooth="yes"/>
      <point x="-41" y="395"/>
      <point x="4" y="373"/>
      <point x="69" y="373" type="curve"/>
      <point x="69" y="445"/>
      <point x="78" y="482"/>
      <point x="113" y="482" type="curve" smooth="yes"/>
      <point x="140" y="482"/>
      <point x="156" y="449"/>
      <point x="156" y="370" type="curve" smooth="yes"/>
      <point x="156" y="181" type="line" smooth="yes"/>
      <point x="156" y="45"/>
      <point x="192" y="-13"/>
      <point x="273" y="-13" type="curve" smooth="yes"/>
      <point x="335" y="-13"/>
      <point x="363" y="26"/>
      <point x="380" y="68" type="curve"/>
      <point x="385" y="68" type="line"/>
      <point x="384" y="37"/>
      <point x="382" y="2"/>
      <point x="382" y="-34" type="curve" smooth="yes"/>
      <point x="382" y="-72" type="line" smooth="yes"/>
      <point x="382" y="-193"/>
      <point x="417" y="-240"/>
    </contour>
  </outline>
</glyph>
<glyph name="uni02C5" format="2">
  <advance width="197"/>
  <unicode hex="02C5"/>
  <outline>
    <contour>
      <point x="82" y="571" type="curve"/>
      <point x="116" y="571" type="line"/>
      <point x="137" y="644"/>
      <point x="162" y="710"/>
      <point x="194" y="773" type="curve"/>
      <point x="194" y="783" type="line"/>
      <point x="146" y="783" type="line"/>
      <point x="132" y="752"/>
      <point x="110" y="711"/>
      <point x="98" y="676" type="curve"/>
      <point x="88" y="711"/>
      <point x="67" y="753"/>
      <point x="49" y="783" type="curve"/>
      <point x="3" y="783" type="line"/>
      <point x="3" y="773" type="line"/>
      <point x="33" y="710"/>
      <point x="59" y="643"/>
    </contour>
  </outline>
</glyph>
<glyph name="circumflex" format="2">
  <advance width="369"/>
  <unicode hex="02C6"/>
  <outline>
    <contour>
      <point x="40" y="606" type="line"/>
      <point x="106" y="606" type="line"/>
      <point x="122" y="633"/>
      <point x="162" y="673"/>
      <point x="184" y="703" type="curve"/>
      <point x="206" y="673"/>
      <point x="247" y="633"/>
      <point x="263" y="606" type="curve"/>
      <point x="329" y="606" type="line"/>
      <point x="329" y="619" type="line"/>
      <point x="306" y="657"/>
      <point x="260" y="721"/>
      <point x="244" y="766" type="curve"/>
      <point x="125" y="766" type="line"/>
      <point x="109" y="721"/>
      <point x="63" y="657"/>
      <point x="40" y="619" type="curve"/>
    </contour>
  </outline>
</glyph>
<glyph name="breveinvertedcomb" format="2">
  <unicode hex="0311"/>
  <anchor x="1" y="536" name="_top"/>
  <anchor x="1" y="761" name="top"/>
  <outline>
    <contour>
      <point x="-126" y="606" type="curve"/>
      <point x="-67" y="606" type="line"/>
      <point x="-61" y="654"/>
      <point x="-36" y="674"/>
      <point x="0" y="674" type="curve" smooth="yes"/>
      <point x="36" y="674"/>
      <point x="60" y="654"/>
      <point x="67" y="606" type="curve"/>
      <point x="127" y="606" type="line"/>
      <point x="125" y="681"/>
      <point x="81" y="761"/>
      <point x="0" y="761" type="curve"/>
      <point x="-82" y="761"/>
      <point x="-125" y="681"/>
    </contour>
  </outline>
</glyph>
<glyph name="ringbelowcomb" format="2">
  <unicode hex="0325"/>
  <anchor x="1" y="0" name="_bottom"/>
  <anchor x="1" y="-178" name="bottom"/>
  <outline>
    <contour>
      <point x="0" y="-178" type="curve" smooth="yes"/>
      <point x="53" y="-178"/>
      <point x="94" y="-162"/>
      <point x="94" y="-131" type="curve" smooth="yes"/>
      <point x="94" y="-101"/>
      <point x="53" y="-86"/>
      <point x="0" y="-86" type="curve" smooth="yes"/>
      <point x="-52" y="-86"/>
      <point x="-93" y="-101"/>
      <point x="-93" y="-131" type="curve" smooth="yes"/>
      <point x="-93" y="-162"/>
      <point x="-52" y="-178"/>
    </contour>
    <contour>
      <point x="0" y="-153" type="curve" smooth="yes"/>
      <point x="-25" y="-153"/>
      <point x="-44" y="-148"/>
      <point x="-44" y="-131" type="curve" smooth="yes"/>
      <point x="-44" y="-115"/>
      <point x="-25" y="-110"/>
      <point x="0" y="-110" type="curve" smooth="yes"/>
      <point x="24" y="-110"/>
      <point x="45" y="-115"/>
      <point x="45" y="-131" type="curve" smooth="yes"/>
      <point x="45" y="-148"/>
      <point x="24" y="-153"/>
    </contour>
  </outline>
</glyph>
<glyph name="macronbelowcomb" format="2">
  <unicode hex="0331"/>
  <anchor x="-2" y="0" name="_bottom"/>
  <anchor x="-2" y="-173" name="bottom"/>
  <outline>
    <contour>
      <point x="-105" y="-173" type="line"/>
      <point x="103" y="-173" type="line"/>
      <point x="103" y="-94" type="line"/>
      <point x="-105" y="-94" type="line"/>
    </contour>
  </outline>
</glyph>
<glyph name="lowlinecomb" format="2">
  <unicode hex="0332"/>
  <anchor x="0" y="0" name="_bottom"/>
  <anchor x="0" y="-173" name="bottom"/>
  <outline>
    <contour>
      <point x="-152" y="-173" type="line"/>
      <point x="152" y="-173" type="line"/>
      <point x="152" y="-94" type="line"/>
      <point x="-152" y="-94" type="line"/>
    </contour>
  </outline>
</glyph>
<glyph name="strokelongoverlaycomb" format="2">
  <unicode hex="0336"/>
  <anchor x="-2" y="287" name="_center"/>
  <outline>
    <contour>
      <point x="-244" y="250" type="line"/>
      <point x="243" y="250" type="line"/>
      <point x="243" y="322" type="line"/>
      <point x="-244" y="322" type="line"/>
    </contour>
  </outline>
</glyph>
<glyph name="squarebelowcomb" format="2">
  <unicode hex="033B"/>
  <anchor x="2" y="0" name="_bottom"/>
  <anchor x="2" y="-230" name="bottom"/>
  <outline>
    <contour>
      <point x="-139" y="-230" type="line"/>
      <point x="140" y="-230" type="line"/>
      <point x="140" y="-46" type="line"/>
      <point x="-139" y="-46" type="line"/>
    </contour>
    <contour>
      <point x="-105" y="-183" type="line"/>
      <point x="-105" y="-92" type="line"/>
      <point x="107" y="-92" type="line"/>
      <point x="107" y="-183" type="line"/>
    </contour>
  </outline>
</glyph>
<glyph name="dbloverlinecomb" format="2">
  <unicode hex="033F"/>
  <anchor x="0" y="536" name="_top"/>
  <anchor x="0" y="932" name="top"/>
  <outline>
    <contour>
      <point x="-152" y="873" type="line"/>
      <point x="152" y="873" type="line"/>
      <point x="152" y="932" type="line"/>
      <point x="-152" y="932" type="line"/>
    </contour>
    <contour>
      <point x="-152" y="767" type="line"/>
      <point x="152" y="767" type="line"/>
      <point x="152" y="826" type="line"/>
      <point x="-152" y="826" type="line"/>
    </contour>
  </outline>
</glyph>
<glyph name="arrowheadrightabovecomb" format="2">
  <unicode hex="0350"/>
  <anchor x="-2" y="536" name="_top"/>
  <anchor x="-2" y="776" name="top"/>
  <outline>
    <contour>
      <point x="-66" y="569" type="line"/>
      <point x="-59" y="569" type="line"/>
      <point x="-16" y="610"/>
      <point x="27" y="630"/>
      <point x="64" y="648" type="curve"/>
      <point x="64" y="697" type="line"/>
      <point x="15" y="719"/>
      <point x="-17" y="736"/>
      <point x="-59" y="776" type="curve"/>
      <point x="-66" y="776" type="line"/>
      <point x="-66" y="730" type="line"/>
      <point x="-48" y="709"/>
      <point x="-20" y="687"/>
      <point x="5" y="673" type="curve"/>
      <point x="-24" y="657"/>
      <point x="-40" y="641"/>
      <point x="-66" y="615" type="curve"/>
    </contour>
  </outline>
</glyph>
<glyph name="righthalfringabovecomb" format="2">
  <unicode hex="0357"/>
  <anchor x="1" y="536" name="_top"/>
  <anchor x="1" y="816" name="top"/>
  <outline>
    <contour>
      <point x="-46" y="599" type="line"/>
      <point x="2" y="599"/>
      <point x="47" y="637"/>
      <point x="47" y="707" type="curve" smooth="yes"/>
      <point x="47" y="778"/>
      <point x="2" y="816"/>
      <point x="-46" y="816" type="curve"/>
      <point x="-46" y="760" type="line"/>
      <point x="-27" y="760"/>
      <point x="-3" y="746"/>
      <point x="-3" y="707" type="curve" smooth="yes"/>
      <point x="-3" y="669"/>
      <point x="-24" y="653"/>
      <point x="-46" y="653" type="curve"/>
    </contour>
  </outline>
</glyph>
<glyph name="tonos" format="2">
  <advance width="417"/>
  <unicode hex="0384"/>
  <anchor x="221" y="536" name="_top"/>
  <outline>
    <contour>
      <point x="144" y="606" type="line"/>
      <point x="215" y="606" type="line"/>
      <point x="247" y="660"/>
      <point x="277" y="725"/>
      <point x="298" y="784" type="curve"/>
      <point x="298" y="796" type="line"/>
      <point x="173" y="796" type="line"/>
      <point x="167" y="740"/>
      <point x="153" y="675"/>
      <point x="144" y="621" type="curve"/>
    </contour>
  </outline>
</glyph>
<glyph name="alpha" format="2">
  <advance width="490"/>
  <unicode hex="03B1"/>
  <anchor x="246" y="0" name="bottom"/>
  <anchor x="246" y="536" name="top"/>
  <outline>
    <contour>
      <point x="175" y="-10" type="curve" smooth="yes"/>
      <point x="241" y="-10"/>
      <point x="279" y="29"/>
      <point x="301" y="96" type="curve"/>
      <point x="308" y="96" type="line"/>
      <point x="320" y="37"/>
      <point x="338" y="0"/>
      <point x="406" y="0" type="curve" smooth="yes"/>
      <point x="478" y="0" type="line"/>
      <point x="478" y="53" type="line"/>
      <point x="471" y="53" type="line" smooth="yes"/>
      <point x="433" y="53"/>
      <point x="419" y="81"/>
      <point x="419" y="161" type="curve"/>
      <point x="419" y="333" type="line"/>
      <point x="419" y="406"/>
      <point x="430" y="497"/>
      <point x="439" y="536" type="curve"/>
      <point x="346" y="536" type="line"/>
      <point x="323" y="505"/>
      <point x="317" y="476"/>
      <point x="308" y="446" type="curve"/>
      <point x="303" y="446" type="line"/>
      <point x="285" y="503"/>
      <point x="254" y="546"/>
      <point x="190" y="546" type="curve" smooth="yes"/>
      <point x="93" y="546"/>
      <point x="29" y="460"/>
      <point x="29" y="267" type="curve" smooth="yes"/>
      <point x="29" y="75"/>
      <point x="81" y="-10"/>
    </contour>
    <contour>
      <point x="222" y="61" type="curve" smooth="yes"/>
      <point x="184" y="61"/>
      <point x="172" y="128"/>
      <point x="172" y="266" type="curve" smooth="yes"/>
      <point x="172" y="405"/>
      <point x="187" y="479"/>
      <point x="227" y="479" type="curve"/>
      <point x="252" y="479"/>
      <point x="275" y="437"/>
      <point x="281" y="345" type="curve"/>
      <point x="281" y="309" type="line"/>
      <point x="281" y="170"/>
      <point x="266" y="61"/>
    </contour>
  </outline>
</glyph>
<glyph name="gamma" format="2">
  <advance width="448"/>
  <unicode hex="03B3"/>
  <anchor x="224" y="-240" name="bottom"/>
  <anchor x="224" y="536" name="top"/>
  <anchor x="428" y="536" name="topright"/>
  <outline>
    <contour>
      <point x="182" y="-240" type="curve" smooth="yes"/>
      <point x="239" y="-240"/>
      <point x="286" y="-159"/>
      <point x="286" y="-40" type="curve" smooth="yes"/>
      <point x="286" y="-17"/>
      <point x="285" y="11"/>
      <point x="284" y="28" type="curve"/>
      <point x="352" y="120"/>
      <point x="420" y="273"/>
      <point x="420" y="437" type="curve" smooth="yes"/>
      <point x="420" y="495"/>
      <point x="406" y="546"/>
      <point x="357" y="546" type="curve" smooth="yes"/>
      <point x="315" y="546"/>
      <point x="300" y="510"/>
      <point x="300" y="471" type="curve"/>
      <point x="331" y="465"/>
      <point x="347" y="438"/>
      <point x="347" y="383" type="curve" smooth="yes"/>
      <point x="347" y="289"/>
      <point x="317" y="181"/>
      <point x="273" y="94" type="curve"/>
      <point x="224" y="403"/>
      <point x="191" y="546"/>
      <point x="108" y="546" type="curve" smooth="yes"/>
      <point x="64" y="546"/>
      <point x="19" y="519"/>
      <point x="-11" y="496" type="curve"/>
      <point x="4" y="456" type="line"/>
      <point x="13" y="463"/>
      <point x="24" y="469"/>
      <point x="33" y="469" type="curve" smooth="yes"/>
      <point x="77" y="469"/>
      <point x="119" y="277"/>
      <point x="167" y="13" type="curve"/>
      <point x="142" y="-38"/>
      <point x="120" y="-114"/>
      <point x="120" y="-166" type="curve" smooth="yes"/>
      <point x="120" y="-211"/>
      <point x="139" y="-240"/>
    </contour>
  </outline>
</glyph>
<glyph name="theta" format="2">
  <advance width="461"/>
  <unicode hex="03B8"/>
  <anchor x="231" y="0" name="bottom"/>
  <anchor x="231" y="764" name="top"/>
  <anchor x="441" y="764" name="topright"/>
  <outline>
    <contour>
      <point x="231" y="-10" type="curve" smooth="yes"/>
      <point x="366" y="-10"/>
      <point x="432" y="137"/>
      <point x="432" y="378" type="curve" smooth="yes"/>
      <point x="432" y="620"/>
      <point x="366" y="764"/>
      <point x="232" y="764" type="curve" smooth="yes"/>
      <point x="88" y="764"/>
      <point x="29" y="620"/>
      <point x="29" y="379" type="curve" smooth="yes"/>
      <point x="29" y="137"/>
      <point x="88" y="-10"/>
    </contour>
    <contour>
      <point x="231" y="54" type="curve" smooth="yes"/>
      <point x="193" y="54"/>
      <point x="176" y="152"/>
      <point x="174" y="355" type="curve"/>
      <point x="285" y="355" type="line"/>
      <point x="286" y="154"/>
      <point x="269" y="54"/>
    </contour>
    <contour>
      <point x="174" y="418" type="line"/>
      <point x="177" y="612"/>
      <point x="196" y="700"/>
      <point x="232" y="700" type="curve" smooth="yes"/>
      <point x="269" y="700"/>
      <point x="285" y="612"/>
      <point x="288" y="418" type="curve"/>
    </contour>
  </outline>
</glyph>
<glyph name="phi" format="2">
  <advance width="578"/>
  <unicode hex="03C6"/>
  <anchor x="289" y="-240" name="bottom"/>
  <anchor x="289" y="553" name="top"/>
  <anchor x="558" y="536" name="topright"/>
  <outline>
    <contour>
      <point x="259" y="-240" type="line"/>
      <point x="302" y="-240" type="line"/>
      <point x="302" y="-11" type="line"/>
      <point x="433" y="-4"/>
      <point x="532" y="86"/>
      <point x="532" y="282" type="curve" smooth="yes"/>
      <point x="532" y="455"/>
      <point x="471" y="547"/>
      <point x="376" y="547" type="curve" smooth="yes"/>
      <point x="302" y="547"/>
      <point x="259" y="489"/>
      <point x="259" y="381" type="curve" smooth="yes"/>
      <point x="259" y="52" type="line"/>
      <point x="218" y="61"/>
      <point x="172" y="109"/>
      <point x="172" y="273" type="curve" smooth="yes"/>
      <point x="172" y="393"/>
      <point x="191" y="470"/>
      <point x="210" y="506" type="curve"/>
      <point x="139" y="553" type="line"/>
      <point x="97" y="519"/>
      <point x="29" y="420"/>
      <point x="29" y="275" type="curve" smooth="yes"/>
      <point x="29" y="84"/>
      <point x="132" y="-3"/>
      <point x="259" y="-11" type="curve"/>
    </contour>
    <contour>
      <point x="302" y="52" type="curve"/>
      <point x="302" y="375" type="line" smooth="yes"/>
      <point x="302" y="445"/>
      <point x="311" y="480"/>
      <point x="341" y="480" type="curve" smooth="yes"/>
      <point x="368" y="480"/>
      <point x="388" y="420"/>
      <point x="388" y="272" type="curve" smooth="yes"/>
      <point x="388" y="108"/>
      <point x="339" y="60"/>
    </contour>
  </outline>
</glyph>
<glyph name="chi" format="2">
  <advance width="478"/>
  <unicode hex="03C7"/>
  <anchor x="239" y="-240" name="bottom"/>
  <anchor x="239" y="536" name="top"/>
  <anchor x="458" y="536" name="topright"/>
  <outline>
    <contour>
      <point x="19" y="-240" type="line"/>
      <point x="169" y="-240" type="line"/>
      <point x="262" y="69" type="line"/>
      <point x="303" y="-115" type="line" smooth="yes"/>
      <point x="322" y="-195"/>
      <point x="340" y="-238"/>
      <point x="391" y="-238" type="curve" smooth="yes"/>
      <point x="422" y="-238"/>
      <point x="450" y="-215"/>
      <point x="471" y="-192" type="curve"/>
      <point x="456" y="-148" type="line"/>
      <point x="447" y="-154"/>
      <point x="435" y="-160"/>
      <point x="421" y="-160" type="curve" smooth="yes"/>
      <point x="391" y="-160"/>
      <point x="380" y="-133"/>
      <point x="362" y="-73" type="curve" smooth="yes"/>
      <point x="303" y="142" type="line"/>
      <point x="464" y="536" type="line"/>
      <point x="320" y="536" type="line"/>
      <point x="241" y="266" type="line"/>
      <point x="207" y="423" type="line" smooth="yes"/>
      <point x="188" y="513"/>
      <point x="162" y="541"/>
      <point x="124" y="541" type="curve" smooth="yes"/>
      <point x="93" y="541"/>
      <point x="57" y="516"/>
      <point x="33" y="493" type="curve"/>
      <point x="50" y="454" type="line"/>
      <point x="58" y="460"/>
      <point x="74" y="467"/>
      <point x="90" y="467" type="curve" smooth="yes"/>
      <point x="122" y="467"/>
      <point x="136" y="436"/>
      <point x="151" y="378" type="curve" smooth="yes"/>
      <point x="199" y="198" type="line"/>
    </contour>
  </outline>
</glyph>
<glyph name="uni03D0" format="2">
  <advance width="462"/>
  <unicode hex="03D0"/>
  <anchor x="232" y="-10" name="bottom"/>
  <anchor x="232" y="760" name="top"/>
  <outline>
    <contour>
      <point x="232" y="-10" type="curve" smooth="yes"/>
      <point x="360" y="-10"/>
      <point x="432" y="76"/>
      <point x="432" y="237" type="curve" smooth="yes"/>
      <point x="432" y="390"/>
      <point x="366" y="465"/>
      <point x="260" y="465" type="curve" smooth="yes"/>
      <point x="175" y="465"/>
      <point x="125" y="412"/>
      <point x="103" y="359" type="curve"/>
      <point x="101" y="359" type="line"/>
      <point x="100" y="440"/>
      <point x="112" y="506"/>
      <point x="125" y="561" type="curve"/>
      <point x="170" y="534"/>
      <point x="212" y="518"/>
      <point x="256" y="518" type="curve" smooth="yes"/>
      <point x="361" y="518"/>
      <point x="404" y="565"/>
      <point x="404" y="643" type="curve" smooth="yes"/>
      <point x="404" y="714"/>
      <point x="365" y="760"/>
      <point x="274" y="760" type="curve" smooth="yes"/>
      <point x="127" y="760"/>
      <point x="29" y="598"/>
      <point x="29" y="320" type="curve" smooth="yes"/>
      <point x="29" y="73"/>
      <point x="114" y="-10"/>
    </contour>
    <contour>
      <point x="234" y="51" type="curve" smooth="yes"/>
      <point x="191" y="51"/>
      <point x="177" y="114"/>
      <point x="177" y="229" type="curve" smooth="yes"/>
      <point x="177" y="341"/>
      <point x="197" y="405"/>
      <point x="235" y="405" type="curve" smooth="yes"/>
      <point x="273" y="405"/>
      <point x="289" y="345"/>
      <point x="289" y="230" type="curve" smooth="yes"/>
      <point x="289" y="115"/>
      <point x="273" y="51"/>
    </contour>
    <contour>
      <point x="254" y="582" type="curve" smooth="yes"/>
      <point x="218" y="582"/>
      <point x="177" y="597"/>
      <point x="148" y="614" type="curve"/>
      <point x="171" y="663"/>
      <point x="212" y="697"/>
      <point x="265" y="697" type="curve" smooth="yes"/>
      <point x="316" y="697"/>
      <point x="340" y="676"/>
      <point x="340" y="641" type="curve" smooth="yes"/>
      <point x="340" y="602"/>
      <point x="307" y="582"/>
    </contour>
  </outline>
</glyph>
<glyph name="uni03D7" format="2">
  <advance width="510"/>
  <unicode hex="03D7"/>
  <outline>
    <contour>
      <point x="410" y="-204" type="curve" smooth="yes"/>
      <point x="468" y="-204"/>
      <point x="499" y="-144"/>
      <point x="500" y="-34" type="curve" smooth="yes"/>
      <point x="501" y="70" type="line"/>
      <point x="455" y="70"/>
      <point x="435" y="105"/>
      <point x="435" y="186" type="curve" smooth="yes"/>
      <point x="435" y="323"/>
      <point x="460" y="448"/>
      <point x="486" y="536" type="curve"/>
      <point x="375" y="536" type="line"/>
      <point x="166" y="147" type="line"/>
      <point x="187" y="204"/>
      <point x="220" y="304"/>
      <point x="220" y="393" type="curve" smooth="yes"/>
      <point x="220" y="488"/>
      <point x="189" y="546"/>
      <point x="108" y="546" type="curve" smooth="yes"/>
      <point x="30" y="546"/>
      <point x="8" y="499"/>
      <point x="5" y="459" type="curve"/>
      <point x="51" y="459"/>
      <point x="72" y="430"/>
      <point x="72" y="332" type="curve" smooth="yes"/>
      <point x="72" y="207"/>
      <point x="41" y="88"/>
      <point x="15" y="0" type="curve"/>
      <point x="133" y="0" type="line"/>
      <point x="334" y="381" type="line"/>
      <point x="304" y="306"/>
      <point x="290" y="226"/>
      <point x="290" y="156" type="curve" smooth="yes"/>
      <point x="290" y="48"/>
      <point x="332" y="-4"/>
      <point x="404" y="-4" type="curve" smooth="yes"/>
      <point x="418" y="-4"/>
      <point x="433" y="-1"/>
      <point x="446" y="3" type="curve"/>
      <point x="446" y="-37" type="line" smooth="yes"/>
      <point x="446" y="-93"/>
      <point x="430" y="-117"/>
      <point x="398" y="-117" type="curve" smooth="yes"/>
      <point x="383" y="-117"/>
      <point x="372" y="-110"/>
      <point x="363" y="-101" type="curve"/>
      <point x="355" y="-110"/>
      <point x="352" y="-123"/>
      <point x="352" y="-139" type="curve" smooth="yes"/>
      <point x="352" y="-181"/>
      <point x="374" y="-204"/>
    </contour>
  </outline>
</glyph>
<glyph name="uni03FA" format="2">
  <advance width="695"/>
  <unicode hex="03FA"/>
  <anchor x="348" y="0" name="bottom"/>
  <anchor x="348" y="714" name="top"/>
  <outline>
    <contour>
      <point x="16" y="0" type="line"/>
      <point x="209" y="0" type="line"/>
      <point x="209" y="53" type="line"/>
      <point x="198" y="53" type="line" smooth="yes"/>
      <point x="155" y="53"/>
      <point x="143" y="66"/>
      <point x="143" y="124" type="curve" smooth="yes"/>
      <point x="143" y="621" type="line"/>
      <point x="283" y="258" type="line"/>
      <point x="342" y="258" type="line"/>
      <point x="472" y="620" type="line"/>
      <point x="472" y="115" type="line" smooth="yes"/>
      <point x="472" y="65"/>
      <point x="458" y="53"/>
      <point x="424" y="53" type="curve"/>
      <point x="405" y="53" type="line"/>
      <point x="405" y="0" type="line"/>
      <point x="680" y="0" type="line"/>
      <point x="680" y="53" type="line"/>
      <point x="657" y="53" type="line" smooth="yes"/>
      <point x="625" y="53"/>
      <point x="616" y="66"/>
      <point x="616" y="124" type="curve" smooth="yes"/>
      <point x="616" y="593" type="line" smooth="yes"/>
      <point x="616" y="651"/>
      <point x="629" y="661"/>
      <point x="658" y="661" type="curve" smooth="yes"/>
      <point x="680" y="661" type="line"/>
      <point x="680" y="714" type="line"/>
      <point x="447" y="714" type="line"/>
      <point x="355" y="426" type="line"/>
      <point x="262" y="714" type="line"/>
      <point x="16" y="714" type="line"/>
      <point x="16" y="661" type="line"/>
      <point x="43" y="661" type="line" smooth="yes"/>
      <point x="70" y="661"/>
      <point x="81" y="648"/>
      <point x="81" y="594" type="curve" smooth="yes"/>
      <point x="81" y="119" type="line" smooth="yes"/>
      <point x="81" y="65"/>
      <point x="66" y="53"/>
      <point x="39" y="53" type="curve" smooth="yes"/>
      <point x="16" y="53" type="line"/>
    </contour>
  </outline>
</glyph>
<glyph name="afii10028" format="2">
  <advance width="564"/>
  <unicode hex="041A"/>
  <anchor x="283" y="0" name="bottom"/>
  <anchor x="283" y="714" name="top"/>
  <outline>
    <contour>
      <point x="15" y="0" type="line"/>
      <point x="296" y="0" type="line"/>
      <point x="296" y="53" type="line"/>
      <point x="269" y="53" type="line" smooth="yes"/>
      <point x="242" y="53"/>
      <point x="227" y="60"/>
      <point x="227" y="118" type="curve" smooth="yes"/>
      <point x="227" y="331" type="line"/>
      <point x="250" y="331"/>
      <point x="272" y="320"/>
      <point x="291" y="268" type="curve" smooth="yes"/>
      <point x="352" y="98" type="line" smooth="yes"/>
      <point x="374" y="37"/>
      <point x="402" y="0"/>
      <point x="476" y="0" type="curve" smooth="yes"/>
      <point x="564" y="0" type="line"/>
      <point x="564" y="53" type="line"/>
      <point x="558" y="53" type="line" smooth="yes"/>
      <point x="524" y="53"/>
      <point x="506" y="79"/>
      <point x="485" y="143" type="curve" smooth="yes"/>
      <point x="439" y="271" type="line" smooth="yes"/>
      <point x="414" y="347"/>
      <point x="371" y="374"/>
      <point x="328" y="382" type="curve"/>
      <point x="353" y="406"/>
      <point x="373" y="441"/>
      <point x="405" y="524" type="curve" smooth="yes"/>
      <point x="436" y="604"/>
      <point x="443" y="635"/>
      <point x="473" y="635" type="curve" smooth="yes"/>
      <point x="498" y="635"/>
      <point x="507" y="611"/>
      <point x="512" y="583" type="curve"/>
      <point x="536" y="590"/>
      <point x="547" y="613"/>
      <point x="547" y="648" type="curve" smooth="yes"/>
      <point x="547" y="691"/>
      <point x="523" y="720"/>
      <point x="480" y="720" type="curve" smooth="yes"/>
      <point x="427" y="720"/>
      <point x="395" y="672"/>
      <point x="354" y="557" type="curve" smooth="yes"/>
      <point x="328" y="486"/>
      <point x="302" y="434"/>
      <point x="288" y="416" type="curve" smooth="yes"/>
      <point x="271" y="394"/>
      <point x="254" y="386"/>
      <point x="227" y="386" type="curve"/>
      <point x="227" y="596" type="line" smooth="yes"/>
      <point x="227" y="654"/>
      <point x="238" y="661"/>
      <point x="267" y="661" type="curve" smooth="yes"/>
      <point x="296" y="661" type="line"/>
      <point x="296" y="714" type="line"/>
      <point x="15" y="714" type="line"/>
      <point x="15" y="661" type="line"/>
      <point x="40" y="661" type="line" smooth="yes"/>
      <point x="66" y="661"/>
      <point x="81" y="654"/>
      <point x="81" y="600" type="curve" smooth="yes"/>
      <point x="81" y="116" type="line" smooth="yes"/>
      <point x="81" y="62"/>
      <point x="66" y="53"/>
      <point x="40" y="53" type="curve" smooth="yes"/>
      <point x="15" y="53" type="line"/>
    </contour>
  </outline>
</glyph>
<glyph name="uni0468" format="2">
  <advance width="877"/>
  <unicode hex="0468"/>
  <anchor x="459" y="0" name="bottom"/>
  <anchor x="459" y="714" name="top"/>
  <outline>
    <contour>
      <point x="16" y="0" type="line"/>
      <point x="273" y="0" type="line"/>
      <point x="273" y="53" type="line"/>
      <point x="252" y="53" type="line" smooth="yes"/>
      <point x="235" y="53"/>
      <point x="228" y="71"/>
      <point x="228" y="111" type="curve" smooth="yes"/>
      <point x="228" y="332" type="line"/>
      <point x="429" y="332" type="line"/>
      <point x="448" y="393" type="line"/>
      <point x="228" y="393" type="line"/>
      <point x="228" y="605" type="line" smooth="yes"/>
      <point x="228" y="648"/>
      <point x="235" y="661"/>
      <point x="252" y="661" type="curve" smooth="yes"/>
      <point x="279" y="661" type="line"/>
      <point x="279" y="714" type="line"/>
      <point x="16" y="714" type="line"/>
      <point x="16" y="661" type="line"/>
      <point x="47" y="661" type="line" smooth="yes"/>
      <point x="65" y="661"/>
      <point x="81" y="648"/>
      <point x="81" y="602" type="curve" smooth="yes"/>
      <point x="81" y="111" type="line" smooth="yes"/>
      <point x="81" y="71"/>
      <point x="70" y="53"/>
      <point x="54" y="53" type="curve" smooth="yes"/>
      <point x="16" y="53" type="line"/>
    </contour>
    <component base="uni0466" xOffset="291"/>
  </outline>
</glyph>
<glyph name="uni0481" format="2">
  <advance width="400"/>
  <unicode hex="0481"/>
  <anchor x="200" y="-239" name="bottom"/>
  <anchor x="200" y="536" name="top"/>
  <outline>
    <contour>
      <point x="184" y="-239" type="line"/>
      <point x="325" y="-239" type="line"/>
      <point x="325" y="84" type="line"/>
      <point x="322" y="84" type="line"/>
      <point x="307" y="73"/>
      <point x="280" y="60"/>
      <point x="240" y="60" type="curve" smooth="yes"/>
      <point x="192" y="60"/>
      <point x="172" y="130"/>
      <point x="172" y="266" type="curve" smooth="yes"/>
      <point x="172" y="438"/>
      <point x="192" y="489"/>
      <point x="222" y="489" type="curve" smooth="yes"/>
      <point x="250" y="489"/>
      <point x="259" y="429"/>
      <point x="259" y="360" type="curve"/>
      <point x="360" y="360"/>
      <point x="375" y="401"/>
      <point x="375" y="444" type="curve" smooth="yes"/>
      <point x="375" y="501"/>
      <point x="337" y="549"/>
      <point x="219" y="549" type="curve" smooth="yes"/>
      <point x="113" y="549"/>
      <point x="29" y="482"/>
      <point x="29" y="265" type="curve" smooth="yes"/>
      <point x="29" y="72"/>
      <point x="103" y="-10"/>
      <point x="189" y="-10" type="curve"/>
      <point x="184" y="-10" type="line"/>
    </contour>
  </outline>
</glyph>
<glyph name="afii10098" format="2">
  <advance width="338"/>
  <unicode hex="0491"/>
  <anchor x="169" y="0" name="bottom"/>
  <anchor x="169" y="668" name="top"/>
  <outline>
    <contour>
      <point x="10" y="0" type="line"/>
      <point x="259" y="0" type="line"/>
      <point x="259" y="53" type="line"/>
      <point x="243" y="53" type="line" smooth="yes"/>
      <point x="219" y="53"/>
      <point x="205" y="65"/>
      <point x="205" y="118" type="curve" smooth="yes"/>
      <point x="205" y="476" type="line"/>
      <point x="343" y="476" type="line"/>
      <point x="343" y="668" type="line"/>
      <point x="286" y="668" type="line"/>
      <point x="280" y="617" type="line" smooth="yes"/>
      <point x="272" y="554"/>
      <point x="261" y="536"/>
      <point x="229" y="536" type="curve" smooth="yes"/>
      <point x="10" y="536" type="line"/>
      <point x="10" y="483" type="line"/>
      <point x="17" y="483" type="line" smooth="yes"/>
      <point x="45" y="483"/>
      <point x="62" y="472"/>
      <point x="62" y="415" type="curve" smooth="yes"/>
      <point x="62" y="118" type="line" smooth="yes"/>
      <point x="62" y="65"/>
      <point x="52" y="53"/>
      <point x="17" y="53" type="curve" smooth="yes"/>
      <point x="10" y="53" type="line"/>
    </contour>
  </outline>
</glyph>
<glyph name="uni04BE" format="2">
  <advance width="644"/>
  <unicode hex="04BE"/>
  <anchor x="399" y="-210" name="bottom"/>
  <anchor x="369" y="714" name="top"/>
  <outline>
    <contour>
      <point x="371" y="-210" type="curve"/>
      <point x="431" y="-210" type="line"/>
      <point x="431" y="-72"/>
      <point x="435" y="-26"/>
      <point x="502" y="5" type="curve"/>
      <point x="556" y="23"/>
      <point x="593" y="67"/>
      <point x="593" y="110" type="curve" smooth="yes"/>
      <point x="593" y="129"/>
      <point x="589" y="139"/>
      <point x="584" y="147" type="curve"/>
      <point x="544" y="102"/>
      <point x="494" y="65"/>
      <point x="435" y="65" type="curve" smooth="yes"/>
      <point x="346" y="65"/>
      <point x="294" y="145"/>
      <point x="288" y="335" type="curve"/>
      <point x="604" y="335" type="line"/>
      <point x="604" y="362" type="line" smooth="yes"/>
      <point x="604" y="587"/>
      <point x="547" y="725"/>
      <point x="382" y="725" type="curve" smooth="yes"/>
      <point x="240" y="725"/>
      <point x="150" y="596"/>
      <point x="140" y="392" type="curve"/>
      <point x="103" y="392"/>
      <point x="85" y="408"/>
      <point x="85" y="456" type="curve" smooth="yes"/>
      <point x="85" y="477"/>
      <point x="88" y="491"/>
      <point x="93" y="505" type="curve"/>
      <point x="87" y="511"/>
      <point x="76" y="518"/>
      <point x="63" y="518" type="curve" smooth="yes"/>
      <point x="32" y="518"/>
      <point x="8" y="497"/>
      <point x="8" y="447" type="curve" smooth="yes"/>
      <point x="8" y="370"/>
      <point x="53" y="335"/>
      <point x="138" y="335" type="curve"/>
      <point x="143" y="170"/>
      <point x="195" y="47"/>
      <point x="300" y="6" type="curve"/>
      <point x="372" y="-25"/>
      <point x="371" y="-71"/>
    </contour>
    <contour>
      <point x="290" y="392" type="line"/>
      <point x="292" y="575"/>
      <point x="324" y="660"/>
      <point x="375" y="660" type="curve" smooth="yes"/>
      <point x="429" y="660"/>
      <point x="450" y="566"/>
      <point x="452" y="392" type="curve"/>
    </contour>
  </outline>
</glyph>
<glyph name="uni04C8" format="2">
  <advance width="507"/>
  <unicode hex="04C8"/>
  <anchor x="253" y="-249" name="bottom"/>
  <anchor x="253" y="536" name="top"/>
  <outline>
    <contour>
      <point x="257" y="-249" type="curve" smooth="yes"/>
      <point x="387" y="-249"/>
      <point x="445" y="-183"/>
      <point x="445" y="20" type="curve" smooth="yes"/>
      <point x="445" y="418" type="line" smooth="yes"/>
      <point x="445" y="472"/>
      <point x="464" y="483"/>
      <point x="492" y="483" type="curve" smooth="yes"/>
      <point x="499" y="483" type="line"/>
      <point x="499" y="536" type="line"/>
      <point x="268" y="536" type="line"/>
      <point x="268" y="483" type="line"/>
      <point x="270" y="483" type="line" smooth="yes"/>
      <point x="294" y="483"/>
      <point x="304" y="471"/>
      <point x="304" y="419" type="curve" smooth="yes"/>
      <point x="304" y="303" type="line"/>
      <point x="205" y="303" type="line"/>
      <point x="205" y="418" type="line" smooth="yes"/>
      <point x="205" y="472"/>
      <point x="212" y="483"/>
      <point x="238" y="483" type="curve" smooth="yes"/>
      <point x="241" y="483" type="line"/>
      <point x="241" y="536" type="line"/>
      <point x="10" y="536" type="line"/>
      <point x="10" y="483" type="line"/>
      <point x="19" y="483" type="line" smooth="yes"/>
      <point x="46" y="483"/>
      <point x="62" y="471"/>
      <point x="62" y="419" type="curve" smooth="yes"/>
      <point x="62" y="118" type="line" smooth="yes"/>
      <point x="62" y="64"/>
      <point x="47" y="53"/>
      <point x="19" y="53" type="curve" smooth="yes"/>
      <point x="10" y="53" type="line"/>
      <point x="10" y="0" type="line"/>
      <point x="241" y="0" type="line"/>
      <point x="241" y="53" type="line"/>
      <point x="237" y="53" type="line" smooth="yes"/>
      <point x="214" y="53"/>
      <point x="205" y="64"/>
      <point x="205" y="118" type="curve" smooth="yes"/>
      <point x="205" y="246" type="line"/>
      <point x="304" y="246" type="line"/>
      <point x="304" y="22" type="line" smooth="yes"/>
      <point x="304" y="-136"/>
      <point x="293" y="-187"/>
      <point x="251" y="-187" type="curve" smooth="yes"/>
      <point x="226" y="-187"/>
      <point x="204" y="-145"/>
      <point x="208" y="-77" type="curve"/>
      <point x="160" y="-81"/>
      <point x="132" y="-105"/>
      <point x="132" y="-143" type="curve" smooth="yes"/>
      <point x="132" y="-191"/>
      <point x="156" y="-223"/>
      <point x="192" y="-237" type="curve" smooth="yes"/>
      <point x="216" y="-247"/>
      <point x="237" y="-249"/>
    </contour>
  </outline>
</glyph>
<glyph name="uni04CB" format="2">
  <advance width="576"/>
  <unicode hex="04CB"/>
  <anchor x="289" y="-210" name="bottom"/>
  <anchor x="289" y="714" name="top"/>
  <outline>
    <contour>
      <point x="284" y="-210" type="line"/>
      <point x="343" y="-210" type="line"/>
      <point x="343" y="-62"/>
      <point x="357" y="0"/>
      <point x="420" y="0" type="curve" smooth="yes"/>
      <point x="563" y="0" type="line"/>
      <point x="563" y="53" type="line"/>
      <point x="534" y="53" type="line" smooth="yes"/>
      <point x="508" y="53"/>
      <point x="496" y="62"/>
      <point x="496" y="120" type="curve" smooth="yes"/>
      <point x="496" y="594" type="line" smooth="yes"/>
      <point x="496" y="650"/>
      <point x="509" y="661"/>
      <point x="534" y="661" type="curve" smooth="yes"/>
      <point x="563" y="661" type="line"/>
      <point x="563" y="714" type="line"/>
      <point x="298" y="714" type="line"/>
      <point x="298" y="661" type="line"/>
      <point x="312" y="661" type="line" smooth="yes"/>
      <point x="339" y="661"/>
      <point x="349" y="650"/>
      <point x="349" y="594" type="curve" smooth="yes"/>
      <point x="349" y="354" type="line"/>
      <point x="339" y="334"/>
      <point x="317" y="326"/>
      <point x="293" y="326" type="curve" smooth="yes"/>
      <point x="232" y="326"/>
      <point x="214" y="359"/>
      <point x="214" y="468" type="curve" smooth="yes"/>
      <point x="214" y="594" type="line" smooth="yes"/>
      <point x="214" y="650"/>
      <point x="225" y="661"/>
      <point x="252" y="661" type="curve" smooth="yes"/>
      <point x="265" y="661" type="line"/>
      <point x="265" y="714" type="line"/>
      <point x="13" y="714" type="line"/>
      <point x="13" y="661" type="line"/>
      <point x="30" y="661" type="line"/>
      <point x="56" y="661"/>
      <point x="65" y="650"/>
      <point x="65" y="594" type="curve" smooth="yes"/>
      <point x="65" y="462" type="line" smooth="yes"/>
      <point x="65" y="297"/>
      <point x="140" y="248"/>
      <point x="237" y="248" type="curve" smooth="yes"/>
      <point x="300" y="248"/>
      <point x="336" y="267"/>
      <point x="349" y="285" type="curve"/>
      <point x="349" y="124" type="line" smooth="yes"/>
      <point x="349" y="73"/>
      <point x="342" y="54"/>
      <point x="316" y="54" type="curve" smooth="yes"/>
      <point x="284" y="54" type="line"/>
    </contour>
  </outline>
</glyph>
<glyph name="uni04CD" format="2">
  <advance width="695"/>
  <unicode hex="04CD"/>
  <anchor x="348" y="0" name="bottom"/>
  <anchor x="348" y="714" name="top"/>
  <anchor x="675" y="714" name="topright"/>
  <outline>
    <contour>
      <point x="560" y="-210" type="line"/>
      <point x="650" y="-210" type="line"/>
      <point x="694" y="35" type="line"/>
      <point x="694" y="53" type="line"/>
      <point x="625" y="53" type="line"/>
      <point x="628" y="4" type="line"/>
    </contour>
    <component base="M"/>
  </outline>
</glyph>
<glyph name="uni04D8" format="2">
  <advance width="546"/>
  <unicode hex="04D8"/>
  <anchor x="274" y="0" name="bottom"/>
  <anchor x="274" y="714" name="top"/>
  <outline>
    <contour>
      <point x="262" y="-10" type="curve" smooth="yes"/>
      <point x="404" y="-10"/>
      <point x="507" y="121"/>
      <point x="507" y="367" type="curve" smooth="yes"/>
      <point x="507" y="593"/>
      <point x="406" y="725"/>
      <point x="244" y="725" type="curve" smooth="yes"/>
      <point x="139" y="725"/>
      <point x="51" y="672"/>
      <point x="51" y="608" type="curve" smooth="yes"/>
      <point x="51" y="589"/>
      <point x="55" y="579"/>
      <point x="62" y="572" type="curve"/>
      <point x="100" y="617"/>
      <point x="152" y="650"/>
      <point x="209" y="650" type="curve" smooth="yes"/>
      <point x="298" y="650"/>
      <point x="352" y="567"/>
      <point x="357" y="380" type="curve"/>
      <point x="40" y="380" type="line"/>
      <point x="40" y="353" type="line" smooth="yes"/>
      <point x="40" y="128"/>
      <point x="98" y="-10"/>
    </contour>
    <contour>
      <point x="271" y="55" type="curve" smooth="yes"/>
      <point x="215" y="55"/>
      <point x="195" y="149"/>
      <point x="193" y="323" type="curve"/>
      <point x="354" y="323" type="line"/>
      <point x="352" y="140"/>
      <point x="321" y="55"/>
    </contour>
  </outline>
</glyph>
<glyph name="uni0505" format="2">
  <advance width="665"/>
  <unicode hex="0505"/>
  <anchor x="332" y="0" name="bottom"/>
  <anchor x="332" y="536" name="top"/>
  <outline>
    <contour>
      <point x="399" y="-10" type="curve" smooth="yes"/>
      <point x="523" y="-10"/>
      <point x="594" y="69"/>
      <point x="594" y="188" type="curve" smooth="yes"/>
      <point x="594" y="227" type="line" smooth="yes"/>
      <point x="594" y="284"/>
      <point x="628" y="293"/>
      <point x="641" y="293" type="curve" smooth="yes"/>
      <point x="653" y="293" type="line"/>
      <point x="653" y="346" type="line"/>
      <point x="395" y="346" type="line"/>
      <point x="395" y="293" type="line"/>
      <point x="407" y="293" type="line" smooth="yes"/>
      <point x="419" y="293"/>
      <point x="454" y="286"/>
      <point x="454" y="228" type="curve" smooth="yes"/>
      <point x="454" y="179" type="line" smooth="yes"/>
      <point x="454" y="96"/>
      <point x="433" y="53"/>
      <point x="397" y="53" type="curve" smooth="yes"/>
      <point x="367" y="53"/>
      <point x="344" y="78"/>
      <point x="339" y="155" type="curve" smooth="yes"/>
      <point x="331" y="237"/>
      <point x="302" y="268"/>
      <point x="235" y="284" type="curve"/>
      <point x="235" y="289" type="line"/>
      <point x="301" y="308"/>
      <point x="337" y="354"/>
      <point x="337" y="419" type="curve" smooth="yes"/>
      <point x="337" y="500"/>
      <point x="278" y="548"/>
      <point x="165" y="548" type="curve" smooth="yes"/>
      <point x="36" y="548"/>
      <point x="4" y="489"/>
      <point x="4" y="443" type="curve" smooth="yes"/>
      <point x="4" y="405"/>
      <point x="21" y="380"/>
      <point x="95" y="380" type="curve"/>
      <point x="95" y="440"/>
      <point x="100" y="492"/>
      <point x="148" y="492" type="curve" smooth="yes"/>
      <point x="183" y="492"/>
      <point x="194" y="455"/>
      <point x="194" y="409" type="curve" smooth="yes"/>
      <point x="194" y="356"/>
      <point x="179" y="315"/>
      <point x="117" y="315" type="curve" smooth="yes"/>
      <point x="87" y="315" type="line"/>
      <point x="87" y="252" type="line"/>
      <point x="121" y="252" type="line" smooth="yes"/>
      <point x="183" y="252"/>
      <point x="199" y="224"/>
      <point x="205" y="151" type="curve" smooth="yes"/>
      <point x="217" y="24"/>
      <point x="283" y="-10"/>
    </contour>
  </outline>
</glyph>
<glyph name="uni050F" format="2">
  <advance width="614"/>
  <unicode hex="050F"/>
  <anchor x="307" y="0" name="bottom"/>
  <anchor x="307" y="536" name="top"/>
  <outline>
    <contour>
      <point x="346" y="-10" type="curve" smooth="yes"/>
      <point x="484" y="-10"/>
      <point x="550" y="62"/>
      <point x="550" y="174" type="curve" smooth="yes"/>
      <point x="550" y="188" type="line" smooth="yes"/>
      <point x="550" y="246"/>
      <point x="583" y="253"/>
      <point x="594" y="253" type="curve" smooth="yes"/>
      <point x="609" y="253" type="line"/>
      <point x="609" y="306" type="line"/>
      <point x="349" y="306" type="line"/>
      <point x="349" y="253" type="line"/>
      <point x="362" y="253" type="line" smooth="yes"/>
      <point x="375" y="253"/>
      <point x="408" y="246"/>
      <point x="408" y="188" type="curve" smooth="yes"/>
      <point x="408" y="165" type="line" smooth="yes"/>
      <point x="408" y="91"/>
      <point x="382" y="53"/>
      <point x="346" y="53" type="curve" smooth="yes"/>
      <point x="307" y="53"/>
      <point x="282" y="91"/>
      <point x="282" y="174" type="curve" smooth="yes"/>
      <point x="282" y="474" type="line"/>
      <point x="298" y="474" type="line" smooth="yes"/>
      <point x="334" y="474"/>
      <point x="343" y="456"/>
      <point x="349" y="393" type="curve" smooth="yes"/>
      <point x="353" y="360" type="line"/>
      <point x="414" y="360" type="line"/>
      <point x="409" y="536" type="line"/>
      <point x="11" y="536" type="line"/>
      <point x="8" y="360" type="line"/>
      <point x="69" y="360" type="line"/>
      <point x="71" y="393" type="line" smooth="yes"/>
      <point x="79" y="456"/>
      <point x="86" y="474"/>
      <point x="126" y="474" type="curve" smooth="yes"/>
      <point x="141" y="474" type="line"/>
      <point x="141" y="184" type="line" smooth="yes"/>
      <point x="141" y="57"/>
      <point x="207" y="-10"/>
    </contour>
  </outline>
</glyph>
<glyph name="uni0517" format="2">
  <advance width="731"/>
  <unicode hex="0517"/>
  <anchor x="366" y="-240" name="bottom"/>
  <anchor x="366" y="536" name="top"/>
  <outline>
    <contour>
      <point x="6" y="-240" type="line"/>
      <point x="275" y="-240" type="line"/>
      <point x="275" y="-187" type="line"/>
      <point x="249" y="-187" type="line" smooth="yes"/>
      <point x="237" y="-187"/>
      <point x="205" y="-179"/>
      <point x="205" y="-122" type="curve" smooth="yes"/>
      <point x="205" y="-53" type="line" smooth="yes"/>
      <point x="205" y="-6"/>
      <point x="202" y="37"/>
      <point x="201" y="59" type="curve"/>
      <point x="206" y="59" type="line"/>
      <point x="226" y="15"/>
      <point x="255" y="-11"/>
      <point x="303" y="-11" type="curve" smooth="yes"/>
      <point x="393" y="-11"/>
      <point x="444" y="63"/>
      <point x="452" y="230" type="curve"/>
      <point x="485" y="159" type="line" smooth="yes"/>
      <point x="501" y="113"/>
      <point x="512" y="101"/>
      <point x="512" y="86" type="curve" smooth="yes"/>
      <point x="512" y="64"/>
      <point x="497" y="53"/>
      <point x="469" y="53" type="curve" smooth="yes"/>
      <point x="466" y="53" type="line"/>
      <point x="466" y="0" type="line"/>
      <point x="722" y="0" type="line"/>
      <point x="722" y="53" type="line"/>
      <point x="712" y="53" type="line" smooth="yes"/>
      <point x="694" y="53"/>
      <point x="676" y="68"/>
      <point x="654" y="106" type="curve" smooth="yes"/>
      <point x="548" y="298" type="line"/>
      <point x="624" y="419" type="line" smooth="yes"/>
      <point x="656" y="469"/>
      <point x="667" y="483"/>
      <point x="696" y="483" type="curve" smooth="yes"/>
      <point x="702" y="483" type="line"/>
      <point x="702" y="536" type="line"/>
      <point x="531" y="536" type="line"/>
      <point x="531" y="483" type="line"/>
      <point x="535" y="483" type="line" smooth="yes"/>
      <point x="553" y="483"/>
      <point x="565" y="478"/>
      <point x="565" y="454" type="curve" smooth="yes"/>
      <point x="565" y="436"/>
      <point x="551" y="416"/>
      <point x="538" y="397" type="curve" smooth="yes"/>
      <point x="453" y="280" type="line"/>
      <point x="451" y="464"/>
      <point x="399" y="546"/>
      <point x="304" y="546" type="curve" smooth="yes"/>
      <point x="249" y="546"/>
      <point x="214" y="510"/>
      <point x="195" y="460" type="curve"/>
      <point x="191" y="460" type="line"/>
      <point x="173" y="536" type="line"/>
      <point x="21" y="536" type="line"/>
      <point x="21" y="483" type="line"/>
      <point x="23" y="483" type="line" smooth="yes"/>
      <point x="48" y="483"/>
      <point x="62" y="474"/>
      <point x="62" y="413" type="curve" smooth="yes"/>
      <point x="62" y="-122" type="line" smooth="yes"/>
      <point x="62" y="-180"/>
      <point x="29" y="-187"/>
      <point x="17" y="-187" type="curve" smooth="yes"/>
      <point x="6" y="-187" type="line"/>
    </contour>
    <contour>
      <point x="258" y="58" type="curve" smooth="yes"/>
      <point x="215" y="58"/>
      <point x="205" y="127"/>
      <point x="205" y="267" type="curve" smooth="yes"/>
      <point x="205" y="397"/>
      <point x="215" y="475"/>
      <point x="261" y="475" type="curve" smooth="yes"/>
      <point x="297" y="475"/>
      <point x="311" y="400"/>
      <point x="311" y="266" type="curve" smooth="yes"/>
      <point x="311" y="128"/>
      <point x="297" y="58"/>
    </contour>
  </outline>
</glyph>
<glyph name="uni0520" format="2">
  <advance width="773"/>
  <unicode hex="0520"/>
  <anchor x="387" y="-248" name="bottom"/>
  <anchor x="387" y="714" name="top"/>
  <outline>
    <contour>
      <point x="518" y="-248" type="curve" smooth="yes"/>
      <point x="677" y="-248"/>
      <point x="754" y="-130"/>
      <point x="754" y="83" type="curve" smooth="yes"/>
      <point x="754" y="278"/>
      <point x="683" y="395"/>
      <point x="518" y="395" type="curve" smooth="yes"/>
      <point x="502" y="395"/>
      <point x="481" y="391"/>
      <point x="458" y="384" type="curve"/>
      <point x="458" y="596" type="line" smooth="yes"/>
      <point x="458" y="654"/>
      <point x="468" y="661"/>
      <point x="493" y="661" type="curve" smooth="yes"/>
      <point x="522" y="661" type="line"/>
      <point x="522" y="714" type="line"/>
      <point x="109" y="714" type="line"/>
      <point x="109" y="661" type="line"/>
      <point x="120" y="661" type="line" smooth="yes"/>
      <point x="153" y="661"/>
      <point x="179" y="656"/>
      <point x="179" y="617" type="curve" smooth="yes"/>
      <point x="179" y="574"/>
      <point x="163" y="349"/>
      <point x="141" y="218" type="curve" smooth="yes"/>
      <point x="123" y="116"/>
      <point x="102" y="88"/>
      <point x="71" y="88" type="curve" smooth="yes"/>
      <point x="52" y="88"/>
      <point x="38" y="109"/>
      <point x="38" y="135" type="curve"/>
      <point x="21" y="135"/>
      <point x="-1" y="115"/>
      <point x="-1" y="71" type="curve" smooth="yes"/>
      <point x="-1" y="24"/>
      <point x="26" y="-7"/>
      <point x="68" y="-7" type="curve" smooth="yes"/>
      <point x="116" y="-7"/>
      <point x="159" y="31"/>
      <point x="187" y="151" type="curve" smooth="yes"/>
      <point x="214" y="283"/>
      <point x="232" y="495"/>
      <point x="236" y="661" type="curve"/>
      <point x="313" y="661" type="line"/>
      <point x="313" y="118" type="line" smooth="yes"/>
      <point x="313" y="60"/>
      <point x="304" y="53"/>
      <point x="278" y="53" type="curve" smooth="yes"/>
      <point x="252" y="53" type="line"/>
      <point x="252" y="0" type="line"/>
      <point x="521" y="0" type="line"/>
      <point x="521" y="53" type="line"/>
      <point x="493" y="53" type="line" smooth="yes"/>
      <point x="470" y="53"/>
      <point x="458" y="59"/>
      <point x="458" y="112" type="curve" smooth="yes"/>
      <point x="458" y="325" type="line"/>
      <point x="470" y="331"/>
      <point x="476" y="333"/>
      <point x="483" y="333" type="curve" smooth="yes"/>
      <point x="574" y="333"/>
      <point x="596" y="245"/>
      <point x="596" y="84" type="curve" smooth="yes"/>
      <point x="596" y="-101"/>
      <point x="580" y="-186"/>
      <point x="520" y="-186" type="curve" smooth="yes"/>
      <point x="471" y="-186"/>
      <point x="459" y="-139"/>
      <point x="453" y="-66" type="curve"/>
      <point x="394" y="-66"/>
      <point x="368" y="-96"/>
      <point x="368" y="-136" type="curve" smooth="yes"/>
      <point x="368" y="-202"/>
      <point x="414" y="-248"/>
    </contour>
  </outline>
</glyph>
<glyph name="uni0523" format="2">
  <advance width="714"/>
  <unicode hex="0523"/>
  <anchor x="357" y="-240" name="bottom"/>
  <anchor x="357" y="536" name="top"/>
  <outline>
    <contour>
      <point x="484" y="-240" type="curve" smooth="yes"/>
      <point x="609" y="-240"/>
      <point x="697" y="-168"/>
      <point x="697" y="44" type="curve" smooth="yes"/>
      <point x="697" y="227"/>
      <point x="630" y="304"/>
      <point x="513" y="304" type="curve" smooth="yes"/>
      <point x="485" y="304"/>
      <point x="462" y="299"/>
      <point x="445" y="294" type="curve"/>
      <point x="445" y="418" type="line" smooth="yes"/>
      <point x="445" y="472"/>
      <point x="464" y="483"/>
      <point x="492" y="483" type="curve" smooth="yes"/>
      <point x="499" y="483" type="line"/>
      <point x="499" y="536" type="line"/>
      <point x="268" y="536" type="line"/>
      <point x="268" y="483" type="line"/>
      <point x="270" y="483" type="line" smooth="yes"/>
      <point x="294" y="483"/>
      <point x="304" y="471"/>
      <point x="304" y="419" type="curve" smooth="yes"/>
      <point x="304" y="303" type="line"/>
      <point x="205" y="303" type="line"/>
      <point x="205" y="418" type="line" smooth="yes"/>
      <point x="205" y="472"/>
      <point x="212" y="483"/>
      <point x="238" y="483" type="curve" smooth="yes"/>
      <point x="241" y="483" type="line"/>
      <point x="241" y="536" type="line"/>
      <point x="10" y="536" type="line"/>
      <point x="10" y="483" type="line"/>
      <point x="19" y="483" type="line" smooth="yes"/>
      <point x="46" y="483"/>
      <point x="62" y="471"/>
      <point x="62" y="419" type="curve" smooth="yes"/>
      <point x="62" y="118" type="line" smooth="yes"/>
      <point x="62" y="64"/>
      <point x="47" y="53"/>
      <point x="19" y="53" type="curve" smooth="yes"/>
      <point x="10" y="53" type="line"/>
      <point x="10" y="0" type="line"/>
      <point x="241" y="0" type="line"/>
      <point x="241" y="53" type="line"/>
      <point x="237" y="53" type="line" smooth="yes"/>
      <point x="214" y="53"/>
      <point x="205" y="64"/>
      <point x="205" y="118" type="curve" smooth="yes"/>
      <point x="205" y="246" type="line"/>
      <point x="304" y="246" type="line"/>
      <point x="304" y="118" type="line" smooth="yes"/>
      <point x="304" y="64"/>
      <point x="294" y="53"/>
      <point x="270" y="53" type="curve" smooth="yes"/>
      <point x="268" y="53" type="line"/>
      <point x="268" y="0" type="line"/>
      <point x="499" y="0" type="line"/>
      <point x="499" y="53" type="line"/>
      <point x="492" y="53" type="line" smooth="yes"/>
      <point x="464" y="53"/>
      <point x="445" y="67"/>
      <point x="445" y="118" type="curve" smooth="yes"/>
      <point x="445" y="236" type="line"/>
      <point x="458" y="240"/>
      <point x="468" y="243"/>
      <point x="483" y="243" type="curve" smooth="yes"/>
      <point x="531" y="243"/>
      <point x="555" y="190"/>
      <point x="555" y="41" type="curve" smooth="yes"/>
      <point x="555" y="-122"/>
      <point x="538" y="-177"/>
      <point x="491" y="-177" type="curve" smooth="yes"/>
      <point x="453" y="-177"/>
      <point x="437" y="-139"/>
      <point x="437" y="-68" type="curve"/>
      <point x="368" y="-68"/>
      <point x="351" y="-96"/>
      <point x="351" y="-133" type="curve" smooth="yes"/>
      <point x="351" y="-190"/>
      <point x="393" y="-240"/>
    </contour>
  </outline>
</glyph>
<glyph name="uni0524" format="2">
  <advance width="610"/>
  <unicode hex="0524"/>
  <anchor x="305" y="0" name="bottom"/>
  <anchor x="305" y="714" name="top"/>
  <outline>
    <contour>
      <point x="526" y="-210" type="curve"/>
      <point x="596" y="-210" type="line"/>
      <point x="596" y="71" type="line"/>
      <point x="567" y="71" type="line" smooth="yes"/>
      <point x="535" y="71"/>
      <point x="529" y="86"/>
      <point x="529" y="145" type="curve" smooth="yes"/>
      <point x="529" y="596" type="line" smooth="yes"/>
      <point x="529" y="654"/>
      <point x="545" y="661"/>
      <point x="570" y="661" type="curve" smooth="yes"/>
      <point x="596" y="661" type="line"/>
      <point x="596" y="714" type="line"/>
      <point x="16" y="714" type="line"/>
      <point x="16" y="661" type="line"/>
      <point x="39" y="661" type="line" smooth="yes"/>
      <point x="64" y="661"/>
      <point x="81" y="654"/>
      <point x="81" y="600" type="curve" smooth="yes"/>
      <point x="81" y="118" type="line" smooth="yes"/>
      <point x="81" y="60"/>
      <point x="65" y="53"/>
      <point x="39" y="53" type="curve" smooth="yes"/>
      <point x="16" y="53" type="line"/>
      <point x="16" y="0" type="line"/>
      <point x="279" y="0" type="line"/>
      <point x="279" y="53" type="line"/>
      <point x="265" y="53" type="line" smooth="yes"/>
      <point x="241" y="53"/>
      <point x="228" y="60"/>
      <point x="228" y="118" type="curve" smooth="yes"/>
      <point x="228" y="653" type="line"/>
      <point x="384" y="653" type="line"/>
      <point x="384" y="118" type="line" smooth="yes"/>
      <point x="384" y="60"/>
      <point x="368" y="53"/>
      <point x="343" y="53" type="curve" smooth="yes"/>
      <point x="331" y="53" type="line"/>
      <point x="331" y="0" type="line"/>
      <point x="445" y="0" type="line" smooth="yes"/>
      <point x="516" y="0"/>
      <point x="532" y="-83"/>
    </contour>
  </outline>
</glyph>
<glyph name="uni052C" format="2">
  <advance width="576"/>
  <unicode hex="052C"/>
  <anchor x="289" y="-210" name="bottom"/>
  <anchor x="289" y="714" name="top"/>
  <outline>
    <contour>
      <point x="27" y="-210" type="line"/>
      <point x="84" y="-210" type="line"/>
      <point x="84" y="-62"/>
      <point x="101" y="0"/>
      <point x="166" y="0" type="curve" smooth="yes"/>
      <point x="459" y="0" type="line" smooth="yes"/>
      <point x="521" y="0"/>
      <point x="540" y="-58"/>
      <point x="540" y="-210" type="curve"/>
      <point x="600" y="-210" type="line"/>
      <point x="600" y="62" type="line"/>
      <point x="585" y="62" type="line" smooth="yes"/>
      <point x="546" y="62"/>
      <point x="526" y="75"/>
      <point x="526" y="145" type="curve" smooth="yes"/>
      <point x="526" y="597" type="line" smooth="yes"/>
      <point x="526" y="650"/>
      <point x="538" y="661"/>
      <point x="567" y="661" type="curve" smooth="yes"/>
      <point x="593" y="661" type="line"/>
      <point x="593" y="714" type="line"/>
      <point x="361" y="714" type="line"/>
      <point x="79" y="61" type="line"/>
      <point x="27" y="61" type="line"/>
    </contour>
    <contour>
      <point x="136" y="61" type="line"/>
      <point x="378" y="632" type="line"/>
      <point x="380" y="61" type="line"/>
    </contour>
    <contour>
      <point x="255" y="248" type="curve" smooth="yes"/>
      <point x="331" y="248"/>
      <point x="379" y="271"/>
      <point x="390" y="289" type="curve"/>
      <point x="390" y="357" type="line"/>
      <point x="380" y="338"/>
      <point x="350" y="326"/>
      <point x="311" y="326" type="curve" smooth="yes"/>
      <point x="232" y="326"/>
      <point x="214" y="359"/>
      <point x="214" y="468" type="curve" smooth="yes"/>
      <point x="214" y="594" type="line" smooth="yes"/>
      <point x="214" y="650"/>
      <point x="223" y="661"/>
      <point x="250" y="661" type="curve" smooth="yes"/>
      <point x="263" y="661" type="line"/>
      <point x="263" y="714" type="line"/>
      <point x="13" y="714" type="line"/>
      <point x="13" y="661" type="line"/>
      <point x="28" y="661" type="line"/>
      <point x="56" y="661"/>
      <point x="65" y="650"/>
      <point x="65" y="594" type="curve" smooth="yes"/>
      <point x="65" y="462" type="line" smooth="yes"/>
      <point x="65" y="297"/>
      <point x="140" y="248"/>
    </contour>
  </outline>
</glyph>
<glyph name="uni1AB1" format="2">
  <unicode hex="1AB1"/>
  <anchor x="-1" y="536" name="_top"/>
  <anchor x="-1" y="742" name="top"/>
  <outline>
    <contour>
      <point x="0" y="668" type="curve" smooth="yes"/>
      <point x="50" y="668"/>
      <point x="90" y="681"/>
      <point x="90" y="705" type="curve" smooth="yes"/>
      <point x="90" y="729"/>
      <point x="50" y="742"/>
      <point x="0" y="742" type="curve" smooth="yes"/>
      <point x="-50" y="742"/>
      <point x="-90" y="729"/>
      <point x="-90" y="705" type="curve" smooth="yes"/>
      <point x="-90" y="681"/>
      <point x="-50" y="668"/>
    </contour>
    <contour>
      <point x="-169" y="656" type="curve" smooth="yes"/>
      <point x="-143" y="656"/>
      <point x="-117" y="662"/>
      <point x="-117" y="689" type="curve" smooth="yes"/>
      <point x="-117" y="716"/>
      <point x="-143" y="722"/>
      <point x="-169" y="722" type="curve" smooth="yes"/>
      <point x="-193" y="722"/>
      <point x="-219" y="716"/>
      <point x="-219" y="689" type="curve" smooth="yes"/>
      <point x="-219" y="662"/>
      <point x="-193" y="656"/>
    </contour>
    <contour>
      <point x="0" y="695" type="curve" smooth="yes"/>
      <point x="-22" y="695"/>
      <point x="-41" y="697"/>
      <point x="-41" y="705" type="curve" smooth="yes"/>
      <point x="-41" y="713"/>
      <point x="-22" y="715"/>
      <point x="0" y="715" type="curve" smooth="yes"/>
      <point x="22" y="715"/>
      <point x="41" y="713"/>
      <point x="41" y="705" type="curve" smooth="yes"/>
      <point x="41" y="697"/>
      <point x="22" y="695"/>
    </contour>
    <contour>
      <point x="169" y="656" type="curve" smooth="yes"/>
      <point x="194" y="656"/>
      <point x="218" y="662"/>
      <point x="218" y="689" type="curve" smooth="yes"/>
      <point x="218" y="716"/>
      <point x="194" y="722"/>
      <point x="169" y="722" type="curve" smooth="yes"/>
      <point x="142" y="722"/>
      <point x="119" y="716"/>
      <point x="119" y="689" type="curve" smooth="yes"/>
      <point x="119" y="662"/>
      <point x="142" y="656"/>
    </contour>
  </outline>
</glyph>
<glyph name="uni1AB3" format="2">
  <unicode hex="1AB3"/>
  <anchor x="1" y="536" name="_top"/>
  <anchor x="1" y="800" name="top"/>
  <outline>
    <contour>
      <point x="0" y="556" type="line"/>
      <point x="99" y="670" type="line"/>
      <point x="40" y="670" type="line"/>
      <point x="40" y="800" type="line"/>
      <point x="-41" y="800" type="line"/>
      <point x="-41" y="670" type="line"/>
      <point x="-99" y="670" type="line"/>
    </contour>
  </outline>
</glyph>
<glyph name="uni1AB4" format="2">
  <unicode hex="1AB4"/>
  <anchor x="2" y="536" name="_top"/>
  <anchor x="2" y="796" name="top"/>
  <outline>
    <contour>
      <point x="0" y="741" type="curve" smooth="yes"/>
      <point x="23" y="741"/>
      <point x="47" y="746"/>
      <point x="47" y="767" type="curve" smooth="yes"/>
      <point x="47" y="792"/>
      <point x="20" y="796"/>
      <point x="0" y="796" type="curve" smooth="yes"/>
      <point x="-26" y="796"/>
      <point x="-48" y="792"/>
      <point x="-48" y="767" type="curve" smooth="yes"/>
      <point x="-48" y="744"/>
      <point x="-24" y="741"/>
    </contour>
    <contour>
      <point x="-81" y="637" type="curve" smooth="yes"/>
      <point x="-60" y="637"/>
      <point x="-30" y="638"/>
      <point x="-30" y="663" type="curve" smooth="yes"/>
      <point x="-30" y="688"/>
      <point x="-59" y="692"/>
      <point x="-81" y="692" type="curve" smooth="yes"/>
      <point x="-100" y="692"/>
      <point x="-127" y="690"/>
      <point x="-127" y="663" type="curve" smooth="yes"/>
      <point x="-127" y="640"/>
      <point x="-104" y="637"/>
    </contour>
    <contour>
      <point x="81" y="637" type="curve" smooth="yes"/>
      <point x="99" y="637"/>
      <point x="127" y="642"/>
      <point x="127" y="665" type="curve" smooth="yes"/>
      <point x="127" y="691"/>
      <point x="98" y="693"/>
      <point x="81" y="693" type="curve" smooth="yes"/>
      <point x="57" y="693"/>
      <point x="30" y="689"/>
      <point x="30" y="665" type="curve" smooth="yes"/>
      <point x="30" y="643"/>
      <point x="55" y="637"/>
    </contour>
  </outline>
</glyph>
<glyph name="uni1C83" format="2">
  <advance width="420"/>
  <unicode hex="1C83"/>
  <anchor x="210" y="0" name="bottom"/>
  <anchor x="210" y="536" name="top"/>
  <outline>
    <contour>
      <point x="227" y="-10" type="curve" smooth="yes"/>
      <point x="349" y="-10"/>
      <point x="392" y="52"/>
      <point x="392" y="100" type="curve" smooth="yes"/>
      <point x="392" y="118"/>
      <point x="387" y="137"/>
      <point x="371" y="146" type="curve"/>
      <point x="355" y="100"/>
      <point x="316" y="60"/>
      <point x="261" y="60" type="curve" smooth="yes"/>
      <point x="195" y="60"/>
      <point x="172" y="131"/>
      <point x="172" y="268" type="curve" smooth="yes"/>
      <point x="172" y="438"/>
      <point x="187" y="489"/>
      <point x="231" y="489" type="curve" smooth="yes"/>
      <point x="269" y="489"/>
      <point x="279" y="440"/>
      <point x="279" y="361" type="curve"/>
      <point x="379" y="361"/>
      <point x="395" y="405"/>
      <point x="395" y="446" type="curve" smooth="yes"/>
      <point x="395" y="503"/>
      <point x="357" y="549"/>
      <point x="225" y="549" type="curve" smooth="yes"/>
      <point x="113" y="549"/>
      <point x="29" y="481"/>
      <point x="29" y="267" type="curve" smooth="yes"/>
      <point x="29" y="63"/>
      <point x="104" y="-10"/>
    </contour>
  </outline>
</glyph>
<glyph name="uni1C84" format="2">
  <advance width="463"/>
  <unicode hex="1C84"/>
  <anchor x="232" y="0" name="bottom"/>
  <anchor x="232" y="714" name="top"/>
  <outline>
    <contour>
      <point x="78" y="0" type="line"/>
      <point x="360" y="0" type="line"/>
      <point x="360" y="53" type="line"/>
      <point x="337" y="53" type="line" smooth="yes"/>
      <point x="316" y="53"/>
      <point x="299" y="59"/>
      <point x="299" y="89" type="curve" smooth="yes"/>
      <point x="299" y="96"/>
      <point x="301" y="108"/>
      <point x="303" y="119" type="curve" smooth="yes"/>
      <point x="429" y="657" type="line"/>
      <point x="429" y="714" type="line"/>
      <point x="41" y="714" type="line"/>
      <point x="36" y="521" type="line"/>
      <point x="92" y="521" type="line"/>
      <point x="99" y="582" type="line" smooth="yes"/>
      <point x="103" y="628"/>
      <point x="116" y="653"/>
      <point x="159" y="653" type="curve" smooth="yes"/>
      <point x="294" y="653" type="line"/>
      <point x="164" y="120" type="line" smooth="yes"/>
      <point x="150" y="64"/>
      <point x="135" y="53"/>
      <point x="102" y="53" type="curve" smooth="yes"/>
      <point x="78" y="53" type="line"/>
    </contour>
  </outline>
</glyph>
<glyph name="uni1D01" format="2">
  <advance width="634"/>
  <unicode hex="1D01"/>
  <anchor x="318" y="0" name="bottom"/>
  <anchor x="318" y="536" name="top"/>
  <outline>
    <contour>
      <point x="4" y="0" type="line"/>
      <point x="163" y="0" type="line"/>
      <point x="163" y="54" type="line"/>
      <point x="145" y="54" type="line" smooth="yes"/>
      <point x="130" y="54"/>
      <point x="121" y="62"/>
      <point x="121" y="78" type="curve" smooth="yes"/>
      <point x="121" y="86"/>
      <point x="126" y="103"/>
      <point x="133" y="124" type="curve" smooth="yes"/>
      <point x="148" y="175" type="line"/>
      <point x="276" y="175" type="line"/>
      <point x="276" y="104" type="line" smooth="yes"/>
      <point x="276" y="67"/>
      <point x="268" y="54"/>
      <point x="245" y="54" type="curve" smooth="yes"/>
      <point x="221" y="54" type="line"/>
      <point x="221" y="0" type="line"/>
      <point x="603" y="0" type="line"/>
      <point x="607" y="150" type="line"/>
      <point x="560" y="150" type="line"/>
      <point x="554" y="115" type="line" smooth="yes"/>
      <point x="547" y="82"/>
      <point x="535" y="61"/>
      <point x="505" y="61" type="curve" smooth="yes"/>
      <point x="411" y="61" type="line"/>
      <point x="411" y="250" type="line"/>
      <point x="550" y="250" type="line"/>
      <point x="550" y="305" type="line"/>
      <point x="411" y="305" type="line"/>
      <point x="411" y="475" type="line"/>
      <point x="490" y="475" type="line" smooth="yes"/>
      <point x="509" y="475"/>
      <point x="526" y="464"/>
      <point x="532" y="421" type="curve" smooth="yes"/>
      <point x="536" y="385" type="line"/>
      <point x="587" y="385" type="line"/>
      <point x="587" y="536" type="line"/>
      <point x="171" y="536" type="line"/>
      <point x="171" y="484" type="line"/>
      <point x="212" y="477" type="line"/>
      <point x="64" y="110" type="line" smooth="yes"/>
      <point x="51" y="72"/>
      <point x="33" y="54"/>
      <point x="16" y="54" type="curve" smooth="yes"/>
      <point x="4" y="54" type="line"/>
    </contour>
    <contour>
      <point x="170" y="227" type="line"/>
      <point x="268" y="473" type="line"/>
      <point x="274" y="473" type="line"/>
      <point x="276" y="227" type="line"/>
    </contour>
  </outline>
</glyph>
<glyph name="uni1D06" format="2">
  <advance width="482"/>
  <unicode hex="1D06"/>
  <anchor x="241" y="0" name="bottom"/>
  <anchor x="241" y="536" name="top"/>
  <outline>
    <contour>
      <point x="9" y="0" type="line"/>
      <point x="221" y="0" type="line" smooth="yes"/>
      <point x="368" y="0"/>
      <point x="449" y="117"/>
      <point x="449" y="281" type="curve" smooth="yes"/>
      <point x="449" y="451"/>
      <point x="361" y="536"/>
      <point x="221" y="536" type="curve" smooth="yes"/>
      <point x="9" y="536" type="line"/>
      <point x="9" y="481" type="line"/>
      <point x="36" y="481" type="line" smooth="yes"/>
      <point x="52" y="481"/>
      <point x="62" y="469"/>
      <point x="62" y="436" type="curve" smooth="yes"/>
      <point x="62" y="302" type="line"/>
      <point x="14" y="302" type="line"/>
      <point x="14" y="247" type="line"/>
      <point x="62" y="247" type="line"/>
      <point x="62" y="101" type="line" smooth="yes"/>
      <point x="62" y="66"/>
      <point x="55" y="54"/>
      <point x="32" y="54" type="curve" smooth="yes"/>
      <point x="9" y="54" type="line"/>
    </contour>
    <contour>
      <point x="197" y="62" type="line"/>
      <point x="197" y="247" type="line"/>
      <point x="261" y="247" type="line"/>
      <point x="261" y="302" type="line"/>
      <point x="197" y="302" type="line"/>
      <point x="197" y="474" type="line"/>
      <point x="207" y="474" type="line" smooth="yes"/>
      <point x="270" y="474"/>
      <point x="306" y="410"/>
      <point x="306" y="281" type="curve" smooth="yes"/>
      <point x="306" y="140"/>
      <point x="270" y="62"/>
      <point x="206" y="62" type="curve" smooth="yes"/>
    </contour>
  </outline>
</glyph>
<glyph name="uni1D07" format="2">
  <advance width="405"/>
  <unicode hex="1D07"/>
  <anchor x="203" y="0" name="bottom"/>
  <anchor x="203" y="536" name="top"/>
  <outline>
    <contour>
      <point x="9" y="0" type="line"/>
      <point x="389" y="0" type="line"/>
      <point x="393" y="150" type="line"/>
      <point x="345" y="150" type="line"/>
      <point x="339" y="124" type="line" smooth="yes"/>
      <point x="329" y="89"/>
      <point x="321" y="61"/>
      <point x="290" y="61" type="curve" smooth="yes"/>
      <point x="198" y="61" type="line"/>
      <point x="198" y="250" type="line"/>
      <point x="335" y="250" type="line"/>
      <point x="335" y="305" type="line"/>
      <point x="198" y="305" type="line"/>
      <point x="198" y="475" type="line"/>
      <point x="276" y="475" type="line" smooth="yes"/>
      <point x="296" y="475"/>
      <point x="312" y="460"/>
      <point x="318" y="421" type="curve" smooth="yes"/>
      <point x="321" y="385" type="line"/>
      <point x="374" y="385" type="line"/>
      <point x="372" y="536" type="line"/>
      <point x="9" y="536" type="line"/>
      <point x="9" y="481" type="line"/>
      <point x="34" y="481" type="line" smooth="yes"/>
      <point x="49" y="481"/>
      <point x="62" y="473"/>
      <point x="62" y="434" type="curve" smooth="yes"/>
      <point x="62" y="98" type="line" smooth="yes"/>
      <point x="62" y="67"/>
      <point x="55" y="54"/>
      <point x="31" y="54" type="curve" smooth="yes"/>
      <point x="9" y="54" type="line"/>
    </contour>
  </outline>
</glyph>
<glyph name="uni1D0E" format="2">
  <advance width="490"/>
  <unicode hex="1D0E"/>
  <anchor x="246" y="0" name="bottom"/>
  <anchor x="246" y="536" name="top"/>
  <outline>
    <contour>
      <point x="66" y="0" type="line"/>
      <point x="158" y="0" type="line"/>
      <point x="370" y="381" type="line"/>
      <point x="373" y="381" type="line"/>
      <point x="373" y="107" type="line" smooth="yes"/>
      <point x="373" y="67"/>
      <point x="369" y="54"/>
      <point x="342" y="54" type="curve" smooth="yes"/>
      <point x="321" y="54" type="line"/>
      <point x="321" y="0" type="line"/>
      <point x="480" y="0" type="line"/>
      <point x="480" y="54" type="line"/>
      <point x="458" y="54" type="line" smooth="yes"/>
      <point x="439" y="54"/>
      <point x="428" y="67"/>
      <point x="428" y="107" type="curve" smooth="yes"/>
      <point x="428" y="439" type="line" smooth="yes"/>
      <point x="428" y="475"/>
      <point x="440" y="481"/>
      <point x="455" y="481" type="curve" smooth="yes"/>
      <point x="480" y="481" type="line"/>
      <point x="480" y="536" type="line"/>
      <point x="306" y="536" type="line"/>
      <point x="122" y="186" type="line"/>
      <point x="118" y="186" type="line"/>
      <point x="118" y="435" type="line" smooth="yes"/>
      <point x="118" y="469"/>
      <point x="130" y="481"/>
      <point x="153" y="481" type="curve" smooth="yes"/>
      <point x="172" y="481" type="line"/>
      <point x="172" y="536" type="line"/>
      <point x="11" y="536" type="line"/>
      <point x="11" y="481" type="line"/>
      <point x="30" y="481" type="line" smooth="yes"/>
      <point x="54" y="481"/>
      <point x="66" y="469"/>
      <point x="66" y="432" type="curve" smooth="yes"/>
    </contour>
  </outline>
</glyph>
<glyph name="uni1D0F" format="2">
  <advance width="494"/>
  <unicode hex="1D0F"/>
  <anchor x="248" y="0" name="bottom"/>
  <anchor x="248" y="536" name="top"/>
  <outline>
    <contour>
      <point x="247" y="-8" type="curve" smooth="yes"/>
      <point x="385" y="-8"/>
      <point x="463" y="95"/>
      <point x="463" y="268" type="curve" smooth="yes"/>
      <point x="463" y="442"/>
      <point x="385" y="544"/>
      <point x="248" y="544" type="curve" smooth="yes"/>
      <point x="101" y="544"/>
      <point x="31" y="442"/>
      <point x="31" y="268" type="curve" smooth="yes"/>
      <point x="31" y="95"/>
      <point x="101" y="-8"/>
    </contour>
    <contour>
      <point x="248" y="51" type="curve" smooth="yes"/>
      <point x="190" y="51"/>
      <point x="172" y="128"/>
      <point x="172" y="268" type="curve" smooth="yes"/>
      <point x="172" y="409"/>
      <point x="189" y="484"/>
      <point x="248" y="484" type="curve" smooth="yes"/>
      <point x="303" y="484"/>
      <point x="321" y="409"/>
      <point x="321" y="268" type="curve" smooth="yes"/>
      <point x="321" y="128"/>
      <point x="303" y="51"/>
    </contour>
  </outline>
</glyph>
<glyph name="uni1D10" format="2">
  <advance width="423"/>
  <unicode hex="1D10"/>
  <anchor x="211" y="0" name="bottom"/>
  <anchor x="211" y="536" name="top"/>
  <outline>
    <contour>
      <point x="155" y="-9" type="curve" smooth="yes"/>
      <point x="324" y="-9"/>
      <point x="397" y="106"/>
      <point x="397" y="272" type="curve" smooth="yes"/>
      <point x="397" y="457"/>
      <point x="326" y="543"/>
      <point x="165" y="543" type="curve" smooth="yes"/>
      <point x="31" y="543"/>
      <point x="8" y="478"/>
      <point x="8" y="432" type="curve" smooth="yes"/>
      <point x="8" y="395"/>
      <point x="26" y="370"/>
      <point x="94" y="370" type="curve"/>
      <point x="95" y="444"/>
      <point x="123" y="480"/>
      <point x="164" y="480" type="curve" smooth="yes"/>
      <point x="209" y="480"/>
      <point x="254" y="445"/>
      <point x="254" y="266" type="curve" smooth="yes"/>
      <point x="254" y="132"/>
      <point x="234" y="56"/>
      <point x="171" y="56" type="curve" smooth="yes"/>
      <point x="115" y="56"/>
      <point x="102" y="102"/>
      <point x="102" y="160" type="curve"/>
      <point x="27" y="159"/>
      <point x="9" y="134"/>
      <point x="9" y="98" type="curve" smooth="yes"/>
      <point x="9" y="39"/>
      <point x="49" y="-9"/>
    </contour>
  </outline>
</glyph>
<glyph name="uni1D27" format="2">
  <advance width="446"/>
  <unicode hex="1D27"/>
  <outline>
    <contour>
      <point x="4" y="0" type="line"/>
      <point x="162" y="0" type="line"/>
      <point x="162" y="55" type="line"/>
      <point x="143" y="55" type="line" smooth="yes"/>
      <point x="129" y="55"/>
      <point x="122" y="64"/>
      <point x="122" y="83" type="curve" smooth="yes"/>
      <point x="122" y="97"/>
      <point x="127" y="116"/>
      <point x="136" y="154" type="curve" smooth="yes"/>
      <point x="171" y="321" type="line" smooth="yes"/>
      <point x="176" y="343"/>
      <point x="180" y="363"/>
      <point x="182" y="384" type="curve"/>
      <point x="185" y="384" type="line"/>
      <point x="187" y="364"/>
      <point x="190" y="340"/>
      <point x="194" y="321" type="curve" smooth="yes"/>
      <point x="231" y="142" type="line" smooth="yes"/>
      <point x="236" y="114"/>
      <point x="244" y="93"/>
      <point x="244" y="83" type="curve" smooth="yes"/>
      <point x="244" y="64"/>
      <point x="234" y="55"/>
      <point x="223" y="55" type="curve" smooth="yes"/>
      <point x="202" y="55" type="line"/>
      <point x="202" y="0" type="line"/>
      <point x="442" y="0" type="line"/>
      <point x="442" y="55" type="line"/>
      <point x="427" y="55" type="line" smooth="yes"/>
      <point x="404" y="55"/>
      <point x="395" y="65"/>
      <point x="387" y="96" type="curve" smooth="yes"/>
      <point x="269" y="536" type="line"/>
      <point x="176" y="536" type="line"/>
      <point x="66" y="117" type="line" smooth="yes"/>
      <point x="54" y="75"/>
      <point x="46" y="55"/>
      <point x="23" y="55" type="curve" smooth="yes"/>
      <point x="4" y="55" type="line"/>
    </contour>
  </outline>
</glyph>
<glyph name="uni1D29" format="2">
  <advance width="400"/>
  <unicode hex="1D29"/>
  <outline>
    <contour>
      <point x="9" y="0" type="line"/>
      <point x="268" y="0" type="line"/>
      <point x="268" y="54" type="line"/>
      <point x="229" y="54" type="line" smooth="yes"/>
      <point x="207" y="54"/>
      <point x="196" y="64"/>
      <point x="196" y="101" type="curve" smooth="yes"/>
      <point x="196" y="202" type="line"/>
      <point x="199" y="202" type="line" smooth="yes"/>
      <point x="342" y="202"/>
      <point x="396" y="279"/>
      <point x="396" y="376" type="curve" smooth="yes"/>
      <point x="396" y="479"/>
      <point x="338" y="536"/>
      <point x="212" y="536" type="curve" smooth="yes"/>
      <point x="9" y="536" type="line"/>
      <point x="9" y="481" type="line"/>
      <point x="27" y="481" type="line" smooth="yes"/>
      <point x="49" y="481"/>
      <point x="62" y="466"/>
      <point x="62" y="431" type="curve" smooth="yes"/>
      <point x="62" y="104" type="line" smooth="yes"/>
      <point x="62" y="65"/>
      <point x="47" y="54"/>
      <point x="31" y="54" type="curve" smooth="yes"/>
      <point x="9" y="54" type="line"/>
    </contour>
    <contour>
      <point x="197" y="255" type="line"/>
      <point x="197" y="483" type="line"/>
      <point x="201" y="483" type="line" smooth="yes"/>
      <point x="238" y="483"/>
      <point x="254" y="448"/>
      <point x="254" y="373" type="curve" smooth="yes"/>
      <point x="254" y="291"/>
      <point x="243" y="255"/>
      <point x="201" y="255" type="curve" smooth="yes"/>
    </contour>
  </outline>
</glyph>
<glyph name="uni1D79" format="2">
  <advance width="415"/>
  <unicode hex="1D79"/>
  <outline>
    <contour>
      <point x="207" y="-240" type="curve" smooth="yes"/>
      <point x="325" y="-240"/>
      <point x="386" y="-162"/>
      <point x="386" y="1" type="curve" smooth="yes"/>
      <point x="386" y="89"/>
      <point x="368" y="142"/>
      <point x="326" y="212" type="curve" smooth="yes"/>
      <point x="253" y="310" type="line"/>
      <point x="384" y="466" type="line"/>
      <point x="384" y="536" type="line"/>
      <point x="52" y="536" type="line"/>
      <point x="45" y="341" type="line"/>
      <point x="96" y="341" type="line"/>
      <point x="99" y="373" type="line" smooth="yes"/>
      <point x="105" y="418"/>
      <point x="120" y="430"/>
      <point x="154" y="430" type="curve" smooth="yes"/>
      <point x="251" y="430" type="line"/>
      <point x="183" y="328" type="line"/>
      <point x="183" y="293" type="line"/>
      <point x="227" y="227" type="line"/>
      <point x="218" y="227"/>
      <point x="209" y="229"/>
      <point x="201" y="229" type="curve" smooth="yes"/>
      <point x="91" y="229"/>
      <point x="29" y="144"/>
      <point x="29" y="-6" type="curve" smooth="yes"/>
      <point x="29" y="-166"/>
      <point x="98" y="-240"/>
    </contour>
    <contour>
      <point x="208" y="-183" type="curve" smooth="yes"/>
      <point x="171" y="-183"/>
      <point x="160" y="-120"/>
      <point x="160" y="-6" type="curve" smooth="yes"/>
      <point x="160" y="112"/>
      <point x="172" y="172"/>
      <point x="208" y="172" type="curve" smooth="yes"/>
      <point x="243" y="172"/>
      <point x="256" y="115"/>
      <point x="256" y="-6" type="curve" smooth="yes"/>
      <point x="256" y="-120"/>
      <point x="246" y="-183"/>
    </contour>
  </outline>
</glyph>
<glyph name="uni1D8C" format="2">
  <advance width="453"/>
  <unicode hex="1D8C"/>
  <outline>
    <contour>
      <point x="273" y="-204" type="curve" smooth="yes"/>
      <point x="330" y="-204"/>
      <point x="363" y="-144"/>
      <point x="363" y="-34" type="curve" smooth="yes"/>
      <point x="363" y="54" type="line"/>
      <point x="312" y="54" type="line"/>
      <point x="393" y="411" type="line" smooth="yes"/>
      <point x="408" y="468"/>
      <point x="417" y="483"/>
      <point x="435" y="483" type="curve" smooth="yes"/>
      <point x="455" y="483" type="line"/>
      <point x="455" y="536" type="line"/>
      <point x="292" y="536" type="line"/>
      <point x="292" y="483" type="line"/>
      <point x="307" y="483" type="line" smooth="yes"/>
      <point x="328" y="483"/>
      <point x="338" y="471"/>
      <point x="338" y="453" type="curve" smooth="yes"/>
      <point x="338" y="432"/>
      <point x="335" y="418"/>
      <point x="328" y="392" type="curve" smooth="yes"/>
      <point x="285" y="199" type="line" smooth="yes"/>
      <point x="278" y="165"/>
      <point x="275" y="127"/>
      <point x="272" y="101" type="curve"/>
      <point x="268" y="133"/>
      <point x="262" y="175"/>
      <point x="252" y="219" type="curve" smooth="yes"/>
      <point x="207" y="406" type="line" smooth="yes"/>
      <point x="203" y="420"/>
      <point x="199" y="435"/>
      <point x="199" y="452" type="curve" smooth="yes"/>
      <point x="199" y="472"/>
      <point x="209" y="483"/>
      <point x="229" y="483" type="curve" smooth="yes"/>
      <point x="254" y="483" type="line"/>
      <point x="254" y="536" type="line"/>
      <point x="5" y="536" type="line"/>
      <point x="5" y="483" type="line"/>
      <point x="38" y="483"/>
      <point x="48" y="474"/>
      <point x="59" y="436" type="curve" smooth="yes"/>
      <point x="173" y="0" type="line"/>
      <point x="309" y="0" type="line"/>
      <point x="309" y="-37" type="line" smooth="yes"/>
      <point x="309" y="-94"/>
      <point x="292" y="-117"/>
      <point x="261" y="-117" type="curve" smooth="yes"/>
      <point x="244" y="-117"/>
      <point x="235" y="-110"/>
      <point x="225" y="-101" type="curve"/>
      <point x="220" y="-110"/>
      <point x="216" y="-123"/>
      <point x="216" y="-139" type="curve" smooth="yes"/>
      <point x="216" y="-181"/>
      <point x="238" y="-204"/>
    </contour>
  </outline>
</glyph>
<glyph name="uni1D8E" format="2">
  <advance width="390"/>
  <unicode hex="1D8E"/>
  <outline>
    <contour>
      <point x="291" y="-204" type="curve" smooth="yes"/>
      <point x="350" y="-204"/>
      <point x="380" y="-144"/>
      <point x="380" y="-34" type="curve" smooth="yes"/>
      <point x="380" y="0" type="line"/>
      <point x="384" y="180" type="line"/>
      <point x="333" y="180" type="line"/>
      <point x="328" y="146" type="line" smooth="yes"/>
      <point x="318" y="82"/>
      <point x="303" y="63"/>
      <point x="260" y="63" type="curve" smooth="yes"/>
      <point x="157" y="63" type="line"/>
      <point x="373" y="494" type="line"/>
      <point x="373" y="536" type="line"/>
      <point x="35" y="536" type="line"/>
      <point x="25" y="376" type="line"/>
      <point x="78" y="376" type="line"/>
      <point x="85" y="403" type="line" smooth="yes"/>
      <point x="97" y="458"/>
      <point x="110" y="473"/>
      <point x="142" y="473" type="curve" smooth="yes"/>
      <point x="216" y="473" type="line"/>
      <point x="0" y="40" type="line"/>
      <point x="0" y="0" type="line"/>
      <point x="326" y="0" type="line"/>
      <point x="326" y="-37" type="line" smooth="yes"/>
      <point x="326" y="-94"/>
      <point x="310" y="-117"/>
      <point x="280" y="-117" type="curve" smooth="yes"/>
      <point x="263" y="-117"/>
      <point x="254" y="-110"/>
      <point x="245" y="-101" type="curve"/>
      <point x="239" y="-110"/>
      <point x="234" y="-123"/>
      <point x="234" y="-139" type="curve" smooth="yes"/>
      <point x="234" y="-181"/>
      <point x="256" y="-204"/>
    </contour>
  </outline>
</glyph>
<glyph name="uni1D91" format="2">
  <advance width="488"/>
  <unicode hex="1D91"/>
  <outline>
    <contour>
      <point x="406" y="-240" type="curve" smooth="yes"/>
      <point x="466" y="-240"/>
      <point x="494" y="-232"/>
      <point x="519" y="-224" type="curve"/>
      <point x="519" y="-171" type="line"/>
      <point x="500" y="-175"/>
      <point x="484" y="-179"/>
      <point x="469" y="-179" type="curve" smooth="yes"/>
      <point x="434" y="-179"/>
      <point x="419" y="-148"/>
      <point x="419" y="-87" type="curve" smooth="yes"/>
      <point x="419" y="601" type="line" smooth="yes"/>
      <point x="419" y="679"/>
      <point x="431" y="708"/>
      <point x="448" y="708" type="curve" smooth="yes"/>
      <point x="467" y="708"/>
      <point x="471" y="669"/>
      <point x="471" y="618" type="curve"/>
      <point x="550" y="618"/>
      <point x="566" y="647"/>
      <point x="566" y="683" type="curve" smooth="yes"/>
      <point x="566" y="722"/>
      <point x="547" y="766"/>
      <point x="439" y="766" type="curve" smooth="yes"/>
      <point x="320" y="766"/>
      <point x="277" y="699"/>
      <point x="277" y="570" type="curve" smooth="yes"/>
      <point x="277" y="552" type="line" smooth="yes"/>
      <point x="277" y="523"/>
      <point x="278" y="496"/>
      <point x="279" y="472" type="curve"/>
      <point x="274" y="472" type="line"/>
      <point x="255" y="515"/>
      <point x="226" y="547"/>
      <point x="173" y="547" type="curve" smooth="yes"/>
      <point x="81" y="547"/>
      <point x="27" y="460"/>
      <point x="27" y="267" type="curve" smooth="yes"/>
      <point x="27" y="75"/>
      <point x="81" y="-10"/>
      <point x="176" y="-10" type="curve" smooth="yes"/>
      <point x="234" y="-10"/>
      <point x="259" y="21"/>
      <point x="280" y="71" type="curve"/>
      <point x="285" y="71" type="line"/>
      <point x="279" y="46"/>
      <point x="277" y="5"/>
      <point x="277" y="-41" type="curve" smooth="yes"/>
      <point x="277" y="-75" type="line" smooth="yes"/>
      <point x="277" y="-189"/>
      <point x="308" y="-240"/>
    </contour>
    <contour>
      <point x="220" y="61" type="curve" smooth="yes"/>
      <point x="184" y="61"/>
      <point x="170" y="128"/>
      <point x="170" y="267" type="curve" smooth="yes"/>
      <point x="170" y="407"/>
      <point x="184" y="478"/>
      <point x="221" y="478" type="curve" smooth="yes"/>
      <point x="264" y="478"/>
      <point x="277" y="402"/>
      <point x="277" y="268" type="curve" smooth="yes"/>
      <point x="277" y="127"/>
      <point x="264" y="61"/>
    </contour>
  </outline>
</glyph>
<glyph name="dottedgrave" format="2">
  <unicode hex="1DC0"/>
  <anchor x="10" y="536" name="_top"/>
  <anchor x="10" y="789" name="top"/>
  <outline>
    <contour>
      <point x="23" y="670" type="curve"/>
      <point x="64" y="670" type="line"/>
      <point x="64" y="679" type="line"/>
      <point x="49" y="699"/>
      <point x="30" y="733"/>
      <point x="26" y="759" type="curve"/>
      <point x="-69" y="759" type="line"/>
      <point x="-69" y="753" type="line"/>
      <point x="-63" y="737"/>
      <point x="-9" y="691"/>
    </contour>
    <contour>
      <point x="-98" y="636" type="curve" smooth="yes"/>
      <point x="-72" y="636"/>
      <point x="-46" y="644"/>
      <point x="-46" y="670" type="curve" smooth="yes"/>
      <point x="-46" y="697"/>
      <point x="-72" y="703"/>
      <point x="-98" y="703" type="curve" smooth="yes"/>
      <point x="-123" y="703"/>
      <point x="-148" y="697"/>
      <point x="-148" y="670" type="curve" smooth="yes"/>
      <point x="-148" y="644"/>
      <point x="-123" y="636"/>
    </contour>
    <contour>
      <point x="120" y="722" type="curve" smooth="yes"/>
      <point x="145" y="722"/>
      <point x="169" y="730"/>
      <point x="169" y="756" type="curve" smooth="yes"/>
      <point x="169" y="784"/>
      <point x="145" y="789"/>
      <point x="120" y="789" type="curve" smooth="yes"/>
      <point x="93" y="789"/>
      <point x="68" y="784"/>
      <point x="68" y="756" type="curve" smooth="yes"/>
      <point x="68" y="730"/>
      <point x="93" y="722"/>
    </contour>
  </outline>
</glyph>
<glyph name="uni1E10" format="2">
  <advance width="576"/>
  <unicode hex="1E10"/>
  <anchor x="288" y="-237" name="bottom"/>
  <anchor x="288" y="714" name="top"/>
  <anchor x="556" y="714" name="topright"/>
  <anchor x="288" y="357" name="center"/>
  <outline>
    <contour>
      <point x="265" y="-237" type="curve" smooth="yes"/>
      <point x="328" y="-237"/>
      <point x="375" y="-197"/>
      <point x="375" y="-128" type="curve" smooth="yes"/>
      <point x="375" y="-73"/>
      <point x="340" y="-41"/>
      <point x="291" y="-36" type="curve"/>
      <point x="298" y="9" type="line"/>
      <point x="252" y="9" type="line"/>
      <point x="238" y="-79" type="line"/>
      <point x="268" y="-84"/>
      <point x="291" y="-91"/>
      <point x="291" y="-130" type="curve" smooth="yes"/>
      <point x="291" y="-167"/>
      <point x="275" y="-177"/>
      <point x="247" y="-177" type="curve" smooth="yes"/>
      <point x="234" y="-177"/>
      <point x="216" y="-174"/>
      <point x="197" y="-169" type="curve"/>
      <point x="197" y="-226" type="line"/>
      <point x="216" y="-233"/>
      <point x="252" y="-237"/>
    </contour>
    <component base="D"/>
  </outline>
</glyph>
<glyph name="Yloop" format="2">
  <advance width="515"/>
  <unicode hex="1EFE"/>
  <anchor x="258" y="0" name="bottom"/>
  <anchor x="258" y="714" name="top"/>
  <outline>
    <contour>
      <point x="143" y="20" type="curve" smooth="yes"/>
      <point x="260" y="20"/>
      <point x="315" y="67"/>
      <point x="357" y="236" type="curve" smooth="yes"/>
      <point x="443" y="583" type="line" smooth="yes"/>
      <point x="459" y="646"/>
      <point x="473" y="661"/>
      <point x="501" y="661" type="curve" smooth="yes"/>
      <point x="511" y="661" type="line"/>
      <point x="511" y="714" type="line"/>
      <point x="323" y="714" type="line"/>
      <point x="323" y="661" type="line"/>
      <point x="342" y="661" type="line" smooth="yes"/>
      <point x="375" y="661"/>
      <point x="387" y="647"/>
      <point x="387" y="626" type="curve" smooth="yes"/>
      <point x="387" y="603"/>
      <point x="382" y="577"/>
      <point x="376" y="544" type="curve" smooth="yes"/>
      <point x="331" y="354" type="line" smooth="yes"/>
      <point x="321" y="314"/>
      <point x="318" y="288"/>
      <point x="312" y="256" type="curve"/>
      <point x="302" y="297"/>
      <point x="292" y="326"/>
      <point x="272" y="387" type="curve" smooth="yes"/>
      <point x="220" y="561" type="line" smooth="yes"/>
      <point x="213" y="584"/>
      <point x="211" y="598"/>
      <point x="211" y="622" type="curve" smooth="yes"/>
      <point x="211" y="648"/>
      <point x="223" y="661"/>
      <point x="246" y="661" type="curve" smooth="yes"/>
      <point x="275" y="661" type="line"/>
      <point x="275" y="714" type="line"/>
      <point x="0" y="714" type="line"/>
      <point x="0" y="661" type="line"/>
      <point x="8" y="661" type="line" smooth="yes"/>
      <point x="34" y="661"/>
      <point x="46" y="646"/>
      <point x="61" y="608" type="curve" smooth="yes"/>
      <point x="205" y="233" type="line"/>
      <point x="185" y="240"/>
      <point x="160" y="241"/>
      <point x="138" y="241" type="curve" smooth="yes"/>
      <point x="56" y="241"/>
      <point x="8" y="213"/>
      <point x="8" y="133" type="curve" smooth="yes"/>
      <point x="8" y="57"/>
      <point x="51" y="20"/>
    </contour>
    <contour>
      <point x="159" y="70" type="curve" smooth="yes"/>
      <point x="83" y="70"/>
      <point x="73" y="94"/>
      <point x="73" y="129" type="curve" smooth="yes"/>
      <point x="73" y="170"/>
      <point x="104" y="183"/>
      <point x="152" y="183" type="curve" smooth="yes"/>
      <point x="186" y="183"/>
      <point x="241" y="153"/>
      <point x="266" y="128" type="curve"/>
      <point x="262" y="124" type="line" smooth="yes"/>
      <point x="244" y="92"/>
      <point x="182" y="70"/>
    </contour>
  </outline>
</glyph>
<glyph name="uni1FBD" format="2">
  <advance width="370"/>
  <unicode hex="1FBD"/>
  <anchor x="187" y="536" name="_top"/>
  <outline>
    <contour>
      <point x="136" y="547" type="line"/>
      <point x="215" y="560"/>
      <point x="238" y="603"/>
      <point x="238" y="656" type="curve" smooth="yes"/>
      <point x="238" y="700"/>
      <point x="214" y="724"/>
      <point x="183" y="724" type="curve" smooth="yes"/>
      <point x="145" y="724"/>
      <point x="136" y="701"/>
      <point x="136" y="677" type="curve" smooth="yes"/>
      <point x="136" y="632"/>
      <point x="176" y="647"/>
      <point x="176" y="623" type="curve" smooth="yes"/>
      <point x="176" y="605"/>
      <point x="172" y="592"/>
      <point x="136" y="583" type="curve"/>
    </contour>
  </outline>
</glyph>
<glyph name="uni1FEF" format="2">
  <advance width="595"/>
  <unicode hex="1FEF"/>
  <anchor x="308" y="536" name="_top"/>
  <anchor x="308" y="760" name="top"/>
  <outline>
    <contour>
      <point x="307" y="591" type="curve"/>
      <point x="377" y="591" type="line"/>
      <point x="377" y="607" type="line"/>
      <point x="367" y="648"/>
      <point x="362" y="711"/>
      <point x="362" y="760" type="curve"/>
      <point x="237" y="760" type="line"/>
      <point x="237" y="749" type="line"/>
      <point x="256" y="704"/>
      <point x="277" y="636"/>
    </contour>
  </outline>
</glyph>
<glyph name="afii00208" format="2">
  <advance width="722"/>
  <unicode hex="2015"/>
  <outline>
    <contour>
      <point x="-5" y="242" type="line"/>
      <point x="725" y="242" type="line"/>
      <point x="725" y="295" type="line"/>
      <point x="-5" y="295" type="line"/>
    </contour>
  </outline>
</glyph>
<glyph name="quotedblbase" format="2">
  <advance width="375"/>
  <unicode hex="201E"/>
  <outline>
    <contour>
      <point x="199" y="-154" type="line"/>
      <point x="298" y="-119"/>
      <point x="337" y="-43"/>
      <point x="337" y="42" type="curve" smooth="yes"/>
      <point x="337" y="109"/>
      <point x="309" y="151"/>
      <point x="262" y="151" type="curve" smooth="yes"/>
      <point x="230" y="151"/>
      <point x="205" y="126"/>
      <point x="205" y="83" type="curve" smooth="yes"/>
      <point x="205" y="4"/>
      <point x="258" y="14"/>
      <point x="258" y="-23" type="curve"/>
      <point x="258" y="-62"/>
      <point x="237" y="-82"/>
      <point x="199" y="-103" type="curve"/>
    </contour>
    <contour>
      <point x="39" y="-154" type="line"/>
      <point x="141" y="-119"/>
      <point x="178" y="-43"/>
      <point x="178" y="42" type="curve" smooth="yes"/>
      <point x="178" y="109"/>
      <point x="152" y="151"/>
      <point x="103" y="151" type="curve" smooth="yes"/>
      <point x="71" y="151"/>
      <point x="48" y="126"/>
      <point x="48" y="83" type="curve" smooth="yes"/>
      <point x="48" y="4"/>
      <point x="101" y="14"/>
      <point x="101" y="-23" type="curve" smooth="yes"/>
      <point x="101" y="-62"/>
      <point x="79" y="-82"/>
      <point x="39" y="-103" type="curve"/>
    </contour>
  </outline>
</glyph>
<glyph name="interrobang" format="2">
  <advance width="446"/>
  <unicode hex="203D"/>
  <outline>
    <contour>
      <point x="184" y="233" type="line"/>
      <point x="234" y="233" type="line"/>
      <point x="243" y="312" type="line"/>
      <point x="379" y="357"/>
      <point x="438" y="431"/>
      <point x="438" y="537" type="curve" smooth="yes"/>
      <point x="438" y="660"/>
      <point x="381" y="724"/>
      <point x="210" y="724" type="curve" smooth="yes"/>
      <point x="44" y="724"/>
      <point x="7" y="661"/>
      <point x="7" y="597" type="curve" smooth="yes"/>
      <point x="7" y="543"/>
      <point x="45" y="516"/>
      <point x="117" y="516" type="curve"/>
      <point x="117" y="604"/>
      <point x="137" y="664"/>
      <point x="211" y="664" type="curve" smooth="yes"/>
      <point x="283" y="664"/>
      <point x="305" y="614"/>
      <point x="305" y="531" type="curve" smooth="yes"/>
      <point x="305" y="463"/>
      <point x="290" y="412"/>
      <point x="252" y="384" type="curve"/>
      <point x="281" y="593" type="line"/>
      <point x="142" y="593" type="line"/>
    </contour>
    <contour>
      <point x="209" y="-7" type="curve" smooth="yes"/>
      <point x="248" y="-7"/>
      <point x="280" y="11"/>
      <point x="280" y="70" type="curve" smooth="yes"/>
      <point x="280" y="125"/>
      <point x="248" y="143"/>
      <point x="211" y="143" type="curve" smooth="yes"/>
      <point x="173" y="143"/>
      <point x="141" y="125"/>
      <point x="141" y="70" type="curve" smooth="yes"/>
      <point x="141" y="11"/>
      <point x="172" y="-7"/>
    </contour>
  </outline>
</glyph>
<glyph name="flowerpunctuationmark" format="2">
  <advance width="390"/>
  <unicode hex="2055"/>
  <outline>
    <contour>
      <point x="159" y="129" type="line"/>
      <point x="233" y="129" type="line"/>
      <point x="218" y="293" type="line"/>
      <point x="288" y="162" type="line"/>
      <point x="341" y="227" type="line"/>
      <point x="253" y="327" type="line"/>
      <point x="364" y="308" type="line"/>
      <point x="364" y="401" type="line"/>
      <point x="254" y="380" type="line"/>
      <point x="341" y="483" type="line"/>
      <point x="288" y="548" type="line"/>
      <point x="221" y="416" type="line"/>
      <point x="233" y="581" type="line"/>
      <point x="159" y="581" type="line"/>
      <point x="173" y="413" type="line"/>
      <point x="104" y="549" type="line"/>
      <point x="51" y="484" type="line"/>
      <point x="138" y="380" type="line"/>
      <point x="29" y="401" type="line"/>
      <point x="29" y="308" type="line"/>
      <point x="138" y="327" type="line"/>
      <point x="51" y="226" type="line"/>
      <point x="104" y="161" type="line"/>
      <point x="173" y="292" type="line"/>
    </contour>
  </outline>
</glyph>
<glyph name="dottedcross" format="2">
  <advance width="504"/>
  <unicode hex="205C"/>
  <outline>
    <contour>
      <point x="110" y="0" type="curve" smooth="yes"/>
      <point x="139" y="0"/>
      <point x="163" y="16"/>
      <point x="163" y="68" type="curve" smooth="yes"/>
      <point x="163" y="123"/>
      <point x="139" y="140"/>
      <point x="110" y="140" type="curve" smooth="yes"/>
      <point x="81" y="140"/>
      <point x="59" y="123"/>
      <point x="59" y="68" type="curve" smooth="yes"/>
      <point x="59" y="16"/>
      <point x="81" y="0"/>
    </contour>
    <contour>
      <point x="112" y="396" type="curve" smooth="yes"/>
      <point x="140" y="396"/>
      <point x="163" y="413"/>
      <point x="163" y="465" type="curve" smooth="yes"/>
      <point x="163" y="519"/>
      <point x="140" y="536"/>
      <point x="112" y="536" type="curve" smooth="yes"/>
      <point x="83" y="536"/>
      <point x="59" y="519"/>
      <point x="59" y="465" type="curve" smooth="yes"/>
      <point x="59" y="413"/>
      <point x="83" y="396"/>
    </contour>
    <contour>
      <point x="392" y="0" type="curve" smooth="yes"/>
      <point x="421" y="0"/>
      <point x="445" y="18"/>
      <point x="445" y="70" type="curve" smooth="yes"/>
      <point x="445" y="124"/>
      <point x="421" y="140"/>
      <point x="392" y="140" type="curve" smooth="yes"/>
      <point x="363" y="140"/>
      <point x="341" y="124"/>
      <point x="341" y="70" type="curve" smooth="yes"/>
      <point x="341" y="18"/>
      <point x="363" y="0"/>
    </contour>
    <contour>
      <point x="394" y="396" type="curve" smooth="yes"/>
      <point x="422" y="396"/>
      <point x="445" y="414"/>
      <point x="445" y="466" type="curve" smooth="yes"/>
      <point x="445" y="521"/>
      <point x="422" y="536"/>
      <point x="394" y="536" type="curve" smooth="yes"/>
      <point x="365" y="536"/>
      <point x="341" y="521"/>
      <point x="341" y="466" type="curve" smooth="yes"/>
      <point x="341" y="414"/>
      <point x="365" y="396"/>
    </contour>
    <contour>
      <point x="223" y="0" type="line"/>
      <point x="282" y="0" type="line"/>
      <point x="282" y="233" type="line"/>
      <point x="445" y="233" type="line"/>
      <point x="445" y="304" type="line"/>
      <point x="282" y="304" type="line"/>
      <point x="282" y="536" type="line"/>
      <point x="223" y="536" type="line"/>
      <point x="223" y="304" type="line"/>
      <point x="59" y="304" type="line"/>
      <point x="59" y="233" type="line"/>
      <point x="223" y="233" type="line"/>
    </contour>
  </outline>
</glyph>
<glyph name="equalsuperior" format="2">
  <advance width="293"/>
  <unicode hex="207C"/>
  <outline>
    <contour>
      <point x="17" y="525" type="line"/>
      <point x="277" y="525" type="line"/>
      <point x="277" y="588" type="line"/>
      <point x="17" y="588" type="line"/>
    </contour>
    <contour>
      <point x="17" y="374" type="line"/>
      <point x="277" y="374" type="line"/>
      <point x="277" y="437" type="line"/>
      <point x="17" y="437" type="line"/>
    </contour>
  </outline>
</glyph>
<glyph name="uni20B2" format="2">
  <advance width="585"/>
  <unicode hex="20B2"/>
  <anchor x="323" y="714" name="top"/>
  <anchor x="565" y="714" name="topright"/>
  <anchor x="323" y="0" name="bottom"/>
  <outline>
    <contour>
      <point x="284" y="-79" type="line"/>
      <point x="329" y="-79" type="line"/>
      <point x="329" y="780" type="line"/>
      <point x="284" y="780" type="line"/>
    </contour>
    <component base="G"/>
  </outline>
</glyph>
<glyph name="addressedtothesubject" format="2">
  <advance width="609"/>
  <unicode hex="2101"/>
  <outline>
    <contour>
      <point x="100" y="380" type="curve" smooth="yes"/>
      <point x="141" y="380"/>
      <point x="168" y="406"/>
      <point x="186" y="439" type="curve"/>
      <point x="191" y="439" type="line"/>
      <point x="209" y="386" type="line"/>
      <point x="307" y="386" type="line"/>
      <point x="307" y="429" type="line"/>
      <point x="285" y="429"/>
      <point x="276" y="438"/>
      <point x="276" y="468" type="curve"/>
      <point x="276" y="613" type="line" smooth="yes"/>
      <point x="276" y="689"/>
      <point x="238" y="719"/>
      <point x="156" y="719" type="curve" smooth="yes"/>
      <point x="78" y="719"/>
      <point x="37" y="690"/>
      <point x="37" y="645" type="curve" smooth="yes"/>
      <point x="37" y="616"/>
      <point x="62" y="612"/>
      <point x="121" y="612" type="curve"/>
      <point x="121" y="647"/>
      <point x="125" y="679"/>
      <point x="151" y="679" type="curve"/>
      <point x="174" y="679"/>
      <point x="178" y="650"/>
      <point x="178" y="613" type="curve" smooth="yes"/>
      <point x="178" y="584" type="line"/>
      <point x="144" y="582" type="line"/>
      <point x="58" y="577"/>
      <point x="18" y="544"/>
      <point x="18" y="476" type="curve" smooth="yes"/>
      <point x="18" y="415"/>
      <point x="50" y="380"/>
    </contour>
    <contour>
      <point x="140" y="436" type="curve" smooth="yes"/>
      <point x="127" y="436"/>
      <point x="117" y="449"/>
      <point x="117" y="482" type="curve"/>
      <point x="117" y="523"/>
      <point x="131" y="544"/>
      <point x="166" y="546" type="curve"/>
      <point x="178" y="547" type="line"/>
      <point x="178" y="505" type="line" smooth="yes"/>
      <point x="178" y="464"/>
      <point x="168" y="436"/>
    </contour>
    <contour>
      <point x="183" y="0" type="line"/>
      <point x="247" y="0" type="line"/>
      <point x="503" y="714" type="line"/>
      <point x="440" y="714" type="line"/>
    </contour>
    <contour>
      <point x="472" y="-8" type="curve" smooth="yes"/>
      <point x="567" y="-8"/>
      <point x="595" y="36"/>
      <point x="595" y="99" type="curve" smooth="yes"/>
      <point x="595" y="154"/>
      <point x="566" y="179"/>
      <point x="512" y="199" type="curve" smooth="yes"/>
      <point x="464" y="220"/>
      <point x="448" y="228"/>
      <point x="448" y="251" type="curve" smooth="yes"/>
      <point x="448" y="271"/>
      <point x="457" y="286"/>
      <point x="481" y="286" type="curve" smooth="yes"/>
      <point x="503" y="286"/>
      <point x="520" y="269"/>
      <point x="520" y="221" type="curve"/>
      <point x="573" y="221"/>
      <point x="586" y="239"/>
      <point x="586" y="263" type="curve" smooth="yes"/>
      <point x="586" y="297"/>
      <point x="558" y="328"/>
      <point x="482" y="328" type="curve" smooth="yes"/>
      <point x="407" y="328"/>
      <point x="366" y="295"/>
      <point x="366" y="230" type="curve" smooth="yes"/>
      <point x="366" y="175"/>
      <point x="394" y="153"/>
      <point x="446" y="128" type="curve" smooth="yes"/>
      <point x="478" y="115"/>
      <point x="507" y="96"/>
      <point x="507" y="73" type="curve" smooth="yes"/>
      <point x="507" y="50"/>
      <point x="497" y="35"/>
      <point x="471" y="35" type="curve" smooth="yes"/>
      <point x="432" y="35"/>
      <point x="422" y="66"/>
      <point x="422" y="110" type="curve"/>
      <point x="372" y="110"/>
      <point x="358" y="97"/>
      <point x="358" y="63" type="curve" smooth="yes"/>
      <point x="358" y="19"/>
      <point x="392" y="-8"/>
    </contour>
  </outline>
</glyph>
<glyph name="prescription" format="2">
  <advance width="626"/>
  <unicode hex="211E"/>
  <outline>
    <contour>
      <point x="16" y="0" type="line"/>
      <point x="228" y="0" type="line"/>
      <point x="228" y="320" type="line"/>
      <point x="259" y="320" type="line"/>
      <point x="360" y="160" type="line"/>
      <point x="313" y="97" type="line" smooth="yes"/>
      <point x="291" y="70"/>
      <point x="268" y="52"/>
      <point x="249" y="52" type="curve" smooth="yes"/>
      <point x="246" y="52" type="line"/>
      <point x="246" y="0" type="line"/>
      <point x="396" y="0" type="line"/>
      <point x="396" y="52" type="line"/>
      <point x="381" y="52"/>
      <point x="370" y="61"/>
      <point x="370" y="73" type="curve" smooth="yes"/>
      <point x="370" y="84"/>
      <point x="374" y="96"/>
      <point x="386" y="122" type="curve"/>
      <point x="418" y="75" type="line" smooth="yes"/>
      <point x="462" y="12"/>
      <point x="483" y="0"/>
      <point x="554" y="0" type="curve" smooth="yes"/>
      <point x="617" y="0" type="line"/>
      <point x="617" y="53" type="line"/>
      <point x="609" y="53" type="line" smooth="yes"/>
      <point x="584" y="53"/>
      <point x="567" y="79"/>
      <point x="533" y="127" type="curve" smooth="yes"/>
      <point x="485" y="195" type="line"/>
      <point x="527" y="254" type="line" smooth="yes"/>
      <point x="556" y="295"/>
      <point x="576" y="303"/>
      <point x="600" y="303" type="curve" smooth="yes"/>
      <point x="610" y="303" type="line"/>
      <point x="610" y="354" type="line"/>
      <point x="458" y="354" type="line"/>
      <point x="458" y="303" type="line"/>
      <point x="472" y="303"/>
      <point x="483" y="299"/>
      <point x="483" y="282" type="curve" smooth="yes"/>
      <point x="483" y="270"/>
      <point x="466" y="253"/>
      <point x="456" y="234" type="curve"/>
      <point x="392" y="346" type="line"/>
      <point x="437" y="372"/>
      <point x="484" y="432"/>
      <point x="484" y="536" type="curve" smooth="yes"/>
      <point x="484" y="653"/>
      <point x="423" y="714"/>
      <point x="277" y="714" type="curve" smooth="yes"/>
      <point x="16" y="714" type="line"/>
      <point x="16" y="661" type="line"/>
      <point x="46" y="661" type="line" smooth="yes"/>
      <point x="68" y="661"/>
      <point x="81" y="648"/>
      <point x="81" y="594" type="curve" smooth="yes"/>
      <point x="81" y="117" type="line" smooth="yes"/>
      <point x="81" y="63"/>
      <point x="69" y="53"/>
      <point x="44" y="53" type="curve" smooth="yes"/>
      <point x="16" y="53" type="line"/>
    </contour>
    <contour>
      <point x="227" y="378" type="line"/>
      <point x="227" y="655" type="line"/>
      <point x="249" y="655" type="line" smooth="yes"/>
      <point x="300" y="655"/>
      <point x="330" y="612"/>
      <point x="330" y="520" type="curve" smooth="yes"/>
      <point x="330" y="428"/>
      <point x="302" y="378"/>
      <point x="251" y="378" type="curve" smooth="yes"/>
    </contour>
  </outline>
</glyph>
<glyph name="alephsymbol" format="2">
  <advance width="478"/>
  <unicode hex="2135"/>
  <outline>
    <contour>
      <point x="374" y="-38" type="curve"/>
      <point x="467" y="47" type="line"/>
      <point x="444" y="98"/>
      <point x="411" y="162"/>
      <point x="364" y="237" type="curve"/>
      <point x="422" y="333"/>
      <point x="453" y="466"/>
      <point x="456" y="585" type="curve"/>
      <point x="318" y="585" type="line"/>
      <point x="316" y="524"/>
      <point x="323" y="416"/>
      <point x="290" y="334" type="curve"/>
      <point x="228" y="438"/>
      <point x="151" y="542"/>
      <point x="91" y="609" type="curve"/>
      <point x="5" y="514" type="line"/>
      <point x="31" y="485"/>
      <point x="71" y="444"/>
      <point x="114" y="384" type="curve"/>
      <point x="47" y="272"/>
      <point x="21" y="140"/>
      <point x="21" y="0" type="curve"/>
      <point x="147" y="0" type="line"/>
      <point x="147" y="112"/>
      <point x="170" y="215"/>
      <point x="198" y="295" type="curve"/>
      <point x="269" y="175"/>
      <point x="328" y="52"/>
    </contour>
  </outline>
</glyph>
<glyph name="facsimile" format="2">
  <advance width="764"/>
  <unicode hex="213B"/>
  <outline>
    <contour>
      <point x="204" y="373" type="line"/>
      <point x="303" y="373" type="line"/>
      <point x="303" y="409" type="line"/>
      <point x="281" y="409" type="line" smooth="yes"/>
      <point x="277" y="409"/>
      <point x="273" y="413"/>
      <point x="273" y="426" type="curve" smooth="yes"/>
      <point x="273" y="430"/>
      <point x="275" y="442"/>
      <point x="276" y="450" type="curve" smooth="yes"/>
      <point x="286" y="482" type="line"/>
      <point x="360" y="482" type="line"/>
      <point x="368" y="443" type="line" smooth="yes"/>
      <point x="369" y="439"/>
      <point x="370" y="434"/>
      <point x="370" y="426" type="curve" smooth="yes"/>
      <point x="370" y="413"/>
      <point x="361" y="409"/>
      <point x="354" y="409" type="curve" smooth="yes"/>
      <point x="341" y="409" type="line"/>
      <point x="341" y="373" type="line"/>
      <point x="478" y="373" type="line"/>
      <point x="478" y="409" type="line"/>
      <point x="471" y="409" type="line" smooth="yes"/>
      <point x="461" y="409"/>
      <point x="456" y="419"/>
      <point x="448" y="445" type="curve" smooth="yes"/>
      <point x="381" y="712" type="line"/>
      <point x="309" y="712" type="line"/>
      <point x="236" y="442" type="line" smooth="yes"/>
      <point x="229" y="416"/>
      <point x="220" y="409"/>
      <point x="207" y="409" type="curve" smooth="yes"/>
      <point x="204" y="409" type="line"/>
    </contour>
    <contour>
      <point x="16" y="373" type="line"/>
      <point x="167" y="373" type="line"/>
      <point x="167" y="409" type="line"/>
      <point x="149" y="409" type="line" smooth="yes"/>
      <point x="136" y="409"/>
      <point x="128" y="414"/>
      <point x="128" y="442" type="curve" smooth="yes"/>
      <point x="128" y="526" type="line"/>
      <point x="208" y="526" type="line"/>
      <point x="208" y="563" type="line"/>
      <point x="128" y="563" type="line"/>
      <point x="128" y="673" type="line"/>
      <point x="169" y="673" type="line" smooth="yes"/>
      <point x="180" y="673"/>
      <point x="194" y="664"/>
      <point x="196" y="639" type="curve" smooth="yes"/>
      <point x="201" y="614" type="line"/>
      <point x="232" y="614" type="line"/>
      <point x="231" y="712" type="line"/>
      <point x="16" y="712" type="line"/>
      <point x="16" y="677" type="line"/>
      <point x="30" y="677" type="line" smooth="yes"/>
      <point x="40" y="677"/>
      <point x="48" y="670"/>
      <point x="48" y="648" type="curve" smooth="yes"/>
      <point x="48" y="439" type="line" smooth="yes"/>
      <point x="48" y="420"/>
      <point x="43" y="409"/>
      <point x="28" y="409" type="curve" smooth="yes"/>
      <point x="16" y="409" type="line"/>
    </contour>
    <contour>
      <point x="292" y="517" type="line"/>
      <point x="311" y="595" type="line" smooth="yes"/>
      <point x="316" y="616"/>
      <point x="320" y="636"/>
      <point x="324" y="658" type="curve"/>
      <point x="327" y="635"/>
      <point x="332" y="613"/>
      <point x="336" y="597" type="curve" smooth="yes"/>
      <point x="352" y="517" type="line"/>
    </contour>
    <contour>
      <point x="491" y="373" type="line"/>
      <point x="590" y="373" type="line"/>
      <point x="590" y="409" type="line"/>
      <point x="572" y="409"/>
      <point x="566" y="414"/>
      <point x="566" y="426" type="curve" smooth="yes"/>
      <point x="566" y="435"/>
      <point x="571" y="442"/>
      <point x="574" y="453" type="curve" smooth="yes"/>
      <point x="598" y="511" type="line"/>
      <point x="619" y="464" type="line" smooth="yes"/>
      <point x="628" y="441"/>
      <point x="633" y="434"/>
      <point x="633" y="426" type="curve" smooth="yes"/>
      <point x="633" y="414"/>
      <point x="622" y="409"/>
      <point x="607" y="409" type="curve"/>
      <point x="607" y="373" type="line"/>
      <point x="753" y="373" type="line"/>
      <point x="753" y="409" type="line"/>
      <point x="747" y="409" type="line" smooth="yes"/>
      <point x="739" y="409"/>
      <point x="729" y="414"/>
      <point x="720" y="437" type="curve" smooth="yes"/>
      <point x="662" y="556" type="line"/>
      <point x="704" y="639" type="line" smooth="yes"/>
      <point x="718" y="668"/>
      <point x="725" y="677"/>
      <point x="740" y="677" type="curve" smooth="yes"/>
      <point x="743" y="677" type="line"/>
      <point x="743" y="713" type="line"/>
      <point x="654" y="713" type="line"/>
      <point x="654" y="677" type="line"/>
      <point x="665" y="677"/>
      <point x="673" y="674"/>
      <point x="673" y="661" type="curve" smooth="yes"/>
      <point x="673" y="650"/>
      <point x="666" y="643"/>
      <point x="664" y="631" type="curve" smooth="yes"/>
      <point x="648" y="589" type="line"/>
      <point x="628" y="633" type="line" smooth="yes"/>
      <point x="624" y="645"/>
      <point x="621" y="653"/>
      <point x="621" y="662" type="curve" smooth="yes"/>
      <point x="621" y="672"/>
      <point x="627" y="677"/>
      <point x="640" y="677" type="curve"/>
      <point x="640" y="713" type="line"/>
      <point x="498" y="713" type="line"/>
      <point x="498" y="677" type="line"/>
      <point x="503" y="677" type="line" smooth="yes"/>
      <point x="514" y="677"/>
      <point x="526" y="669"/>
      <point x="534" y="647" type="curve" smooth="yes"/>
      <point x="582" y="542" type="line"/>
      <point x="532" y="445" type="line" smooth="yes"/>
      <point x="519" y="416"/>
      <point x="511" y="409"/>
      <point x="491" y="409" type="curve"/>
    </contour>
  </outline>
</glyph>
<glyph name="uni2C61" format="2">
  <advance width="276"/>
  <unicode hex="2C61"/>
  <anchor x="139" y="0" name="bottom"/>
  <anchor x="139" y="760" name="top"/>
  <anchor x="270" y="760" name="topright"/>
  <anchor x="139" y="268" name="center"/>
  <outline>
    <contour>
      <point x="7" y="407" type="line"/>
      <point x="268" y="407" type="line"/>
      <point x="268" y="477" type="line"/>
      <point x="7" y="477" type="line"/>
    </contour>
    <contour>
      <point x="7" y="281" type="line"/>
      <point x="268" y="281" type="line"/>
      <point x="268" y="351" type="line"/>
      <point x="7" y="351" type="line"/>
    </contour>
    <component base="l"/>
  </outline>
</glyph>
<glyph name="uni2C6B" format="2">
  <advance width="523"/>
  <unicode hex="2C6B"/>
  <anchor x="261" y="0" name="bottom"/>
  <anchor x="261" y="714" name="top"/>
  <outline>
    <contour>
      <point x="423" y="-210" type="curve"/>
      <point x="470" y="-210" type="line"/>
      <point x="470" y="61" type="line"/>
      <point x="197" y="61" type="line"/>
      <point x="470" y="664" type="line"/>
      <point x="470" y="714" type="line"/>
      <point x="52" y="714" type="line"/>
      <point x="47" y="510" type="line"/>
      <point x="110" y="510" type="line"/>
      <point x="114" y="564" type="line" smooth="yes"/>
      <point x="117" y="617"/>
      <point x="125" y="653"/>
      <point x="174" y="653" type="curve" smooth="yes"/>
      <point x="304" y="653" type="line"/>
      <point x="33" y="49" type="line"/>
      <point x="33" y="0" type="line"/>
      <point x="340" y="0" type="line" smooth="yes"/>
      <point x="399" y="0"/>
      <point x="412" y="-37"/>
    </contour>
  </outline>
</glyph>
<glyph name="Turnede" format="2">
  <advance width="405"/>
  <unicode hex="2C7B"/>
  <anchor x="207" y="0" name="bottom"/>
  <anchor x="207" y="536" name="top"/>
  <outline>
    <contour>
      <point x="16" y="0" type="line"/>
      <point x="396" y="0" type="line"/>
      <point x="396" y="54" type="line"/>
      <point x="374" y="54" type="line" smooth="yes"/>
      <point x="350" y="54"/>
      <point x="343" y="67"/>
      <point x="343" y="98" type="curve" smooth="yes"/>
      <point x="343" y="434" type="line" smooth="yes"/>
      <point x="343" y="473"/>
      <point x="356" y="481"/>
      <point x="371" y="481" type="curve" smooth="yes"/>
      <point x="396" y="481" type="line"/>
      <point x="396" y="536" type="line"/>
      <point x="33" y="536" type="line"/>
      <point x="31" y="385" type="line"/>
      <point x="84" y="385" type="line"/>
      <point x="87" y="421" type="line" smooth="yes"/>
      <point x="89" y="460"/>
      <point x="109" y="475"/>
      <point x="129" y="475" type="curve" smooth="yes"/>
      <point x="207" y="475" type="line"/>
      <point x="207" y="305" type="line"/>
      <point x="70" y="305" type="line"/>
      <point x="70" y="250" type="line"/>
      <point x="207" y="250" type="line"/>
      <point x="207" y="61" type="line"/>
      <point x="115" y="61" type="line" smooth="yes"/>
      <point x="84" y="61"/>
      <point x="73" y="89"/>
      <point x="66" y="124" type="curve" smooth="yes"/>
      <point x="60" y="150" type="line"/>
      <point x="12" y="150" type="line"/>
    </contour>
  </outline>
</glyph>
<glyph name="twodotsoveronedotpunctuation" format="2">
  <advance width="425"/>
  <unicode hex="2E2A"/>
  <outline>
    <contour>
      <point x="308" y="303" type="curve" smooth="yes"/>
      <point x="347" y="303"/>
      <point x="377" y="323"/>
      <point x="377" y="383" type="curve" smooth="yes"/>
      <point x="377" y="444"/>
      <point x="347" y="462"/>
      <point x="308" y="462" type="curve" smooth="yes"/>
      <point x="269" y="462"/>
      <point x="238" y="444"/>
      <point x="238" y="383" type="curve" smooth="yes"/>
      <point x="238" y="323"/>
      <point x="269" y="303"/>
    </contour>
    <contour>
      <point x="218" y="-14" type="curve" smooth="yes"/>
      <point x="256" y="-14"/>
      <point x="289" y="5"/>
      <point x="289" y="66" type="curve" smooth="yes"/>
      <point x="289" y="126"/>
      <point x="256" y="144"/>
      <point x="218" y="144" type="curve" smooth="yes"/>
      <point x="179" y="144"/>
      <point x="147" y="126"/>
      <point x="147" y="66" type="curve" smooth="yes"/>
      <point x="147" y="5"/>
      <point x="179" y="-14"/>
    </contour>
    <contour>
      <point x="120" y="303" type="curve" smooth="yes"/>
      <point x="157" y="303"/>
      <point x="189" y="323"/>
      <point x="189" y="383" type="curve" smooth="yes"/>
      <point x="189" y="444"/>
      <point x="157" y="462"/>
      <point x="120" y="462" type="curve" smooth="yes"/>
      <point x="81" y="462"/>
      <point x="49" y="444"/>
      <point x="49" y="383" type="curve" smooth="yes"/>
      <point x="49" y="323"/>
      <point x="81" y="303"/>
    </contour>
  </outline>
</glyph>
<glyph name="uniA64D" format="2">
  <advance width="718"/>
  <unicode hex="A64D"/>
  <outline>
    <contour>
      <point x="213" y="-10" type="curve" smooth="yes"/>
      <point x="296" y="-10"/>
      <point x="335" y="29"/>
      <point x="359" y="71" type="curve"/>
      <point x="381" y="28"/>
      <point x="421" y="-10"/>
      <point x="504" y="-10" type="curve" smooth="yes"/>
      <point x="641" y="-10"/>
      <point x="688" y="105"/>
      <point x="688" y="270" type="curve" smooth="yes"/>
      <point x="688" y="452"/>
      <point x="630" y="547"/>
      <point x="501" y="547" type="curve" smooth="yes"/>
      <point x="426" y="547"/>
      <point x="379" y="505"/>
      <point x="379" y="444" type="curve" smooth="yes"/>
      <point x="379" y="400"/>
      <point x="408" y="382"/>
      <point x="471" y="382" type="curve"/>
      <point x="471" y="436"/>
      <point x="475" y="489"/>
      <point x="505" y="489" type="curve" smooth="yes"/>
      <point x="536" y="489"/>
      <point x="547" y="430"/>
      <point x="547" y="285" type="curve" smooth="yes"/>
      <point x="547" y="126"/>
      <point x="522" y="63"/>
      <point x="460" y="63" type="curve" smooth="yes"/>
      <point x="406" y="63"/>
      <point x="387" y="111"/>
      <point x="374" y="168" type="curve"/>
      <point x="343" y="168" type="line"/>
      <point x="330" y="111"/>
      <point x="312" y="63"/>
      <point x="256" y="63" type="curve" smooth="yes"/>
      <point x="196" y="63"/>
      <point x="171" y="124"/>
      <point x="171" y="283" type="curve" smooth="yes"/>
      <point x="171" y="429"/>
      <point x="184" y="489"/>
      <point x="211" y="489" type="curve" smooth="yes"/>
      <point x="241" y="489"/>
      <point x="247" y="436"/>
      <point x="247" y="382" type="curve"/>
      <point x="310" y="382"/>
      <point x="339" y="400"/>
      <point x="339" y="444" type="curve" smooth="yes"/>
      <point x="339" y="505"/>
      <point x="290" y="547"/>
      <point x="215" y="547" type="curve" smooth="yes"/>
      <point x="88" y="547"/>
      <point x="29" y="451"/>
      <point x="29" y="269" type="curve" smooth="yes"/>
      <point x="29" y="105"/>
      <point x="75" y="-10"/>
    </contour>
  </outline>
</glyph>
<glyph name="uniA658" format="2">
  <advance width="577"/>
  <unicode hex="A658"/>
  <outline>
    <contour>
      <point x="5" y="0" type="line"/>
      <point x="570" y="0" type="line"/>
      <point x="570" y="53" type="line"/>
      <point x="562" y="53" type="line" smooth="yes"/>
      <point x="535" y="53"/>
      <point x="515" y="74"/>
      <point x="503" y="123" type="curve" smooth="yes"/>
      <point x="356" y="714" type="line"/>
      <point x="223" y="714" type="line"/>
      <point x="70" y="125" type="line" smooth="yes"/>
      <point x="54" y="68"/>
      <point x="35" y="53"/>
      <point x="9" y="53" type="curve" smooth="yes"/>
      <point x="5" y="53" type="line"/>
    </contour>
    <contour>
      <point x="127" y="56" type="line"/>
      <point x="190" y="340" type="line"/>
      <point x="310" y="340" type="line"/>
      <point x="373" y="56" type="line"/>
    </contour>
    <contour>
      <point x="207" y="400" type="line"/>
      <point x="223" y="478" type="line" smooth="yes"/>
      <point x="239" y="537"/>
      <point x="245" y="584"/>
      <point x="252" y="617" type="curve"/>
      <point x="257" y="566"/>
      <point x="264" y="522"/>
      <point x="276" y="477" type="curve" smooth="yes"/>
      <point x="293" y="400" type="line"/>
    </contour>
  </outline>
</glyph>
<glyph name="uniA659" format="2">
  <advance width="526"/>
  <unicode hex="A659"/>
  <outline>
    <contour>
      <point x="12" y="0" type="line"/>
      <point x="514" y="0" type="line"/>
      <point x="514" y="49" type="line"/>
      <point x="484" y="49"/>
      <point x="473" y="59"/>
      <point x="460" y="108" type="curve" smooth="yes"/>
      <point x="337" y="536" type="line"/>
      <point x="189" y="536" type="line"/>
      <point x="61" y="108" type="line" smooth="yes"/>
      <point x="48" y="64"/>
      <point x="36" y="49"/>
      <point x="12" y="49" type="curve"/>
    </contour>
    <contour>
      <point x="117" y="51" type="line"/>
      <point x="168" y="244" type="line"/>
      <point x="281" y="244" type="line"/>
      <point x="328" y="51" type="line"/>
    </contour>
    <contour>
      <point x="185" y="297" type="line"/>
      <point x="200" y="357" type="line" smooth="yes"/>
      <point x="210" y="396"/>
      <point x="215" y="427"/>
      <point x="223" y="463" type="curve"/>
      <point x="224" y="463" type="line"/>
      <point x="231" y="424"/>
      <point x="238" y="390"/>
      <point x="246" y="360" type="curve" smooth="yes"/>
      <point x="263" y="297" type="line"/>
    </contour>
  </outline>
</glyph>
<glyph name="uniA671" format="2">
  <unicode hex="A671"/>
  <outline>
    <contour>
      <point x="-209" y="579" type="line"/>
      <point x="-167" y="579" type="line"/>
      <point x="-167" y="678" type="line"/>
      <point x="166" y="678" type="line"/>
      <point x="166" y="579" type="line"/>
      <point x="208" y="579" type="line"/>
      <point x="208" y="753" type="line"/>
      <point x="-209" y="753" type="line"/>
    </contour>
    <contour>
      <point x="-209" y="-217" type="line"/>
      <point x="208" y="-217" type="line"/>
      <point x="208" y="-43" type="line"/>
      <point x="166" y="-43" type="line"/>
      <point x="166" y="-142" type="line"/>
      <point x="-167" y="-142" type="line"/>
      <point x="-167" y="-43" type="line"/>
      <point x="-209" y="-43" type="line"/>
    </contour>
  </outline>
</glyph>
<glyph name="uniA701" format="2">
  <advance width="321"/>
  <unicode hex="A701"/>
  <outline>
    <contour>
      <point x="180" y="-98" type="curve" smooth="yes"/>
      <point x="281" y="-98" type="line"/>
      <point x="281" y="-45" type="line"/>
      <point x="180" y="-45" type="line" smooth="yes"/>
      <point x="120" y="-45"/>
      <point x="93" y="-20"/>
      <point x="93" y="35" type="curve" smooth="yes"/>
      <point x="93" y="89"/>
      <point x="120" y="114"/>
      <point x="180" y="114" type="curve" smooth="yes"/>
      <point x="281" y="114" type="line"/>
      <point x="281" y="167" type="line"/>
      <point x="180" y="167" type="line" smooth="yes"/>
      <point x="87" y="167"/>
      <point x="40" y="121"/>
      <point x="40" y="35" type="curve" smooth="yes"/>
      <point x="40" y="-49"/>
      <point x="85" y="-98"/>
    </contour>
    <contour>
      <point x="50" y="-228" type="line"/>
      <point x="281" y="-228" type="line"/>
      <point x="281" y="-175" type="line"/>
      <point x="50" y="-175" type="line"/>
    </contour>
  </outline>
</glyph>
<glyph name="uniA720" format="2">
  <advance width="425"/>
  <unicode hex="A720"/>
  <outline>
    <contour>
      <point x="384" y="584" type="line"/>
      <point x="41" y="716" type="line"/>
      <point x="41" y="525" type="line"/>
      <point x="77" y="511" type="line"/>
      <point x="77" y="649" type="line"/>
      <point x="191" y="607" type="line"/>
      <point x="191" y="488" type="line"/>
      <point x="227" y="473" type="line"/>
      <point x="227" y="592" type="line"/>
      <point x="384" y="532" type="line"/>
    </contour>
  </outline>
</glyph>
<glyph name="uniA72D" format="2">
  <advance width="382"/>
  <unicode hex="A72D"/>
  <outline>
    <contour>
      <point x="159" y="-238" type="curve" smooth="yes"/>
      <point x="283" y="-238"/>
      <point x="341" y="-168"/>
      <point x="341" y="-24" type="curve" smooth="yes"/>
      <point x="341" y="536" type="line"/>
      <point x="212" y="536" type="line"/>
      <point x="21" y="85" type="line"/>
      <point x="21" y="22" type="line"/>
      <point x="209" y="22" type="line"/>
      <point x="209" y="-50" type="line" smooth="yes"/>
      <point x="209" y="-141"/>
      <point x="193" y="-175"/>
      <point x="164" y="-175" type="curve" smooth="yes"/>
      <point x="131" y="-175"/>
      <point x="120" y="-140"/>
      <point x="120" y="-68" type="curve"/>
      <point x="53" y="-68"/>
      <point x="17" y="-90"/>
      <point x="17" y="-137" type="curve" smooth="yes"/>
      <point x="17" y="-191"/>
      <point x="54" y="-238"/>
    </contour>
    <contour>
      <point x="81" y="89" type="line"/>
      <point x="174" y="307" type="line" smooth="yes"/>
      <point x="189" y="341"/>
      <point x="204" y="406"/>
      <point x="213" y="437" type="curve"/>
      <point x="211" y="393"/>
      <point x="209" y="324"/>
      <point x="209" y="273" type="curve" smooth="yes"/>
      <point x="209" y="89" type="line"/>
    </contour>
  </outline>
</glyph>
<glyph name="uniA72E" format="2">
  <advance width="517"/>
  <unicode hex="A72E"/>
  <outline>
    <contour>
      <point x="140" y="-10" type="curve" smooth="yes"/>
      <point x="264" y="-10"/>
      <point x="324" y="54"/>
      <point x="324" y="199" type="curve" smooth="yes"/>
      <point x="324" y="237" type="line"/>
      <point x="388" y="237" type="line"/>
      <point x="388" y="306" type="line"/>
      <point x="324" y="306" type="line"/>
      <point x="324" y="714" type="line"/>
      <point x="198" y="714" type="line"/>
      <point x="7" y="299" type="line"/>
      <point x="7" y="237" type="line"/>
      <point x="192" y="237" type="line"/>
      <point x="192" y="178" type="line" smooth="yes"/>
      <point x="191" y="88"/>
      <point x="174" y="51"/>
      <point x="146" y="51" type="curve" smooth="yes"/>
      <point x="112" y="51"/>
      <point x="103" y="87"/>
      <point x="103" y="160" type="curve"/>
      <point x="38" y="160"/>
      <point x="-1" y="134"/>
      <point x="-1" y="88" type="curve" smooth="yes"/>
      <point x="-1" y="35"/>
      <point x="37" y="-10"/>
    </contour>
    <contour>
      <point x="365" y="-11" type="line"/>
      <point x="454" y="-2"/>
      <point x="490" y="48"/>
      <point x="490" y="116" type="curve" smooth="yes"/>
      <point x="490" y="163"/>
      <point x="469" y="202"/>
      <point x="422" y="202" type="curve" smooth="yes"/>
      <point x="391" y="202"/>
      <point x="363" y="182"/>
      <point x="363" y="145" type="curve" smooth="yes"/>
      <point x="363" y="90"/>
      <point x="414" y="105"/>
      <point x="414" y="73" type="curve" smooth="yes"/>
      <point x="414" y="50"/>
      <point x="394" y="36"/>
      <point x="365" y="31" type="curve"/>
    </contour>
    <contour>
      <point x="66" y="306" type="line"/>
      <point x="155" y="505" type="line" smooth="yes"/>
      <point x="168" y="531"/>
      <point x="186" y="589"/>
      <point x="194" y="618" type="curve"/>
      <point x="192" y="574"/>
      <point x="190" y="519"/>
      <point x="190" y="467" type="curve" smooth="yes"/>
      <point x="190" y="306" type="line"/>
    </contour>
  </outline>
</glyph>
<glyph name="uniA72F" format="2">
  <advance width="518"/>
  <unicode hex="A72F"/>
  <outline>
    <contour>
      <point x="159" y="-238" type="curve" smooth="yes"/>
      <point x="283" y="-238"/>
      <point x="341" y="-168"/>
      <point x="341" y="-24" type="curve" smooth="yes"/>
      <point x="341" y="22" type="line"/>
      <point x="432" y="22" type="line"/>
      <point x="432" y="89" type="line"/>
      <point x="341" y="89" type="line"/>
      <point x="341" y="536" type="line"/>
      <point x="212" y="536" type="line"/>
      <point x="21" y="85" type="line"/>
      <point x="21" y="22" type="line"/>
      <point x="209" y="22" type="line"/>
      <point x="209" y="-50" type="line" smooth="yes"/>
      <point x="209" y="-141"/>
      <point x="193" y="-175"/>
      <point x="164" y="-175" type="curve" smooth="yes"/>
      <point x="131" y="-175"/>
      <point x="120" y="-140"/>
      <point x="120" y="-68" type="curve"/>
      <point x="53" y="-68"/>
      <point x="17" y="-90"/>
      <point x="17" y="-137" type="curve" smooth="yes"/>
      <point x="17" y="-191"/>
      <point x="54" y="-238"/>
    </contour>
    <contour>
      <point x="378" y="-236" type="line"/>
      <point x="465" y="-227"/>
      <point x="502" y="-177"/>
      <point x="502" y="-111" type="curve" smooth="yes"/>
      <point x="502" y="-66"/>
      <point x="482" y="-28"/>
      <point x="435" y="-28" type="curve" smooth="yes"/>
      <point x="402" y="-28"/>
      <point x="376" y="-49"/>
      <point x="376" y="-82" type="curve" smooth="yes"/>
      <point x="376" y="-133"/>
      <point x="427" y="-120"/>
      <point x="427" y="-152" type="curve" smooth="yes"/>
      <point x="427" y="-175"/>
      <point x="407" y="-188"/>
      <point x="378" y="-194" type="curve"/>
    </contour>
    <contour>
      <point x="81" y="89" type="line"/>
      <point x="174" y="307" type="line" smooth="yes"/>
      <point x="189" y="341"/>
      <point x="204" y="406"/>
      <point x="213" y="437" type="curve"/>
      <point x="211" y="393"/>
      <point x="209" y="324"/>
      <point x="209" y="273" type="curve" smooth="yes"/>
      <point x="209" y="89" type="line"/>
    </contour>
  </outline>
</glyph>
<glyph name="uniA736" format="2">
  <advance width="824"/>
  <unicode hex="A736"/>
  <outline>
    <contour>
      <point x="553" y="-10" type="curve" smooth="yes"/>
      <point x="690" y="-10"/>
      <point x="742" y="78"/>
      <point x="742" y="212" type="curve" smooth="yes"/>
      <point x="742" y="596" type="line" smooth="yes"/>
      <point x="742" y="654"/>
      <point x="764" y="661"/>
      <point x="790" y="661" type="curve" smooth="yes"/>
      <point x="811" y="661" type="line"/>
      <point x="811" y="714" type="line"/>
      <point x="616" y="714" type="line"/>
      <point x="616" y="661" type="line"/>
      <point x="637" y="661" type="line" smooth="yes"/>
      <point x="663" y="661"/>
      <point x="682" y="654"/>
      <point x="682" y="600" type="curve" smooth="yes"/>
      <point x="682" y="214" type="line" smooth="yes"/>
      <point x="682" y="112"/>
      <point x="639" y="61"/>
      <point x="589" y="61" type="curve" smooth="yes"/>
      <point x="535" y="61"/>
      <point x="510" y="90"/>
      <point x="493" y="161" type="curve" smooth="yes"/>
      <point x="356" y="714" type="line"/>
      <point x="223" y="714" type="line"/>
      <point x="69" y="125" type="line" smooth="yes"/>
      <point x="54" y="65"/>
      <point x="35" y="53"/>
      <point x="9" y="53" type="curve" smooth="yes"/>
      <point x="5" y="53" type="line"/>
      <point x="5" y="0" type="line"/>
      <point x="201" y="0" type="line"/>
      <point x="201" y="53" type="line"/>
      <point x="169" y="53" type="line" smooth="yes"/>
      <point x="147" y="53"/>
      <point x="140" y="66"/>
      <point x="140" y="90" type="curve" smooth="yes"/>
      <point x="140" y="109"/>
      <point x="146" y="137"/>
      <point x="149" y="153" type="curve" smooth="yes"/>
      <point x="165" y="235" type="line"/>
      <point x="330" y="235" type="line"/>
      <point x="354" y="135" type="line" smooth="yes"/>
      <point x="376" y="36"/>
      <point x="443" y="-10"/>
    </contour>
    <contour>
      <point x="182" y="296" type="line"/>
      <point x="227" y="491" type="line" smooth="yes"/>
      <point x="236" y="532"/>
      <point x="243" y="575"/>
      <point x="251" y="617" type="curve"/>
      <point x="257" y="574"/>
      <point x="266" y="532"/>
      <point x="276" y="487" type="curve" smooth="yes"/>
      <point x="314" y="296" type="line"/>
    </contour>
  </outline>
</glyph>
<glyph name="uniA73A" format="2">
  <advance width="709"/>
  <unicode hex="A73A"/>
  <outline>
    <contour>
      <point x="5" y="0" type="line"/>
      <point x="201" y="0" type="line"/>
      <point x="201" y="53" type="line"/>
      <point x="167" y="53" type="line" smooth="yes"/>
      <point x="145" y="53"/>
      <point x="140" y="66"/>
      <point x="140" y="90" type="curve" smooth="yes"/>
      <point x="140" y="109"/>
      <point x="146" y="137"/>
      <point x="150" y="153" type="curve" smooth="yes"/>
      <point x="188" y="315" type="line"/>
      <point x="312" y="315" type="line"/>
      <point x="387" y="0" type="line"/>
      <point x="493" y="0" type="line"/>
      <point x="575" y="315" type="line"/>
      <point x="659" y="315" type="line"/>
      <point x="659" y="375" type="line"/>
      <point x="592" y="375" type="line"/>
      <point x="640" y="589" type="line" smooth="yes"/>
      <point x="653" y="650"/>
      <point x="664" y="661"/>
      <point x="684" y="661" type="curve" smooth="yes"/>
      <point x="709" y="661" type="line"/>
      <point x="709" y="714" type="line"/>
      <point x="524" y="714" type="line"/>
      <point x="524" y="661" type="line"/>
      <point x="564" y="661" type="line" smooth="yes"/>
      <point x="579" y="661"/>
      <point x="585" y="651"/>
      <point x="585" y="635" type="curve" smooth="yes"/>
      <point x="585" y="619"/>
      <point x="577" y="596"/>
      <point x="573" y="573" type="curve" smooth="yes"/>
      <point x="529" y="375" type="line"/>
      <point x="432" y="375" type="line"/>
      <point x="356" y="714" type="line"/>
      <point x="223" y="714" type="line"/>
      <point x="69" y="125" type="line" smooth="yes"/>
      <point x="54" y="65"/>
      <point x="35" y="53"/>
      <point x="9" y="53" type="curve" smooth="yes"/>
      <point x="5" y="53" type="line"/>
    </contour>
    <contour>
      <point x="481" y="139" type="curve"/>
      <point x="478" y="172"/>
      <point x="468" y="209"/>
      <point x="464" y="241" type="curve" smooth="yes"/>
      <point x="450" y="315" type="line"/>
      <point x="512" y="315" type="line"/>
      <point x="498" y="256" type="line" smooth="yes"/>
      <point x="487" y="215"/>
      <point x="482" y="173"/>
    </contour>
    <contour>
      <point x="205" y="375" type="line"/>
      <point x="228" y="490" type="line" smooth="yes"/>
      <point x="236" y="534"/>
      <point x="245" y="575"/>
      <point x="251" y="617" type="curve"/>
      <point x="257" y="574"/>
      <point x="265" y="532"/>
      <point x="274" y="487" type="curve" smooth="yes"/>
      <point x="295" y="375" type="line"/>
    </contour>
  </outline>
</glyph>
